<svg width="1193" height="586" viewBox="0 0 1193 586" fill="none" xmlns="http://www.w3.org/2000/svg">
<path d="M341.396 370.597C364.735 381.337 391.334 379.003 391.334 379.003C391.334 379.003 466.001 363.128 453.865 280.533C441.73 197.937 391.803 140.996 391.803 140.996C391.803 140.996 382.006 189.068 373.6 215.199C365.194 241.334 346.064 267.001 346.064 267.001C346.064 267.001 335.325 282.397 326.933 274.47C318.542 266.543 343.272 235.272 343.272 235.272C343.272 235.272 391.803 147.076 373.136 112.072C342.808 61.2078 294.736 55.1396 294.736 55.1396C312.939 71.004 303.606 150.803 303.606 150.803C303.606 150.803 296.601 209.605 272.804 211.469C249.007 213.334 263.007 186.74 263.007 186.74C282.137 142.876 285.408 79.407 285.408 79.407C285.408 79.407 286.814 63.5426 279.809 48.6048C272.803 33.6722 248.075 26.667 233.606 28.0737C219.137 29.4804 176.673 23.8758 176.673 23.8758C211.204 68.2143 204.209 120.48 204.209 120.48C204.209 120.48 204.209 135.412 197.678 143.344C191.147 151.271 183.678 135.875 183.678 135.875C183.678 135.875 179.944 113.011 178.543 77.5469C177.136 42.078 156.605 28.5522 156.605 28.5522C156.605 28.5522 138.402 17.3544 110.402 22.0209C82.4019 26.6771 53.4641 8 53.4641 8C67.4641 36 28.7353 120.933 28.7353 120.933C28.7353 120.933 14.2664 154.069 20.8079 166.667C27.3496 179.261 39.9383 192.803 70.7457 197.939C101.553 203.074 135.615 200.741 135.615 200.741C135.615 200.741 161.751 196.074 176.22 203.069C190.689 210.064 170.621 223.141 170.621 223.141C170.621 223.136 152.402 232.459 107.6 233.402C62.7978 234.345 4 190.933 4 190.933C10.5312 246.933 44.1303 297.333 44.1303 297.333C55.3281 344 87.9948 380.4 87.9948 380.4C87.9948 380.4 91.7291 385.999 124.864 385.067C158.005 384.129 215.868 369.666 215.868 369.666C215.868 369.666 237.806 361.265 245.274 363.603C252.743 365.942 243.41 374.343 243.41 374.343C243.404 374.343 232.67 388.796 184.133 394.394C135.602 399.993 97.3332 399.53 97.3332 399.53C112.266 430.332 148.198 455.53 148.198 455.53C148.198 455.53 204.198 496.134 268.127 483.066C332.055 469.999 335.325 403.262 335.325 403.262L406.721 580.596L418.382 568.46C418.382 568.46 355.377 409.793 341.386 385.99C327.401 362.188 341.401 370.589 341.401 370.589L341.396 370.597ZM95.0188 156.67C95.0188 156.67 73.8889 147.06 103.764 139.8C133.639 132.545 135.29 152.852 135.29 152.852C129.586 180.987 95.0188 156.67 95.0188 156.67ZM161.185 303.927C161.185 303.927 230.784 290.657 235.555 302.5C240.321 314.344 192.664 320.157 161.185 303.927ZM290.822 430.39C282.488 439.26 266.363 437.968 264.233 436.557C263.816 436.281 263.525 435.958 263.29 435.521C261.202 431.651 257.28 400.198 281.082 385.583C298.342 374.843 302.488 397.718 302.488 397.718C304.347 403.468 302.014 418.474 290.822 430.39ZM311.02 237.175C295.838 253.514 298.556 261.899 286.015 257.587C278.832 255.113 285.874 248.378 285.874 248.378C285.874 248.378 296.389 239.321 299.525 223.394C302.671 207.467 313.218 213.457 313.218 213.457C313.213 213.462 326.197 220.837 311.02 237.175Z" fill="black" stroke="black" stroke-width="5.6" stroke-miterlimit="10"/>
<path d="M752.4 226C752.4 243 746.4 257.7 734.4 270.1C722.4 282.3 704.9 291.1 681.9 296.5C694.3 299.9 703.7 305.5 710.1 313.3C716.5 320.9 719.7 329.7 719.7 339.7C719.7 355.5 714.7 369.2 704.7 380.8C694.9 392.4 680.5 401.4 661.5 407.8C642.5 414 619.6 417.1 592.8 417.1C582.8 417.1 574.8 416.8 568.8 416.2C568.6 421.8 566.2 426 561.6 428.8C557 431.6 551.1 433 543.9 433C536.7 433 531.7 431.4 528.9 428.2C526.3 425 525.2 420.3 525.6 414.1C527.4 386.1 530.9 356.8 536.1 326.2C541.3 295.4 547.9 265.7 555.9 237.1C557.3 232.1 560.1 228.6 564.3 226.6C568.5 224.6 574 223.6 580.8 223.6C593 223.6 599.1 227 599.1 233.8C599.1 236.6 598.5 239.8 597.3 243.4C592.1 259 586.9 280.2 581.7 307C576.5 333.6 572.8 359 570.6 383.2C580.2 384 588 384.4 594 384.4C622 384.4 642.5 380.4 655.5 372.4C668.7 364.2 675.3 353.8 675.3 341.2C675.3 332.4 671.5 325 663.9 319C656.5 313 644 309.7 626.4 309.1C622.4 308.9 619.6 307.9 618 306.1C616.4 304.3 615.6 301.4 615.6 297.4C615.6 291.6 616.8 286.9 619.2 283.3C621.6 279.7 626 277.8 632.4 277.6C646.6 277.2 659.4 275.1 670.8 271.3C682.4 267.5 691.5 262.2 698.1 255.4C704.7 248.4 708 240.3 708 231.1C708 219.5 702.3 210.4 690.9 203.8C679.5 197 662 193.6 638.4 193.6C617 193.6 596.3 196.4 576.3 202C556.3 207.4 539.3 214.3 525.3 222.7C518.9 226.5 513.5 228.4 509.1 228.4C505.5 228.4 502.7 227.2 500.7 224.8C498.9 222.2 498 219 498 215.2C498 210.2 499 205.9 501 202.3C503.2 198.7 508.3 194.6 516.3 190C533.1 180.4 552.8 172.9 575.4 167.5C598 162.1 621.1 159.4 644.7 159.4C680.9 159.4 707.9 165.5 725.7 177.7C743.5 189.9 752.4 206 752.4 226ZM779.433 419.5C767.033 419.5 757.133 415 749.733 406C742.333 397 738.633 385.2 738.633 370.6C738.633 354.6 742.333 339.5 749.733 325.3C757.133 310.9 766.933 299.4 779.133 290.8C791.533 282 804.633 277.6 818.433 277.6C822.833 277.6 825.733 278.5 827.133 280.3C828.733 281.9 830.033 284.9 831.033 289.3C835.233 288.5 839.633 288.1 844.233 288.1C854.033 288.1 858.933 291.6 858.933 298.6C858.933 302.8 857.433 312.8 854.433 328.6C849.833 351.6 847.533 367.6 847.533 376.6C847.533 379.6 848.233 382 849.633 383.8C851.233 385.6 853.233 386.5 855.633 386.5C859.433 386.5 864.033 384.1 869.433 379.3C874.833 374.3 882.133 366.3 891.333 355.3C893.733 352.5 896.433 351.1 899.433 351.1C902.033 351.1 904.033 352.3 905.433 354.7C907.033 357.1 907.833 360.4 907.833 364.6C907.833 372.6 905.933 378.8 902.133 383.2C893.933 393.4 885.233 402 876.033 409C866.833 416 857.933 419.5 849.333 419.5C842.733 419.5 836.633 417.3 831.033 412.9C825.633 408.3 821.533 402.1 818.733 394.3C808.333 411.1 795.233 419.5 779.433 419.5ZM790.233 389.2C794.633 389.2 798.833 386.6 802.833 381.4C806.833 376.2 809.733 369.3 811.533 360.7L822.633 305.5C814.233 305.7 806.433 308.9 799.233 315.1C792.233 321.1 786.633 329.1 782.433 339.1C778.233 349.1 776.133 359.7 776.133 370.9C776.133 377.1 777.333 381.7 779.733 384.7C782.333 387.7 785.833 389.2 790.233 389.2ZM940.751 419.5C921.151 419.5 905.851 414 894.851 403C884.051 391.8 878.651 377.1 878.651 358.9C878.651 342.7 881.851 328.5 888.251 316.3C894.651 304.1 902.951 294.7 913.151 288.1C923.351 281.5 934.051 278.2 945.251 278.2C956.251 278.2 964.751 281.5 970.751 288.1C976.951 294.5 980.051 302.8 980.051 313C980.051 321.4 978.151 328.5 974.351 334.3C970.751 340.1 965.951 343 959.951 343C956.151 343 953.051 342.1 950.651 340.3C948.451 338.5 947.351 336 947.351 332.8C947.351 331.4 947.551 329.8 947.951 328C948.351 326.2 948.651 324.9 948.851 324.1C949.851 321.1 950.351 318.3 950.351 315.7C950.351 313.1 949.651 311.1 948.251 309.7C947.051 308.3 945.251 307.6 942.851 307.6C938.251 307.6 933.951 309.7 929.951 313.9C925.951 317.9 922.751 323.4 920.351 330.4C917.951 337.4 916.751 345.1 916.751 353.5C916.751 376.7 926.851 388.3 947.051 388.3C955.251 388.3 964.051 385.6 973.451 380.2C983.051 374.6 992.451 366.3 1001.65 355.3C1004.05 352.5 1006.75 351.1 1009.75 351.1C1012.35 351.1 1014.35 352.3 1015.75 354.7C1017.35 357.1 1018.15 360.4 1018.15 364.6C1018.15 372.2 1016.25 378.4 1012.45 383.2C1003.05 394.8 991.751 403.8 978.551 410.2C965.551 416.4 952.951 419.5 940.751 419.5ZM1121.4 386.8C1129.6 388.4 1133.7 392.9 1133.7 400.3C1133.7 405.3 1131.4 409.8 1126.8 413.8C1122.4 417.6 1116 419.5 1107.6 419.5C1093.2 419.5 1081.4 415.1 1072.2 406.3C1063.2 397.3 1058.7 385.6 1058.7 371.2C1058.7 363.4 1062.7 357.8 1070.7 354.4C1079.5 350.6 1085.8 346.6 1089.6 342.4C1093.4 338 1095.3 332.7 1095.3 326.5C1095.3 322.9 1094.5 320.2 1092.9 318.4C1091.5 316.6 1089.7 315.7 1087.5 315.7C1082.1 315.7 1076.1 319.6 1069.5 327.4C1063.1 335.2 1057.1 345.3 1051.5 357.7C1045.9 369.9 1041.5 382.5 1038.3 395.5C1036.1 404.9 1033.5 411.3 1030.5 414.7C1027.7 417.9 1023.2 419.5 1017 419.5C1010.8 419.5 1006.2 417.3 1003.2 412.9C1000.4 408.3 998.5 401.3 997.5 391.9C996.5 382.5 996 368.7 996 350.5C996 319.7 999.1 287.6 1005.3 254.2C1011.7 220.8 1021 192.8 1033.2 170.2C1045.6 147.4 1060.4 136 1077.6 136C1086.8 136 1094.2 140 1099.8 148C1105.6 155.8 1108.5 166 1108.5 178.6C1108.5 198.8 1102.6 219.8 1090.8 241.6C1079 263.2 1059.8 288.5 1033.2 317.5C1032.6 327.9 1032.3 338.6 1032.3 349.6C1041.9 324.6 1052.9 306.5 1065.3 295.3C1077.7 283.9 1089.3 278.2 1100.1 278.2C1110.1 278.2 1118.1 281.6 1124.1 288.4C1130.3 295.2 1133.4 303.6 1133.4 313.6C1133.4 324.6 1130.6 334.7 1125 343.9C1119.4 353.1 1109.8 361.3 1096.2 368.5C1097.4 374.5 1099.8 378.7 1103.4 381.1C1107.2 383.3 1113.2 385.2 1121.4 386.8ZM1071.3 165.7C1067.7 165.7 1063.7 170.9 1059.3 181.3C1054.9 191.5 1050.6 205.4 1046.4 223C1042.4 240.4 1039.1 259.4 1036.5 280C1048.9 265.4 1059.1 249.5 1067.1 232.3C1075.3 215.1 1079.4 199.5 1079.4 185.5C1079.4 179.1 1078.7 174.2 1077.3 170.8C1075.9 167.4 1073.9 165.7 1071.3 165.7Z" fill="black"/>
</svg>
