<svg width="1776" height="772" viewBox="0 0 1776 772" fill="none" xmlns="http://www.w3.org/2000/svg">
<g clip-path="url(#clip0_9_217)">
<path d="M1107.22 650.805C1106.34 650.839 1105.46 650.583 1104.71 650.072C1103.97 649.562 1103.39 648.82 1103.05 647.949C1102.72 647.077 1102.64 646.118 1102.84 645.201C1103.04 644.283 1103.5 643.452 1104.16 642.82C1104.27 642.362 1104.35 642.032 1104.46 641.573C1103.63 639.28 1102.18 637.301 1100.28 635.89C1098.38 634.479 1096.13 633.7 1093.81 633.654C1091.49 633.607 1089.21 634.295 1087.27 635.629C1085.32 636.963 1083.79 638.882 1082.88 641.14C1077.63 653.817 1070.87 666.927 1074.05 680.98C1052.65 631.761 1060.63 570.886 1093.27 529.309C1102.24 524.197 1109.55 515.026 1111.53 504.313C1107.1 505.852 1101.63 501.995 1104.99 497.105C1106.45 495.238 1107.92 493.385 1109.37 491.518C1092.78 472.44 1072.53 501.957 1090.76 527.664C1084.65 535.619 1079.34 544.228 1074.92 553.351C1076.01 543.627 1074.9 533.768 1071.69 524.586C1068.43 516.025 1062.24 508.781 1056.8 501.354C1050.18 492.304 1036.35 496.309 1035.35 507.698C1041.51 509.912 1042.23 519.376 1035.15 520.599C1036.81 541.822 1049.71 561.441 1067.65 570.922C1060.82 590.624 1058.03 611.642 1059.47 632.575C1056.51 608.098 1031.78 601.916 1014.55 592.026C1013.46 591.266 1012.17 590.86 1010.86 590.858C1009.56 590.856 1008.27 591.258 1007.18 592.014C1006.08 592.77 1005.21 593.848 1004.68 595.117C1004.15 596.385 1003.98 597.79 1004.2 599.158C1006.58 600.211 1008.85 601.513 1010.99 603.043C1011.99 603.771 1012.76 604.809 1013.18 606.015C1013.6 607.222 1013.66 608.537 1013.35 609.781C1013.04 611.025 1012.38 612.136 1011.45 612.963C1010.51 613.79 1009.36 614.292 1008.15 614.4C1016.68 637.369 1039.11 652.961 1062.3 653.108C1064.43 663.382 1067.57 673.393 1071.66 682.98L1106.07 683.327C1106.2 682.923 1106.31 682.506 1106.43 682.103C1103.24 682.283 1100.04 682.049 1096.91 681.406C1105.43 670.927 1112 665.603 1107.23 650.805L1107.22 650.805Z" fill="#F2F2F2"/>
<g filter="url(#filter0_f_9_217)">
<ellipse cx="569.781" cy="723.563" rx="478.763" ry="5.43698" fill="black"/>
</g>
<path d="M138.572 110C138.572 95.0884 150.66 83 165.572 83H972.933C987.845 83 999.933 95.0883 999.933 110V680.417C999.933 682.074 998.59 683.417 996.933 683.417H141.572C139.915 683.417 138.572 682.074 138.572 680.417V110Z" fill="#E2E8F0" stroke="#2F2E41" stroke-width="2"/>
<path d="M142.862 109.437C142.862 97.2867 152.712 87.437 164.862 87.437H973.643C985.793 87.437 995.643 97.2867 995.643 109.437V661.582H142.862V109.437Z" fill="#3F3D56"/>
<rect x="159.791" y="115.709" width="814.691" height="521.95" fill="white"/>
<path d="M36 686.417C36 685.312 36.8954 684.417 38 684.417H1100.51C1101.61 684.417 1102.51 685.312 1102.51 686.417V703.99H36V686.417Z" fill="#E2E8F0"/>
<path d="M36 686.417C36 685.312 36.8954 684.417 38 684.417H1100.51C1101.61 684.417 1102.51 685.312 1102.51 686.417V703.99H36V686.417Z" fill="url(#paint0_linear_9_217)"/>
<path d="M36 703.99H1102.51L1079.72 708.713C1053.01 714.249 1025.81 717.039 998.532 717.039H138.231C108.261 717.039 78.3867 713.671 49.1693 706.998L36 703.99Z" fill="#2F2E41"/>
<path d="M36 703.99H1102.51L1079.72 708.713C1053.01 714.249 1025.81 717.039 998.532 717.039H138.231C108.261 717.039 78.3867 713.671 49.1693 706.998L36 703.99Z" fill="url(#paint1_linear_9_217)"/>
<path fill-rule="evenodd" clip-rule="evenodd" d="M481.47 684.417C482.014 692.918 488.896 699.64 497.306 699.64H642.257C650.667 699.64 657.549 692.918 658.093 684.417H481.47Z" fill="#E2E8F0"/>
<path fill-rule="evenodd" clip-rule="evenodd" d="M481.47 684.417C482.014 692.918 488.896 699.64 497.306 699.64H642.257C650.667 699.64 657.549 692.918 658.093 684.417H481.47Z" fill="url(#paint2_linear_9_217)"/>
<path d="M904.164 183.547H235.399C234.703 183.532 234.041 183.248 233.555 182.754C233.068 182.26 232.796 181.596 232.796 180.905C232.796 180.213 233.068 179.55 233.555 179.056C234.041 178.562 234.703 178.277 235.399 178.262H904.164C904.859 178.277 905.522 178.562 906.008 179.056C906.495 179.55 906.767 180.213 906.767 180.905C906.767 181.596 906.495 182.26 906.008 182.754C905.522 183.248 904.859 183.532 904.164 183.547Z" fill="#CACACA"/>
<path d="M280.923 164.77C289.531 164.77 296.509 157.682 296.509 148.939C296.509 140.196 289.531 133.108 280.923 133.108C272.315 133.108 265.337 140.196 265.337 148.939C265.337 157.682 272.315 164.77 280.923 164.77Z" fill="#3F3D56"/>
<path d="M334.765 164.77C343.373 164.77 350.351 157.682 350.351 148.939C350.351 140.196 343.373 133.108 334.765 133.108C326.157 133.108 319.179 140.196 319.179 148.939C319.179 157.682 326.157 164.77 334.765 164.77Z" fill="#3F3D56"/>
<path d="M388.607 164.77C397.215 164.77 404.193 157.682 404.193 148.939C404.193 140.196 397.215 133.108 388.607 133.108C379.999 133.108 373.021 140.196 373.021 148.939C373.021 157.682 379.999 164.77 388.607 164.77Z" fill="#3F3D56"/>
<path d="M871.747 137.031H833.5C832.742 137.046 832.02 137.356 831.489 137.894C830.958 138.432 830.661 139.156 830.661 139.909C830.661 140.662 830.958 141.386 831.489 141.924C832.02 142.462 832.742 142.771 833.5 142.786H871.747C872.505 142.771 873.227 142.462 873.757 141.924C874.288 141.386 874.585 140.662 874.585 139.909C874.585 139.156 874.288 138.432 873.757 137.894C873.227 137.356 872.505 137.046 871.747 137.031Z" fill="#3F3D56"/>
<path d="M871.747 147.833H833.5C832.742 147.848 832.02 148.158 831.489 148.696C830.958 149.234 830.661 149.957 830.661 150.71C830.661 151.464 830.958 152.187 831.489 152.725C832.02 153.263 832.742 153.573 833.5 153.588H871.747C872.505 153.573 873.227 153.263 873.757 152.725C874.288 152.187 874.585 151.464 874.585 150.71C874.585 149.957 874.288 149.234 873.757 148.696C873.227 148.158 872.505 147.848 871.747 147.833Z" fill="#3F3D56"/>
<path d="M871.747 158.619H833.5C832.742 158.634 832.02 158.944 831.489 159.482C830.958 160.02 830.661 160.743 830.661 161.497C830.661 162.25 830.958 162.974 831.489 163.512C832.02 164.05 832.742 164.359 833.5 164.374H871.747C872.505 164.359 873.227 164.05 873.758 163.512C874.288 162.974 874.586 162.25 874.586 161.497C874.586 160.743 874.288 160.02 873.758 159.482C873.227 158.944 872.505 158.634 871.747 158.619Z" fill="#3F3D56"/>
<path d="M650.403 286.521C661.045 286.521 669.672 277.95 669.672 267.376C669.672 256.802 661.045 248.23 650.403 248.23C639.761 248.23 631.135 256.802 631.135 267.376C631.135 277.95 639.761 286.521 650.403 286.521Z" fill="#E6E7E8"/>
<path d="M812.809 309.771H636.873C636.118 309.772 635.371 309.626 634.674 309.34C633.977 309.054 633.343 308.634 632.809 308.104C632.276 307.575 631.852 306.946 631.563 306.254C631.274 305.561 631.126 304.819 631.126 304.07C631.126 303.32 631.274 302.578 631.563 301.886C631.852 301.194 632.276 300.565 632.809 300.035C633.343 299.506 633.977 299.086 634.674 298.8C635.371 298.514 636.118 298.367 636.873 298.369H812.809C813.564 298.367 814.311 298.514 815.008 298.8C815.705 299.086 816.339 299.506 816.873 300.035C817.407 300.565 817.83 301.194 818.119 301.886C818.408 302.578 818.557 303.32 818.557 304.07C818.557 304.819 818.408 305.561 818.119 306.254C817.83 306.946 817.407 307.575 816.873 308.104C816.339 308.634 815.705 309.054 815.008 309.34C814.311 309.626 813.564 309.772 812.809 309.771Z" fill="#E6E7E8"/>
<path d="M680.57 332.299H636.873C635.351 332.299 633.891 331.699 632.815 330.63C631.739 329.56 631.135 328.11 631.135 326.598C631.135 325.086 631.739 323.636 632.815 322.566C633.891 321.497 635.351 320.896 636.873 320.896H680.57C682.092 320.896 683.551 321.497 684.628 322.566C685.704 323.636 686.308 325.086 686.308 326.598C686.308 328.11 685.704 329.56 684.628 330.63C683.551 331.699 682.092 332.299 680.57 332.299Z" fill="#E6E7E8"/>
<path d="M650.403 585.356C661.045 585.356 669.672 576.785 669.672 566.211C669.672 555.637 661.045 547.065 650.403 547.065C639.761 547.065 631.135 555.637 631.135 566.211C631.135 576.785 639.761 585.356 650.403 585.356Z" fill="#E6E7E8"/>
<path d="M812.809 608.606H636.873C635.351 608.606 633.891 608.005 632.815 606.936C631.739 605.867 631.135 604.417 631.135 602.905C631.135 601.393 631.739 599.943 632.815 598.873C633.891 597.804 635.351 597.204 636.873 597.204H812.809C814.331 597.204 815.791 597.804 816.867 598.873C817.943 599.943 818.547 601.393 818.547 602.905C818.547 604.417 817.943 605.867 816.867 606.936C815.791 608.005 814.331 608.606 812.809 608.606Z" fill="#E6E7E8"/>
<path d="M680.57 631.135H636.873C635.351 631.135 633.891 630.534 632.815 629.465C631.739 628.396 631.135 626.945 631.135 625.433C631.135 623.921 631.739 622.471 632.815 621.402C633.891 620.332 635.351 619.732 636.873 619.732H680.57C682.092 619.732 683.551 620.332 684.628 621.402C685.704 622.471 686.308 623.921 686.308 625.433C686.308 626.945 685.704 628.396 684.628 629.465C683.551 630.534 682.092 631.135 680.57 631.135Z" fill="#E6E7E8"/>
<path d="M340.284 540.008C350.926 540.008 359.553 531.436 359.553 520.863C359.553 510.289 350.926 501.717 340.284 501.717C329.642 501.717 321.015 510.289 321.015 520.863C321.015 531.436 329.642 540.008 340.284 540.008Z" fill="#E6E7E8"/>
<path d="M502.69 563.258H326.754C325.232 563.258 323.772 562.657 322.696 561.588C321.62 560.519 321.016 559.069 321.016 557.556C321.016 556.044 321.62 554.594 322.696 553.525C323.772 552.456 325.232 551.855 326.754 551.855H502.69C504.212 551.855 505.672 552.456 506.748 553.525C507.824 554.594 508.428 556.044 508.428 557.556C508.428 559.069 507.824 560.519 506.748 561.588C505.672 562.657 504.212 563.258 502.69 563.258Z" fill="#E6E7E8"/>
<path d="M370.451 585.786H326.754C325.232 585.786 323.772 585.185 322.696 584.116C321.62 583.047 321.015 581.597 321.015 580.085C321.015 578.572 321.62 577.122 322.696 576.053C323.772 574.984 325.232 574.383 326.754 574.383H370.451C371.973 574.383 373.432 574.984 374.508 576.053C375.585 577.122 376.189 578.572 376.189 580.085C376.189 581.597 375.585 583.047 374.508 584.116C373.432 585.185 371.973 585.786 370.451 585.786Z" fill="#E6E7E8"/>
<path d="M650.403 424.675C661.045 424.675 669.672 416.103 669.672 405.529C669.672 394.955 661.045 386.383 650.403 386.383C639.761 386.383 631.135 394.955 631.135 405.529C631.135 416.103 639.761 424.675 650.403 424.675Z" fill="#E6E7E8"/>
<path d="M812.809 447.924H636.873C635.351 447.924 633.891 447.323 632.815 446.254C631.739 445.185 631.135 443.735 631.135 442.223C631.135 440.711 631.739 439.261 632.815 438.192C633.891 437.122 635.351 436.522 636.873 436.522H812.809C814.331 436.522 815.791 437.122 816.867 438.192C817.943 439.261 818.547 440.711 818.547 442.223C818.547 443.735 817.943 445.185 816.867 446.254C815.791 447.323 814.331 447.924 812.809 447.924Z" fill="#E6E7E8"/>
<path d="M742.594 470.453H636.873C635.351 470.453 633.891 469.852 632.815 468.783C631.739 467.714 631.135 466.264 631.135 464.752C631.135 463.239 631.739 461.789 632.815 460.72C633.891 459.651 635.351 459.05 636.873 459.05H742.594C744.116 459.05 745.575 459.651 746.651 460.72C747.728 461.789 748.332 463.239 748.332 464.752C748.332 466.264 747.728 467.714 746.651 468.783C745.575 469.852 744.116 470.453 742.594 470.453Z" fill="#E6E7E8"/>
<path d="M713.137 492.981H636.873C635.351 492.981 633.891 492.38 632.815 491.311C631.739 490.242 631.135 488.792 631.135 487.28C631.135 485.767 631.739 484.317 632.815 483.248C633.891 482.179 635.351 481.578 636.873 481.578H713.137C714.659 481.578 716.118 482.179 717.195 483.248C718.271 484.317 718.875 485.767 718.875 487.28C718.875 488.792 718.271 490.242 717.195 491.311C716.118 492.38 714.659 492.981 713.137 492.981Z" fill="#E6E7E8"/>
<path d="M474.722 281.115V482.129C474.72 483.532 474.159 484.877 473.162 485.869C472.164 486.862 470.811 487.421 469.399 487.425H362.803C351.01 476.558 341.335 463.624 334.264 449.271C333.798 448.346 333.355 447.414 332.933 446.468C326.49 432.576 322.589 417.655 321.415 402.404C321.335 401.465 321.27 400.533 321.226 399.586C321.081 397.166 321.015 394.709 321.015 392.246C320.994 375.847 324.11 359.594 330.199 344.353C330.563 343.406 330.948 342.467 331.348 341.535C339.364 322.807 351.689 306.208 367.333 293.071C368.264 292.284 369.204 291.518 370.154 290.774L370.373 290.6C382.614 280.97 397.783 275.754 413.396 275.804H469.399C470.813 275.809 472.168 276.37 473.166 277.366C474.164 278.361 474.723 279.71 474.722 281.115Z" fill="#76A890"/>
<path opacity="0.2" d="M475.005 344.353V341.535H427.466V275.804H424.638V341.535H370.154V290.774C369.202 291.518 368.261 292.284 367.333 293.072V341.535H331.348C330.948 342.467 330.563 343.406 330.199 344.353H367.333V399.586H321.226C321.27 400.533 321.335 401.465 321.415 402.404H367.333V446.468H332.933C333.355 447.414 333.798 448.346 334.264 449.271H367.333V486.312H370.154V449.271H424.638V486.312H427.466V449.271H475.005V446.468H427.466C427.465 440.681 428.611 434.95 430.84 429.604C433.068 424.257 436.334 419.399 440.453 415.307C444.571 411.215 449.46 407.97 454.841 405.756C460.222 403.542 465.989 402.403 471.813 402.404H475.005V399.586H427.466V344.353H475.005ZM424.638 446.468H370.154V402.404H424.638V446.468ZM424.638 399.586H370.154V398.481C370.155 391.372 371.565 384.333 374.303 377.766C377.041 371.199 381.054 365.231 386.114 360.205C391.173 355.179 397.179 351.192 403.789 348.472C410.399 345.752 417.483 344.352 424.638 344.353V399.586Z" fill="black"/>
<path d="M469.644 447.178C468.504 447.23 467.376 446.932 466.412 446.326C465.448 445.719 464.695 444.833 464.255 443.787C463.815 442.742 463.709 441.587 463.951 440.479C464.194 439.371 464.773 438.364 465.611 437.595C465.751 437.041 465.852 436.643 465.992 436.089C465.942 435.968 465.892 435.848 465.841 435.727C460.718 423.59 428.03 457.424 426.617 468.831C425.994 473.873 426.257 478.984 427.393 483.937C416.805 460.987 411.306 436.044 411.271 410.798C411.269 404.463 411.623 398.132 412.332 391.837C412.918 386.675 413.731 381.551 414.771 376.463C420.446 348.857 432.631 322.982 450.324 300.964C460.443 301.525 469.312 299.993 470.168 280.508C470.32 277.041 472.908 274.04 473.478 270.626C472.512 270.751 471.53 270.83 470.564 270.893C470.263 270.909 469.946 270.924 469.645 270.94L469.532 270.945C468.47 270.993 467.417 270.734 466.5 270.201C465.583 269.667 464.84 268.882 464.362 267.939C463.883 266.996 463.689 265.936 463.803 264.886C463.917 263.836 464.334 262.841 465.004 262.021C465.421 261.511 465.839 261.001 466.256 260.492C466.89 259.705 467.539 258.934 468.172 258.147C468.245 258.073 468.314 257.994 468.378 257.911C469.107 257.014 469.835 256.133 470.564 255.236C469.234 253.185 467.445 251.468 465.338 250.217C458.037 245.968 447.965 248.91 442.691 255.472C437.402 262.034 436.404 271.239 438.241 279.437C440.047 286.413 443.036 293.033 447.078 299.012C446.682 299.516 446.27 300.004 445.874 300.507C438.637 309.754 432.329 319.684 427.041 330.153C428.537 318.542 410.242 276.607 403.167 267.725C394.668 257.056 377.241 261.712 375.744 275.237C375.73 275.368 375.715 275.499 375.702 275.629C376.753 276.219 377.781 276.844 378.788 277.505C380.052 278.345 381.032 279.544 381.599 280.946C382.165 282.348 382.293 283.888 381.964 285.363C381.635 286.838 380.865 288.18 379.755 289.213C378.646 290.246 377.248 290.922 375.745 291.153L375.591 291.176C361.524 311.133 406.619 363.074 417.907 351.412C412.594 366.372 409.261 381.955 407.993 397.769C407.275 407.099 407.317 416.471 408.12 425.794L408.072 425.463C405.564 405.158 362.538 374.967 349.974 377.482C342.736 378.931 335.607 378.601 336.706 385.856C336.723 385.972 336.741 386.087 336.759 386.203C338.709 386.992 340.608 387.902 342.444 388.925C343.495 389.515 344.524 390.14 345.531 390.801C346.795 391.64 347.775 392.84 348.341 394.242C348.908 395.644 349.035 397.184 348.706 398.659C348.377 400.134 347.608 401.476 346.498 402.509C345.388 403.542 343.99 404.218 342.488 404.449L342.334 404.472C342.223 404.488 342.128 404.504 342.017 404.519C335.614 426.41 383.099 461.74 411.968 450.499H411.984C414.845 462.851 418.99 474.875 424.352 486.376H468.537C468.695 485.888 468.838 485.384 468.98 484.896C464.89 485.152 460.784 484.909 456.754 484.173C460.032 480.176 463.31 476.147 466.589 472.151C466.662 472.076 466.731 471.997 466.795 471.915C468.457 469.869 470.136 467.839 471.799 465.794L471.8 465.791C471.888 459.521 471.164 453.265 469.645 447.178L469.644 447.178ZM419.047 348.28L419.07 348.249L419.047 348.312V348.28ZM409.26 435.943L408.88 435.093C408.896 434.48 408.896 433.866 408.88 433.237C408.88 433.063 408.848 432.89 408.848 432.717C408.991 433.803 409.117 434.889 409.276 435.975L409.26 435.943Z" fill="#2F2E41"/>
<path d="M1493.58 33H1253.91C1216.64 33 1186.42 64.1327 1186.42 102.537V666.785C1186.42 705.189 1216.64 736.322 1253.91 736.322H1493.58C1530.85 736.322 1561.07 705.189 1561.07 666.785V102.537C1561.07 64.1327 1530.85 33 1493.58 33Z" fill="#3F3D56"/>
<path d="M1554.75 102.542V666.786C1554.73 683.495 1548.28 699.515 1536.81 711.331C1525.34 723.146 1509.79 729.793 1493.58 729.812H1253.92C1237.7 729.793 1222.15 723.146 1210.68 711.331C1199.21 699.515 1192.76 683.495 1192.74 666.786V102.542C1192.76 85.8318 1199.21 69.8119 1210.68 57.9963C1222.15 46.1808 1237.7 39.5342 1253.92 39.5149H1285.26V50.6686C1285.26 55.7181 1287.2 60.5606 1290.67 64.1312C1294.13 67.7017 1298.83 69.7077 1303.74 69.708H1443.76C1448.66 69.7077 1453.36 67.7017 1456.82 64.1312C1460.29 60.5606 1462.24 55.7181 1462.24 50.6686V39.5149H1493.58C1509.79 39.5342 1525.34 46.1808 1536.81 57.9963C1548.28 69.8119 1554.73 85.8318 1554.75 102.542Z" fill="white"/>
<path d="M1184.7 175.677C1183.48 175.676 1182.31 175.176 1181.45 174.289C1180.59 173.401 1180.1 172.197 1180.1 170.941V161.469C1180.1 160.213 1180.59 159.008 1181.45 158.12C1182.31 157.232 1183.48 156.733 1184.7 156.733C1185.92 156.733 1187.09 157.232 1187.95 158.12C1188.81 159.008 1189.3 160.213 1189.3 161.469V170.941C1189.29 172.197 1188.81 173.401 1187.95 174.289C1187.09 175.176 1185.92 175.676 1184.7 175.677Z" fill="#3F3D56"/>
<path d="M1184.7 224.248C1183.48 224.247 1182.31 223.748 1181.45 222.86C1180.59 221.972 1180.1 220.768 1180.1 219.512V193.438C1180.1 192.182 1180.59 190.977 1181.45 190.089C1182.31 189.201 1183.48 188.702 1184.7 188.702C1185.92 188.702 1187.09 189.201 1187.95 190.089C1188.81 190.977 1189.3 192.182 1189.3 193.438V219.512C1189.29 220.768 1188.81 221.972 1187.95 222.86C1187.09 223.748 1185.92 224.247 1184.7 224.248Z" fill="#3F3D56"/>
<path d="M1184.7 263.297C1183.48 263.295 1182.31 262.796 1181.45 261.908C1180.59 261.02 1180.1 259.816 1180.1 258.56V232.486C1180.1 231.23 1180.59 230.025 1181.45 229.137C1182.31 228.249 1183.48 227.75 1184.7 227.75C1185.92 227.75 1187.09 228.249 1187.95 229.137C1188.81 230.025 1189.3 231.23 1189.3 232.486V258.56C1189.29 259.816 1188.81 261.02 1187.95 261.908C1187.09 262.796 1185.92 263.295 1184.7 263.297Z" fill="#3F3D56"/>
<path d="M1561.64 241.984C1560.42 241.982 1559.26 241.483 1558.39 240.595C1557.53 239.707 1557.05 238.503 1557.05 237.248V173.625C1557.05 172.369 1557.53 171.164 1558.39 170.276C1559.25 169.388 1560.42 168.889 1561.64 168.889C1562.86 168.889 1564.03 169.388 1564.89 170.276C1565.76 171.164 1566.24 172.369 1566.24 173.625V237.248C1566.24 238.503 1565.75 239.707 1564.89 240.595C1564.03 241.483 1562.86 241.982 1561.64 241.984Z" fill="#3F3D56"/>
<path d="M1383.62 54.7222H1347.99C1347.23 54.7222 1346.5 54.4103 1345.96 53.8552C1345.42 53.3001 1345.12 52.5472 1345.12 51.7621C1345.12 50.977 1345.42 50.2241 1345.96 49.669C1346.5 49.1139 1347.23 48.802 1347.99 48.802H1383.62C1384.38 48.802 1385.11 49.1139 1385.65 49.669C1386.19 50.2241 1386.49 50.977 1386.49 51.7621C1386.49 52.5472 1386.19 53.3001 1385.65 53.8552C1385.11 54.4103 1384.38 54.7222 1383.62 54.7222Z" fill="white"/>
<path d="M1402.01 54.1302C1403.28 54.1302 1404.31 53.07 1404.31 51.7621C1404.31 50.4543 1403.28 49.394 1402.01 49.394C1400.74 49.394 1399.71 50.4543 1399.71 51.7621C1399.71 53.07 1400.74 54.1302 1402.01 54.1302Z" fill="white"/>
<path d="M1271.56 67.4237H1240.54C1239.01 67.4237 1237.55 66.8 1236.47 65.6897C1235.39 64.5794 1234.79 63.0736 1234.79 61.5035C1234.79 59.9333 1235.39 58.4275 1236.47 57.3172C1237.55 56.207 1239.01 55.5833 1240.54 55.5833H1271.56C1273.09 55.5833 1274.55 56.207 1275.63 57.3172C1276.7 58.4275 1277.31 59.9333 1277.31 61.5035C1277.31 63.0736 1276.7 64.5794 1275.63 65.6897C1274.55 66.8 1273.09 67.4237 1271.56 67.4237Z" fill="#E6E6E6"/>
<path d="M1474.98 66.8317C1477.83 66.8317 1480.15 64.4462 1480.15 61.5035C1480.15 58.5608 1477.83 56.1753 1474.98 56.1753C1472.12 56.1753 1469.8 58.5608 1469.8 61.5035C1469.8 64.4462 1472.12 66.8317 1474.98 66.8317Z" fill="#E6E6E6"/>
<path d="M1491.06 66.8317C1493.92 66.8317 1496.24 64.4462 1496.24 61.5035C1496.24 58.5608 1493.92 56.1753 1491.06 56.1753C1488.21 56.1753 1485.89 58.5608 1485.89 61.5035C1485.89 64.4462 1488.21 66.8317 1491.06 66.8317Z" fill="#E6E6E6"/>
<path d="M1507.15 66.8317C1510.01 66.8317 1512.33 64.4462 1512.33 61.5035C1512.33 58.5608 1510.01 56.1753 1507.15 56.1753C1504.3 56.1753 1501.98 58.5608 1501.98 61.5035C1501.98 64.4462 1504.3 66.8317 1507.15 66.8317Z" fill="#E6E6E6"/>
<path d="M1471.36 150.169H1276.34C1272.56 150.175 1268.94 151.723 1266.27 154.476C1263.6 157.228 1262.09 160.959 1262.09 164.852V295.463C1262.09 299.356 1263.6 303.087 1266.27 305.839C1268.94 308.592 1272.56 310.14 1276.34 310.146H1471.36C1475.14 310.142 1478.76 308.594 1481.43 305.842C1484.1 303.089 1485.61 299.356 1485.61 295.463V164.852C1485.61 160.959 1484.1 157.226 1481.43 154.473C1478.76 151.721 1475.14 150.173 1471.36 150.169Z" fill="#F2F2F2"/>
<path d="M1410.31 205.928C1392.68 238.033 1373.23 269.038 1352.06 298.781H1321.48C1341.51 273.637 1361.56 248.493 1381.62 223.349C1387.37 216.11 1393.62 208.525 1402.25 205.583L1410.31 205.928Z" fill="#3F3D56"/>
<path d="M1369.66 200.78C1366.47 204.204 1363.42 207.767 1360.54 211.467C1354.2 219.328 1347.96 227.257 1341.69 235.163C1337.78 240.081 1333.88 245 1330.02 249.918C1328.8 249.107 1327.63 248.201 1326.54 247.206C1320.38 241.694 1316.55 233.914 1315.89 225.532C1315.23 217.151 1317.78 208.835 1322.99 202.367C1328.21 195.899 1335.68 191.794 1343.8 190.93C1351.91 190.066 1360.04 192.513 1366.43 197.746C1367.58 198.671 1368.66 199.686 1369.66 200.78Z" fill="#76A890"/>
<path d="M1485.61 197.046V201.817L1483.54 201.036L1454.43 190.072C1444.95 186.508 1435.49 182.435 1425.7 179.865C1417.18 177.355 1408.14 177.474 1399.68 180.209C1392.15 183.081 1385.25 187.491 1379.41 193.174C1376.83 195.637 1374.32 198.159 1371.9 200.775C1371.1 201.64 1370.31 202.504 1369.53 203.369C1367.18 205.997 1364.92 208.685 1362.77 211.467C1356.44 219.329 1350.19 227.263 1343.92 235.16C1340.02 240.086 1336.11 244.999 1332.25 249.913C1319.35 266.17 1306.54 282.459 1293.79 298.779C1292.08 298.759 1290.37 298.536 1288.7 298.116C1301.7 281.48 1314.76 264.887 1327.88 248.339C1328.18 247.96 1328.48 247.581 1328.78 247.202C1330.32 245.224 1331.89 243.235 1333.45 241.258C1339.99 233.005 1346.54 224.76 1353.08 216.523C1357.84 210.532 1362.56 204.517 1367.69 198.834C1368 198.467 1368.32 198.111 1368.65 197.744C1369.15 197.2 1369.64 196.667 1370.15 196.11C1381.28 184.258 1395.18 173.779 1411.82 173.495C1421.61 173.341 1431.07 176.538 1440.17 179.913C1449.97 183.571 1459.74 187.289 1469.53 190.983L1485.61 197.046Z" fill="#3F3D56"/>
<path d="M1490.2 598.521H1257.3C1253.52 598.516 1249.9 596.968 1247.23 594.216C1244.55 591.463 1243.05 587.732 1243.05 583.839V551.5C1243.05 547.608 1244.55 543.876 1247.23 541.124C1249.9 538.372 1253.52 536.823 1257.3 536.819H1490.2C1493.97 536.823 1497.6 538.372 1500.27 541.124C1502.94 543.876 1504.44 547.608 1504.45 551.5V583.839C1504.44 587.732 1502.94 591.463 1500.27 594.216C1497.6 596.968 1493.97 598.516 1490.2 598.521Z" fill="#F2F2F2"/>
<path d="M1490.2 432.755H1257.3C1253.52 432.75 1249.9 431.202 1247.23 428.45C1244.55 425.697 1243.05 421.966 1243.05 418.073V385.734C1243.05 381.842 1244.55 378.11 1247.23 375.358C1249.9 372.605 1253.52 371.057 1257.3 371.053H1490.2C1493.97 371.057 1497.6 372.605 1500.27 375.358C1502.94 378.11 1504.44 381.842 1504.45 385.734V418.073C1504.44 421.966 1502.94 425.697 1500.27 428.45C1497.6 431.202 1493.97 432.75 1490.2 432.755Z" fill="#F2F2F2"/>
<path d="M1490.2 515.638H1257.3C1253.52 515.633 1249.9 514.085 1247.23 511.333C1244.55 508.581 1243.05 504.849 1243.05 500.957V468.617C1243.05 464.725 1244.55 460.993 1247.23 458.241C1249.9 455.489 1253.52 453.94 1257.3 453.936H1490.2C1493.97 453.94 1497.6 455.489 1500.27 458.241C1502.94 460.993 1504.44 464.725 1504.45 468.617V500.957C1504.44 504.849 1502.94 508.581 1500.27 511.333C1497.6 514.085 1493.97 515.633 1490.2 515.638Z" fill="#F2F2F2"/>
<path d="M1402.04 562.135H1333.42C1332.61 562.135 1331.82 561.802 1331.25 561.209C1330.67 560.616 1330.35 559.811 1330.35 558.972C1330.35 558.134 1330.67 557.329 1331.25 556.736C1331.82 556.143 1332.61 555.81 1333.42 555.81H1402.04C1402.86 555.81 1403.64 556.143 1404.21 556.736C1404.79 557.329 1405.11 558.134 1405.11 558.972C1405.11 559.811 1404.79 560.616 1404.21 561.209C1403.64 561.802 1402.86 562.135 1402.04 562.135Z" fill="white"/>
<path d="M1468.04 579.53H1332.65C1331.84 579.53 1331.06 579.197 1330.48 578.604C1329.91 578.011 1329.58 577.206 1329.58 576.368C1329.58 575.529 1329.91 574.724 1330.48 574.131C1331.06 573.538 1331.84 573.205 1332.65 573.205H1468.04C1468.86 573.205 1469.64 573.538 1470.21 574.131C1470.79 574.724 1471.11 575.529 1471.11 576.368C1471.11 577.206 1470.79 578.011 1470.21 578.604C1469.64 579.197 1468.86 579.53 1468.04 579.53Z" fill="white"/>
<path d="M1296.96 588.876C1308.33 588.876 1317.55 579.381 1317.55 567.67C1317.55 555.958 1308.33 546.464 1296.96 546.464C1285.6 546.464 1276.38 555.958 1276.38 567.67C1276.38 579.381 1285.6 588.876 1296.96 588.876Z" fill="white"/>
<path d="M1292.38 596.314C1290.28 595.302 1287.88 595.175 1285.69 595.96C1283.5 596.744 1281.69 598.378 1280.65 600.513C1280.45 600.951 1280.28 601.405 1280.15 601.871L1249.15 603.78L1244.56 620.324L1286.74 612.98C1288.66 613.393 1290.66 613.14 1292.42 612.261C1294.19 611.381 1295.62 609.924 1296.5 608.118C1296.99 607.085 1297.27 605.963 1297.34 604.816C1297.41 603.669 1297.26 602.52 1296.89 601.433C1296.53 600.346 1295.96 599.344 1295.23 598.483C1294.49 597.622 1293.59 596.92 1292.59 596.416C1292.52 596.381 1292.45 596.347 1292.38 596.314Z" fill="#FFB6B6"/>
<path d="M1223.97 514.71C1221.92 513.849 1219.72 513.451 1217.52 513.543C1215.31 513.636 1213.16 514.217 1211.19 515.246C1209.22 516.275 1207.49 517.729 1206.12 519.508C1204.74 521.288 1203.76 523.351 1203.23 525.558L1194.71 561.012L1196.31 623.037C1196.31 623.037 1240.79 631.83 1248.25 626.178C1255.72 620.525 1255.02 616.318 1255.72 620.525C1256.42 624.733 1259.63 626.499 1259.67 624.825C1259.71 623.151 1260.08 623.437 1261.94 622.933C1263.8 622.429 1272.01 619.31 1272.01 619.31L1272.38 601.626C1272.38 601.626 1258.8 596.323 1255.51 597.905C1252.21 599.488 1256.21 602.113 1252.21 599.488C1248.22 596.862 1247.78 588.576 1247.1 596.044C1246.42 603.512 1244.42 604.902 1241.42 601.581C1238.43 598.261 1224.55 600.382 1224.55 600.382L1233.38 531.435C1233.83 527.967 1233.14 524.446 1231.44 521.42C1229.74 518.394 1227.11 516.034 1223.97 514.71Z" fill="#76A890"/>
<path d="M1523.49 698.643L1523.96 685.583L1475.29 677.509L1474.6 696.784L1523.49 698.643Z" fill="#FFB6B6"/>
<path d="M1514.66 702.575L1514.19 681.664L1522.87 681.994L1536.88 662.663C1537.57 661.708 1538.54 661.006 1539.65 660.659C1540.75 660.312 1541.94 660.339 1543.03 660.735C1544.12 661.131 1545.06 661.877 1545.71 662.862C1546.36 663.847 1546.69 665.02 1546.65 666.211L1545.76 691.052L1537.02 695.007L1545.54 697.005L1545.21 706.371L1514.66 702.575Z" fill="#2F2E41"/>
<path d="M1249.56 728.593L1403.72 710.123C1403.72 710.123 1470.3 714.085 1485.91 703.616L1502.39 701.474L1503.28 676.547C1503.28 676.547 1493.21 676.623 1487.42 673.843C1481.62 671.063 1485.65 667.662 1480.13 671.007C1474.61 674.351 1475.19 674.753 1470.92 673.216C1466.65 671.679 1270.9 663.435 1270.9 663.435L1249.56 728.593Z" fill="#2F2E41"/>
<path d="M1452.71 717.776L1461.67 708.529L1431.32 668.504L1418.09 682.152L1452.71 717.776Z" fill="#FFB6B6"/>
<path d="M1443.63 714.468L1457.1 698.815L1463.24 705.137L1486.27 700.78C1487.41 700.565 1488.58 700.73 1489.62 701.251C1490.66 701.772 1491.52 702.622 1492.05 703.677C1492.59 704.732 1492.79 705.936 1492.61 707.114C1492.44 708.292 1491.91 709.382 1491.09 710.225L1474.04 727.812L1465.02 724.591L1469.95 732.027L1463.52 738.659L1443.63 714.468Z" fill="#2F2E41"/>
<path d="M1188.74 641.607L1190.28 678.312C1192.08 721.522 1238.27 747.674 1274.08 725.113C1274.74 724.697 1275.4 724.266 1276.07 723.821C1276.07 723.821 1289.65 720.064 1289.23 714.115C1288.82 708.166 1292.14 705.27 1295.07 706.893C1298.01 708.515 1336.44 652.32 1336.44 652.32C1336.44 652.32 1416.29 693.357 1433.91 703.018L1452.49 697.8C1452.49 697.8 1459.49 701.204 1456.97 696.281C1454.45 691.358 1454 693.715 1453.22 688.352C1452.45 682.988 1450.47 676.337 1449.27 676.617C1448.07 676.897 1350.48 606.528 1350.48 606.528C1350.48 606.528 1334.59 589.951 1314.87 600.896C1314.46 602.504 1314.81 602.56 1314.81 602.56L1249.66 657.249L1240.46 639.239L1188.74 641.607Z" fill="#2F2E41"/>
<path d="M1232.53 506.741L1204.6 493.254L1196.24 508.245C1196.24 508.245 1173.78 541.264 1173.45 565.085C1173.13 588.905 1177.11 595.989 1177.11 595.989C1177.11 595.989 1167.43 603.448 1172.27 608.007C1177.11 612.566 1187.83 614.533 1179.6 616.509C1171.37 618.486 1173.45 638.495 1182.65 642.047C1191.84 645.6 1241.21 645.568 1241.21 645.568C1240.77 644.017 1240.74 642.372 1241.12 640.803C1241.5 639.234 1242.28 637.799 1243.39 636.647C1247.21 632.694 1250.66 635.531 1247.21 629.376C1243.77 623.222 1238.02 626.774 1242.62 618.486C1247.21 610.198 1247.21 607.721 1247.21 607.721C1247.21 607.721 1256.58 589.346 1242.47 569.411C1241.61 568.196 1242.33 568.149 1242.33 568.149L1230.93 528.797L1232.53 506.741Z" fill="#76A890"/>
<path d="M1676.37 432.755H1443.47C1439.69 432.75 1436.07 431.202 1433.4 428.45C1430.73 425.697 1429.23 421.966 1429.22 418.073V385.734C1429.23 381.842 1430.73 378.11 1433.4 375.358C1436.07 372.605 1439.69 371.057 1443.47 371.053H1676.37C1680.15 371.057 1683.77 372.605 1686.44 375.358C1689.11 378.11 1690.61 381.842 1690.62 385.734V418.073C1690.61 421.966 1689.11 425.697 1686.44 428.45C1683.77 431.202 1680.15 432.75 1676.37 432.755Z" fill="#E6E6E6"/>
<path d="M1588.21 396.369H1519.59C1518.78 396.369 1518 396.036 1517.42 395.443C1516.85 394.85 1516.52 394.045 1516.52 393.206C1516.52 392.367 1516.85 391.563 1517.42 390.97C1518 390.377 1518.78 390.043 1519.59 390.043H1588.21C1589.03 390.043 1589.81 390.377 1590.39 390.97C1590.96 391.563 1591.28 392.367 1591.28 393.206C1591.28 394.045 1590.96 394.85 1590.39 395.443C1589.81 396.036 1589.03 396.369 1588.21 396.369Z" fill="white"/>
<path d="M1654.21 413.764H1518.83C1518.01 413.764 1517.23 413.431 1516.65 412.838C1516.08 412.245 1515.76 411.44 1515.76 410.602C1515.76 409.763 1516.08 408.958 1516.65 408.365C1517.23 407.772 1518.01 407.439 1518.83 407.439H1654.21C1655.03 407.439 1655.81 407.772 1656.39 408.365C1656.96 408.958 1657.28 409.763 1657.28 410.602C1657.28 411.44 1656.96 412.245 1656.39 412.838C1655.81 413.431 1655.03 413.764 1654.21 413.764Z" fill="white"/>
<path d="M1483.14 423.109C1494.5 423.109 1503.72 413.615 1503.72 401.904C1503.72 390.192 1494.5 380.698 1483.14 380.698C1471.77 380.698 1462.55 390.192 1462.55 401.904C1462.55 413.615 1471.77 423.109 1483.14 423.109Z" fill="white"/>
<path d="M1601.67 515.638H1368.77C1364.99 515.633 1361.37 514.085 1358.7 511.333C1356.03 508.581 1354.53 504.849 1354.52 500.957V468.617C1354.53 464.725 1356.03 460.993 1358.7 458.241C1361.37 455.489 1364.99 453.94 1368.77 453.936H1601.67C1605.45 453.94 1609.07 455.489 1611.74 458.241C1614.41 460.993 1615.92 464.725 1615.92 468.617V500.957C1615.92 504.849 1614.41 508.581 1611.74 511.333C1609.07 514.085 1605.45 515.633 1601.67 515.638Z" fill="#E6E6E6"/>
<path d="M1513.52 479.252H1444.89C1444.08 479.252 1443.3 478.919 1442.72 478.326C1442.15 477.732 1441.82 476.928 1441.82 476.089C1441.82 475.25 1442.15 474.446 1442.72 473.853C1443.3 473.26 1444.08 472.926 1444.89 472.926H1513.52C1514.33 472.926 1515.11 473.26 1515.69 473.853C1516.26 474.446 1516.59 475.25 1516.59 476.089C1516.59 476.928 1516.26 477.732 1515.69 478.326C1515.11 478.919 1514.33 479.252 1513.52 479.252Z" fill="white"/>
<path d="M1579.52 496.647H1444.13C1443.31 496.647 1442.53 496.314 1441.96 495.721C1441.38 495.128 1441.06 494.323 1441.06 493.485C1441.06 492.646 1441.38 491.841 1441.96 491.248C1442.53 490.655 1443.31 490.322 1444.13 490.322H1579.52C1580.33 490.322 1581.11 490.655 1581.69 491.248C1582.26 491.841 1582.59 492.646 1582.59 493.485C1582.59 494.323 1582.26 495.128 1581.69 495.721C1581.11 496.314 1580.33 496.647 1579.52 496.647Z" fill="white"/>
<path d="M1408.44 505.992C1419.8 505.992 1429.02 496.498 1429.02 484.787C1429.02 473.075 1419.8 463.581 1408.44 463.581C1397.07 463.581 1387.86 473.075 1387.86 484.787C1387.86 496.498 1397.07 505.992 1408.44 505.992Z" fill="white"/>
<path d="M1262.27 472.445C1264.59 452.459 1251.1 434.358 1232.12 432.015C1213.15 429.673 1195.88 443.976 1193.55 463.962C1191.23 483.949 1204.73 502.05 1223.7 504.392C1242.68 506.734 1259.95 492.431 1262.27 472.445Z" fill="#FFB6B6"/>
<path d="M1137.8 441.16C1144.45 434.864 1148.31 425.897 1153.91 418.505C1159.5 411.113 1168.46 404.985 1176.83 407.898C1182.59 409.907 1186.54 415.851 1188.16 422.134C1189.78 428.417 1189.44 435.084 1189.09 441.613C1190.5 428.281 1200.51 416.424 1212.74 413.623C1224.96 410.822 1238.44 417.294 1244.57 428.9C1248.14 426.226 1252.54 424.996 1256.94 425.442C1261.33 425.888 1265.42 427.981 1268.41 431.322C1274.3 438.206 1274.42 449.94 1268.67 457.084C1262.92 464.228 1252.08 465.817 1244.88 460.571L1241.86 462.817C1242.75 468.531 1239.01 474.69 1233.77 476.152C1229.53 477.339 1223.84 476.352 1221.81 480.546C1220.39 483.477 1222 486.99 1223.83 489.603C1225.66 492.216 1227.88 494.954 1227.76 498.241C1227.57 503.2 1222.24 506.033 1217.64 506.517C1206.55 507.683 1195.17 501.051 1190.08 490.463C1189.98 490.258 1189.88 490.053 1189.76 489.845C1186.8 484.813 1184.87 479.212 1184.08 473.385C1183.3 467.557 1183.67 461.626 1185.19 455.954C1185.8 453.728 1185.65 451.996 1184.19 451.271C1177.9 448.137 1158.94 450.743 1152.86 454.463C1146.78 458.182 1141.64 463.464 1135.74 467.494C1129.83 471.523 1122.58 474.299 1115.92 472.181C1110.58 470.484 1106.42 465.834 1103.87 460.529C1101.32 455.225 1100.19 449.269 1099.25 443.372C1110.47 452.036 1127.32 451.069 1137.8 441.16Z" fill="#2F2E41"/>
<path d="M1267.66 616.651L1323.42 601.282L1328.33 600.083L1331.83 599.226L1335.91 598.232L1335.94 598.225C1336.53 598.085 1337.15 598.192 1337.67 598.521L1358.37 624.094C1358.56 624.213 1358.73 624.366 1358.86 624.545C1358.92 624.591 1358.97 624.645 1359.01 624.704C1359.24 625.026 1359.39 625.401 1359.44 625.797C1359.5 626.192 1359.46 626.595 1359.32 626.97C1359.19 627.346 1358.97 627.682 1358.69 627.95C1358.4 628.218 1358.05 628.408 1357.68 628.505L1274.5 648.226C1274.07 648.326 1273.62 648.299 1273.21 648.147C1272.79 647.996 1272.42 647.726 1272.15 647.369L1271.3 646.242L1266.7 623.407L1266.37 620.442C1266.17 620.167 1266.02 619.849 1265.94 619.509C1265.81 618.895 1265.91 618.252 1266.24 617.717C1266.56 617.182 1267.07 616.799 1267.66 616.651Z" fill="#E6E6E6"/>
<path opacity="0.17" d="M1271.3 646.24L1272.15 647.37C1272.43 647.727 1272.79 647.996 1273.21 648.147C1273.62 648.299 1274.07 648.327 1274.5 648.227L1357.68 628.506C1358.05 628.409 1358.4 628.219 1358.69 627.952C1358.97 627.684 1359.19 627.348 1359.33 626.972C1359.46 626.597 1359.5 626.194 1359.44 625.799C1359.38 625.404 1359.24 625.029 1359.01 624.708C1358.97 624.647 1358.92 624.593 1358.86 624.548L1271.3 646.24Z" fill="black"/>
<path d="M1335.49 598.065L1333.99 488.82C1333.92 488.162 1334.12 487.506 1334.52 486.994L1345.18 464.141L1346.29 462.755C1346.7 462.248 1347.29 461.928 1347.93 461.862L1350.25 461.64C1350.89 461.575 1351.52 461.774 1352.02 462.194C1352.52 462.614 1352.83 463.22 1352.89 463.878L1354.98 579.469L1354.98 579.477L1356.02 590.607L1357.24 603.823L1357.25 603.84L1359.16 624.402C1359.2 624.754 1359.16 625.109 1359.05 625.444C1358.94 625.779 1358.76 626.085 1358.52 626.341C1358.29 626.6 1358.01 626.806 1357.7 626.945C1357.38 627.083 1357.04 627.151 1356.7 627.144L1355.19 627.113C1354.61 627.097 1354.06 626.872 1353.63 626.476L1352.78 625.694L1352.39 625.327L1336.29 599.689C1335.84 599.272 1335.55 598.692 1335.49 598.065Z" fill="#E6E6E6"/>
<path opacity="0.17" d="M1345.19 464.14L1352.39 625.331L1352.78 625.694L1353.62 626.473C1354.06 626.87 1354.61 627.096 1355.19 627.11L1356.7 627.142C1357.04 627.148 1357.38 627.079 1357.7 626.941C1358.01 626.802 1358.3 626.597 1358.53 626.339C1358.76 626.08 1358.94 625.774 1359.05 625.44C1359.16 625.106 1359.2 624.753 1359.16 624.402L1352.89 463.881C1352.83 463.223 1352.52 462.616 1352.02 462.195C1351.52 461.774 1350.89 461.572 1350.25 461.635L1347.92 461.865C1347.61 461.894 1347.3 461.989 1347.02 462.142C1346.74 462.295 1346.49 462.505 1346.29 462.758L1345.19 464.14Z" fill="black"/>
<path d="M1345.79 470.654L1336.04 495.442L1337.25 569.595L1347.8 585.318L1345.79 470.654Z" fill="#76A890"/>
<path d="M1274.09 615.996C1273.56 616.153 1273.11 616.522 1272.84 617.021C1272.57 617.52 1272.5 618.109 1272.65 618.659L1276.95 637.096L1280.97 635.916L1276.67 617.479C1276.52 616.929 1276.17 616.464 1275.68 616.186C1275.2 615.908 1274.62 615.84 1274.09 615.996Z" fill="#2F2E41"/>
<path d="M1282.14 613.636C1281.6 613.792 1281.15 614.161 1280.88 614.66C1280.61 615.16 1280.55 615.749 1280.7 616.298L1281.61 619.615L1285.64 618.434L1284.72 615.118C1284.57 614.569 1284.21 614.104 1283.73 613.826C1283.24 613.548 1282.67 613.479 1282.14 613.636Z" fill="#2F2E41"/>
<path d="M1290.18 611.275C1289.65 611.432 1289.2 611.8 1288.93 612.3C1288.66 612.799 1288.59 613.388 1288.74 613.938L1289.66 617.254L1293.68 616.074L1292.77 612.758C1292.62 612.208 1292.26 611.743 1291.77 611.465C1291.29 611.187 1290.72 611.119 1290.18 611.275Z" fill="#2F2E41"/>
<path d="M1298.23 608.914C1297.7 609.071 1297.25 609.44 1296.98 609.939C1296.71 610.438 1296.64 611.028 1296.79 611.577L1297.71 614.893L1301.73 613.713L1300.81 610.397C1300.66 609.847 1300.31 609.382 1299.82 609.104C1299.34 608.827 1298.76 608.758 1298.23 608.914Z" fill="#2F2E41"/>
<path d="M1306.28 606.554C1305.74 606.71 1305.29 607.079 1305.02 607.578C1304.75 608.078 1304.69 608.667 1304.84 609.216L1305.75 612.533L1309.78 611.352L1308.86 608.036C1308.71 607.487 1308.35 607.022 1307.87 606.744C1307.38 606.466 1306.81 606.397 1306.28 606.554Z" fill="#2F2E41"/>
<path d="M1314.32 604.193C1313.79 604.35 1313.34 604.719 1313.07 605.218C1312.8 605.717 1312.73 606.306 1312.88 606.856L1313.8 610.172L1317.82 608.992L1316.91 605.676C1316.76 605.126 1316.4 604.661 1315.91 604.383C1315.43 604.105 1314.86 604.037 1314.32 604.193Z" fill="#2F2E41"/>
<path d="M1322.37 601.832C1321.84 601.989 1321.39 602.358 1321.12 602.857C1320.85 603.356 1320.78 603.946 1320.93 604.495L1321.85 607.811L1325.87 606.631L1324.95 603.315C1324.8 602.765 1324.44 602.3 1323.96 602.022C1323.48 601.744 1322.9 601.676 1322.37 601.832Z" fill="#2F2E41"/>
<path d="M1330.42 599.472C1329.88 599.629 1329.43 599.997 1329.16 600.496C1328.89 600.996 1328.83 601.585 1328.98 602.135L1329.89 605.451L1333.92 604.27L1333 600.954C1332.85 600.405 1332.49 599.94 1332.01 599.662C1331.52 599.384 1330.95 599.316 1330.42 599.472Z" fill="#2F2E41"/>
<path d="M1283.83 621.196C1283.29 621.353 1282.84 621.721 1282.57 622.221C1282.3 622.72 1282.24 623.309 1282.39 623.859L1283.3 627.175L1287.33 625.995L1286.41 622.679C1286.26 622.129 1285.9 621.664 1285.42 621.386C1284.93 621.108 1284.36 621.04 1283.83 621.196Z" fill="#2F2E41"/>
<path d="M1291.87 618.835C1291.34 618.992 1290.89 619.361 1290.62 619.86C1290.35 620.359 1290.28 620.948 1290.43 621.498L1291.35 624.814L1295.37 623.634L1294.46 620.318C1294.3 619.768 1293.95 619.303 1293.46 619.025C1292.98 618.747 1292.41 618.679 1291.87 618.835Z" fill="#2F2E41"/>
<path d="M1299.92 616.475C1299.39 616.631 1298.93 617 1298.66 617.499C1298.39 617.999 1298.33 618.588 1298.48 619.138L1299.4 622.454L1303.42 621.273L1302.5 617.957C1302.35 617.408 1301.99 616.943 1301.51 616.665C1301.02 616.387 1300.45 616.318 1299.92 616.475Z" fill="#2F2E41"/>
<path d="M1307.97 614.114C1307.43 614.271 1306.98 614.639 1306.71 615.139C1306.44 615.638 1306.38 616.227 1306.53 616.777L1307.44 620.093L1311.47 618.913L1310.55 615.597C1310.4 615.047 1310.04 614.582 1309.56 614.304C1309.07 614.026 1308.5 613.958 1307.97 614.114Z" fill="#2F2E41"/>
<path d="M1316.01 611.754C1315.48 611.91 1315.03 612.279 1314.76 612.778C1314.49 613.277 1314.42 613.867 1314.57 614.416L1315.49 617.733L1319.51 616.552L1318.6 613.236C1318.44 612.687 1318.09 612.222 1317.6 611.944C1317.12 611.666 1316.55 611.597 1316.01 611.754Z" fill="#2F2E41"/>
<path d="M1324.06 609.393C1323.53 609.549 1323.07 609.918 1322.8 610.417C1322.53 610.917 1322.47 611.506 1322.62 612.056L1323.54 615.372L1327.56 614.191L1326.64 610.875C1326.49 610.326 1326.13 609.861 1325.65 609.583C1325.16 609.305 1324.59 609.236 1324.06 609.393Z" fill="#2F2E41"/>
<path d="M1332.11 607.032C1331.57 607.189 1331.12 607.558 1330.85 608.057C1330.58 608.556 1330.52 609.146 1330.67 609.695L1331.58 613.011L1335.61 611.831L1334.69 608.515C1334.54 607.965 1334.18 607.5 1333.7 607.222C1333.21 606.944 1332.64 606.876 1332.11 607.032Z" fill="#2F2E41"/>
<path d="M1285.51 628.757C1284.98 628.913 1284.53 629.282 1284.26 629.781C1283.99 630.28 1283.92 630.87 1284.08 631.419L1284.99 634.736L1289.02 633.555L1288.1 630.239C1287.95 629.689 1287.59 629.225 1287.1 628.947C1286.62 628.669 1286.05 628.6 1285.51 628.757Z" fill="#2F2E41"/>
<path d="M1293.56 626.396C1293.03 626.553 1292.58 626.921 1292.31 627.42C1292.04 627.92 1291.97 628.509 1292.12 629.059L1293.04 632.375L1297.06 631.195L1296.15 627.878C1295.99 627.329 1295.64 626.864 1295.15 626.586C1294.67 626.308 1294.09 626.24 1293.56 626.396Z" fill="#2F2E41"/>
<path d="M1301.61 624.035C1301.07 624.192 1300.62 624.56 1300.35 625.06C1300.08 625.559 1300.02 626.148 1300.17 626.698L1301.09 630.014L1305.11 628.834L1304.19 625.518C1304.04 624.968 1303.68 624.503 1303.2 624.225C1302.71 623.947 1302.14 623.879 1301.61 624.035Z" fill="#2F2E41"/>
<path d="M1309.65 621.675C1309.12 621.831 1308.67 622.2 1308.4 622.699C1308.13 623.198 1308.06 623.788 1308.22 624.337L1309.13 627.653L1313.16 626.473L1312.24 623.157C1312.09 622.607 1311.73 622.142 1311.24 621.865C1310.76 621.587 1310.19 621.518 1309.65 621.675Z" fill="#2F2E41"/>
<path d="M1317.7 619.314C1317.17 619.471 1316.72 619.839 1316.45 620.338C1316.18 620.838 1316.11 621.427 1316.26 621.977L1317.18 625.293L1321.2 624.113L1320.29 620.796C1320.13 620.247 1319.78 619.782 1319.29 619.504C1318.81 619.226 1318.23 619.158 1317.7 619.314Z" fill="#2F2E41"/>
<path d="M1325.75 616.953C1325.21 617.11 1324.76 617.479 1324.49 617.978C1324.22 618.477 1324.16 619.066 1324.31 619.616L1325.23 622.932L1329.25 621.752L1328.33 618.436C1328.18 617.886 1327.82 617.421 1327.34 617.143C1326.85 616.865 1326.28 616.797 1325.75 616.953Z" fill="#2F2E41"/>
<path d="M1333.79 614.593C1333.26 614.749 1332.81 615.118 1332.54 615.617C1332.27 616.117 1332.2 616.706 1332.36 617.256L1333.27 620.572L1337.3 619.391L1336.38 616.075C1336.23 615.526 1335.87 615.061 1335.38 614.783C1334.9 614.505 1334.33 614.436 1333.79 614.593Z" fill="#2F2E41"/>
<path d="M1293.67 613.604C1291.57 612.592 1289.17 612.465 1286.98 613.25C1284.79 614.034 1282.99 615.668 1281.95 617.803C1281.74 618.241 1281.58 618.695 1281.44 619.161L1250.45 621.07L1245.86 637.614L1288.04 630.27C1289.96 630.683 1291.96 630.43 1293.72 629.551C1295.48 628.671 1296.92 627.215 1297.79 625.408C1298.78 623.322 1298.92 620.918 1298.19 618.723C1297.46 616.528 1295.91 614.724 1293.88 613.706C1293.81 613.671 1293.74 613.637 1293.67 613.604Z" fill="#FFB6B6"/>
<path d="M1225.26 532C1223.22 531.139 1221.02 530.741 1218.82 530.833C1216.61 530.926 1214.45 531.507 1212.48 532.536C1210.52 533.565 1208.79 535.019 1207.41 536.799C1206.04 538.578 1205.05 540.641 1204.52 542.848L1196 578.302L1197.61 640.327C1197.61 640.327 1242.08 649.12 1249.55 643.468C1257.02 637.815 1256.32 633.608 1257.02 637.815C1257.72 642.023 1260.92 643.789 1260.97 642.115C1261.01 640.441 1261.37 640.727 1263.23 640.223C1265.1 639.719 1273.31 636.6 1273.31 636.6L1273.68 618.916C1273.68 618.916 1260.1 613.613 1256.81 615.195C1253.51 616.778 1257.51 619.403 1253.51 616.778C1249.52 614.152 1249.08 605.866 1248.4 613.334C1247.71 620.802 1245.71 622.192 1242.72 618.872C1239.72 615.551 1225.85 617.672 1225.85 617.672L1234.68 548.725C1235.12 545.257 1234.44 541.736 1232.74 538.71C1231.03 535.684 1228.4 533.324 1225.26 532Z" fill="#76A890"/>
<path d="M1610.07 341.089C1610.91 341.121 1611.73 340.886 1612.44 340.416C1613.15 339.946 1613.69 339.264 1614.01 338.463C1614.33 337.662 1614.4 336.779 1614.21 335.936C1614.02 335.092 1613.59 334.328 1612.97 333.747C1612.86 333.325 1612.78 333.022 1612.68 332.6C1613.46 330.491 1614.84 328.671 1616.63 327.373C1618.42 326.076 1620.55 325.36 1622.74 325.317C1624.94 325.274 1627.09 325.906 1628.93 327.133C1630.77 328.36 1632.21 330.125 1633.07 332.201C1638.04 343.859 1644.43 355.916 1641.42 368.839C1661.64 323.576 1654.11 267.594 1623.25 229.358C1614.78 224.657 1607.87 216.224 1606 206.371C1610.19 207.787 1615.35 204.239 1612.18 199.742C1610.8 198.025 1609.41 196.322 1608.04 194.605C1623.72 177.06 1642.86 204.204 1625.63 227.846C1631.41 235.161 1636.42 243.078 1640.6 251.468C1639.57 242.526 1640.62 233.459 1643.65 225.015C1646.73 217.142 1652.59 210.48 1657.73 203.65C1663.99 195.327 1677.05 199.01 1678 209.484C1672.18 211.52 1671.5 220.224 1678.19 221.349C1676.62 240.866 1664.42 258.908 1647.47 267.627C1653.93 285.746 1656.56 305.074 1655.2 324.325C1658 301.815 1681.37 296.13 1697.66 287.034C1698.69 286.336 1699.9 285.963 1701.14 285.961C1702.38 285.959 1703.59 286.328 1704.63 287.023C1705.67 287.719 1706.48 288.71 1706.98 289.877C1707.48 291.044 1707.64 292.335 1707.44 293.594C1705.19 294.562 1703.04 295.759 1701.02 297.166C1700.07 297.836 1699.35 298.79 1698.95 299.9C1698.55 301.009 1698.49 302.219 1698.79 303.363C1699.08 304.507 1699.71 305.529 1700.59 306.289C1701.47 307.05 1702.56 307.511 1703.7 307.611C1695.65 328.733 1674.44 343.072 1652.53 343.208C1650.51 352.656 1647.55 361.862 1643.68 370.678L1611.16 370.998C1611.04 370.626 1610.93 370.243 1610.82 369.872C1613.83 370.037 1616.85 369.822 1619.82 369.231C1611.76 359.594 1605.56 354.698 1610.07 341.09L1610.07 341.089Z" fill="#F2F2F2"/>
<path d="M1671.26 705.949C1670.41 705.989 1669.57 705.759 1668.85 705.29C1668.13 704.821 1667.57 704.135 1667.24 703.326C1666.91 702.517 1666.83 701.623 1667.01 700.766C1667.2 699.908 1667.63 699.129 1668.25 698.534C1668.36 698.105 1668.43 697.797 1668.54 697.368C1668.5 697.275 1668.46 697.182 1668.42 697.089C1667.57 695.003 1666.13 693.226 1664.3 691.979C1662.46 690.731 1660.31 690.071 1658.11 690.079C1655.92 690.087 1653.77 690.765 1651.95 692.026C1650.12 693.287 1648.7 695.076 1647.86 697.167C1644.49 705.516 1640.21 713.878 1639.15 722.705C1638.69 726.606 1638.88 730.561 1639.73 734.394C1631.83 716.635 1627.73 697.334 1627.7 677.798C1627.7 672.896 1627.96 667.997 1628.49 663.125C1628.93 659.131 1629.54 655.166 1630.31 651.229C1634.55 629.867 1643.64 609.845 1656.85 592.806C1663.24 589.214 1668.4 583.689 1671.65 576.977C1672.83 574.564 1673.66 571.988 1674.12 569.33C1673.4 569.428 1672.67 569.488 1671.95 569.537C1671.72 569.549 1671.49 569.561 1671.26 569.574L1671.18 569.578C1670.39 569.614 1669.6 569.414 1668.92 569.001C1668.23 568.589 1667.68 567.981 1667.32 567.251C1666.96 566.521 1666.82 565.701 1666.9 564.889C1666.99 564.076 1667.3 563.306 1667.8 562.672C1668.11 562.277 1668.42 561.883 1668.73 561.488C1669.21 560.88 1669.69 560.283 1670.16 559.674C1670.22 559.616 1670.27 559.555 1670.32 559.491C1670.86 558.797 1671.41 558.116 1671.95 557.421C1670.96 555.835 1669.62 554.505 1668.05 553.537C1662.6 550.25 1655.08 552.527 1651.15 557.604C1647.2 562.682 1646.46 569.805 1647.83 576.149C1649.18 581.547 1651.41 586.669 1654.42 591.296C1654.13 591.686 1653.82 592.064 1653.52 592.453C1648.12 599.609 1643.42 607.292 1639.47 615.394C1640.43 606.318 1639.28 597.136 1636.13 588.605C1632.93 580.655 1626.93 573.959 1621.65 567.086C1615.31 558.83 1602.31 562.433 1601.19 572.898C1601.18 573 1601.17 573.101 1601.16 573.202C1601.94 573.658 1602.71 574.142 1603.46 574.654C1604.4 575.303 1605.13 576.231 1605.56 577.316C1605.98 578.401 1606.08 579.593 1605.83 580.734C1605.58 581.876 1605.01 582.914 1604.18 583.714C1603.35 584.513 1602.31 585.036 1601.19 585.214L1601.07 585.233C1601.35 588.145 1601.85 591.031 1602.55 593.866C1604.59 601.78 1608.2 609.175 1613.14 615.586C1618.08 621.998 1624.26 627.288 1631.28 631.126C1631.74 631.369 1632.19 631.613 1632.65 631.844C1628.69 643.42 1626.2 655.479 1625.25 667.716C1624.72 674.935 1624.75 682.188 1625.35 689.402L1625.31 689.146C1623.8 681.124 1619.65 673.886 1613.55 668.653C1604.51 660.994 1591.72 658.174 1581.96 652.018C1580.92 651.331 1579.71 650.965 1578.48 650.962C1577.25 650.959 1576.04 651.319 1575 652C1573.96 652.681 1573.13 653.655 1572.61 654.806C1572.09 655.957 1571.89 657.238 1572.06 658.497C1572.07 658.587 1572.08 658.676 1572.1 658.766C1573.55 659.377 1574.97 660.08 1576.34 660.872C1577.12 661.328 1577.89 661.812 1578.64 662.324C1579.59 662.973 1580.32 663.902 1580.74 664.987C1581.16 666.072 1581.26 667.263 1581.01 668.404C1580.77 669.546 1580.19 670.584 1579.36 671.384C1578.54 672.183 1577.49 672.706 1576.37 672.885L1576.26 672.903C1576.17 672.915 1576.1 672.927 1576.02 672.939C1578.51 679.057 1582 684.687 1586.34 689.585C1591.7 695.513 1598.18 700.25 1605.38 703.506C1612.58 706.762 1620.36 708.468 1628.22 708.519H1628.23C1630.37 718.077 1633.46 727.382 1637.46 736.281H1670.44C1670.55 735.904 1670.66 735.514 1670.77 735.137C1667.72 735.334 1664.65 735.146 1661.64 734.576C1664.09 731.484 1666.54 728.366 1668.98 725.274C1669.04 725.216 1669.09 725.155 1669.14 725.091C1670.38 723.508 1671.63 721.937 1672.87 720.354L1672.87 720.352C1672.94 715.5 1672.4 710.66 1671.26 705.95L1671.26 705.949Z" fill="#F2F2F2"/>
<path d="M1631.21 628.238L1631.22 628.213L1631.21 628.263V628.238Z" fill="#2F2E41"/>
</g>
<defs>
<filter id="filter0_f_9_217" x="47.0181" y="674.126" width="1045.53" height="98.874" filterUnits="userSpaceOnUse" color-interpolation-filters="sRGB">
<feFlood flood-opacity="0" result="BackgroundImageFix"/>
<feBlend mode="normal" in="SourceGraphic" in2="BackgroundImageFix" result="shape"/>
<feGaussianBlur stdDeviation="22" result="effect1_foregroundBlur_9_217"/>
</filter>
<linearGradient id="paint0_linear_9_217" x1="36" y1="694.204" x2="1102.51" y2="694.204" gradientUnits="userSpaceOnUse">
<stop stop-color="#3F3D56"/>
<stop offset="0.0909091" stop-color="#3F3D56"/>
<stop offset="0.181818" stop-color="#3F3D56"/>
<stop offset="0.272727" stop-color="#3F3D56"/>
<stop offset="0.363636" stop-color="#3F3D56"/>
<stop offset="0.454545" stop-color="#3F3D56"/>
<stop offset="0.545455" stop-color="#3F3D56"/>
<stop offset="0.636364" stop-color="#3F3D56"/>
<stop offset="0.727273" stop-color="#3F3D56"/>
<stop offset="0.818182" stop-color="#3F3D56"/>
<stop offset="0.909091" stop-color="#3F3D56"/>
<stop offset="1" stop-color="#3F3D56"/>
</linearGradient>
<linearGradient id="paint1_linear_9_217" x1="569.253" y1="703.99" x2="569.253" y2="717.039" gradientUnits="userSpaceOnUse">
<stop stop-color="#2F2E41"/>
<stop offset="1" stop-color="#2F2E41"/>
</linearGradient>
<linearGradient id="paint2_linear_9_217" x1="498.893" y1="693.66" x2="643.844" y2="693.66" gradientUnits="userSpaceOnUse">
<stop stop-color="#CFD9E7"/>
<stop offset="0.317518" stop-color="#CFD9E7" stop-opacity="0"/>
<stop offset="0.660584" stop-color="#CFD9E7" stop-opacity="0"/>
<stop offset="1" stop-color="#CFD9E7"/>
</linearGradient>
<clipPath id="clip0_9_217">
<rect width="1776" height="772" fill="white"/>
</clipPath>
</defs>
</svg>
