<svg xmlns="http://www.w3.org/2000/svg" xmlns:xlink="http://www.w3.org/1999/xlink" version="1.1" x="0px" y="0px" viewBox="0 0 100 125" enable-background="new 0 0 100 100" xml:space="preserve"><path d="M56.406,61.378c0.306-0.23,0.885-0.284,1.268-0.131c0.186,0.077,0.743,0.525,1.235,0.984  c0.973,0.918,1.191,1.027,1.618,0.874c0.372-0.142,0.47-0.361,0.568-1.191c0.066-0.568,0.109-0.677,0.284-0.677  c0.306,0,0.623,0.59,0.71,1.301c0.131,1.18,0.612,1.705,1.235,1.388c0.426-0.229,0.623-0.568,0.874-1.541  c0.12-0.47,0.262-0.896,0.317-0.951c0.23-0.23,0.656,0.393,0.951,1.355c0.459,1.563,1.29,2.219,2.044,1.618  c0.306-0.23,0.47-0.601,0.579-1.235c0.033-0.219,0.109-0.405,0.175-0.405c0.415,0,0.863,0.612,0.863,1.17  c0,0.164,0.098,0.47,0.219,0.656c0.164,0.284,0.295,0.361,0.547,0.361c0.645,0,1.202-0.634,1.202-1.366  c0-0.229,0.044-0.284,0.24-0.251c0.197,0.022,0.273,0.164,0.415,0.765c0.197,0.82,0.459,1.18,0.831,1.18  c0.35,0,0.885-0.492,1.038-0.962c0.186-0.601,0.197-0.601,0.601-0.24c0.656,0.568,1.563,0.328,1.771-0.47  c0.087-0.328,0.131-0.35,0.667-0.404c0.59-0.066,0.776-0.208,0.776-0.612c0-0.328-0.23-0.579-0.885-0.973  c-0.634-0.372-0.612-0.317-0.47-1.268c0.098-0.601-0.131-0.754-1.104-0.754c-0.448,0-0.831-0.033-0.853-0.087  c-0.022-0.044,0.033-0.448,0.12-0.918c0.153-0.787,0.153-0.853-0.044-1.191c-0.437-0.732-1.257-0.656-2.437,0.229  c-0.94,0.699-1.246,0.557-0.995-0.492c0.186-0.765,0.055-1.137-0.47-1.399c-0.59-0.295-1.016-0.12-1.847,0.787  c-0.798,0.864-1.115,1.071-1.344,0.885c-0.186-0.153-0.383-0.798-0.383-1.235c0-0.175-0.109-0.415-0.273-0.568  c-0.612-0.623-1.596-0.12-2.383,1.202c-0.689,1.137-1.312,1.246-1.891,0.328c-0.492-0.765-1.159-0.907-1.694-0.35  c-0.131,0.131-0.361,0.525-0.503,0.874c-0.35,0.776-0.623,0.885-1.213,0.47c-0.568-0.393-0.907-0.372-1.312,0.098  c-0.317,0.361-0.372,0.503-0.503,1.519c-0.076,0.547-0.317,0.907-0.765,1.126l-0.372,0.175l-2.273-2.295  c-1.257-1.268-2.754-2.732-3.323-3.257c-0.962-0.885-0.995-0.94-0.492-0.656c0.306,0.175,0.842,0.579,1.191,0.896  c1.202,1.115,2.011,1.475,2.743,1.235c0.459-0.153,0.623-0.525,0.536-1.213c-0.066-0.459-0.044-0.536,0.109-0.536  c0.284,0,0.754,0.273,1.323,0.765c1.071,0.929,1.814,1.104,2.361,0.557c0.251-0.262,0.317-0.415,0.317-0.798  c-0.011-0.262-0.077-0.667-0.164-0.907c-0.23-0.623-0.208-0.71,0.164-0.71c0.262,0,0.514,0.175,1.169,0.776  c1.312,1.213,1.661,1.366,2.328,1.027c0.645-0.339,0.765-0.623,0.765-1.869c0-1.104,0.011-1.137,0.251-1.137  c0.164,0,0.492,0.262,1.006,0.82c0.743,0.787,0.798,0.82,1.268,0.82c0.853,0,1.137-0.612,0.82-1.803  c-0.087-0.361-0.131-0.689-0.087-0.732c0.12-0.12,0.634,0.175,1.268,0.721c0.973,0.831,1.421,0.929,1.814,0.415  c0.208-0.251,0.23-0.383,0.164-0.94l-0.066-0.645l0.339,0.077c0.186,0.033,0.47,0.164,0.623,0.284c0.601,0.47,1.377,0.12,1.53-0.689  c0.087-0.437,0.12-0.459,0.503-0.492c0.284-0.022,0.459-0.109,0.579-0.295c0.328-0.492,0.022-0.831-1.049-1.148l-0.601-0.175  l0.033-0.448c0.055-0.612-0.12-0.874-0.634-1.027c-0.481-0.142-1.399,0-2,0.306c-0.481,0.24-0.7,0.098-0.896-0.579  c-0.23-0.798-0.612-1.06-1.508-0.995c-0.732,0.044-1.093,0.317-1.618,1.235c-0.47,0.82-0.71,0.874-1.038,0.229  c-0.678-1.333-1.508-1.268-2.689,0.219c-0.328,0.405-0.678,0.809-0.776,0.896c-0.284,0.229-0.754,0.186-0.951-0.098  c-0.459-0.667-0.645-0.798-1.115-0.721c-0.612,0.098-0.809,0.262-1.618,1.344c-0.689,0.918-1.279,1.454-1.607,1.454  c-0.087,0-0.393-0.251-0.689-0.547c-0.82-0.853-1.399-0.678-1.847,0.536c-0.35,0.962-0.94,1.344-1.476,0.94  c-0.12-0.087-0.393-0.164-0.612-0.164c-0.547,0-0.842,0.339-0.995,1.159c-0.077,0.35-0.208,0.732-0.306,0.831  c-0.197,0.208,0.109,0.437-3.683-2.809c-0.842-0.721-1.924-1.618-2.405-1.989c-1.792-1.399-1.891-1.814-0.153-0.656  c0.721,0.481,1.202,0.907,1.639,1.432c0.612,0.743,1.06,1.071,1.716,1.213c0.306,0.066,0.404,0.022,0.699-0.262  c0.306-0.306,0.328-0.382,0.262-0.831c-0.066-0.383-0.044-0.503,0.087-0.557c0.273-0.098,1.159,0.35,1.716,0.874  c0.645,0.612,1.137,0.864,1.661,0.864c0.481,0,0.721-0.175,0.929-0.667c0.164-0.394,0.12-0.678-0.262-1.541l-0.262-0.59l0.536,0.055  c0.339,0.033,0.743,0.175,1.06,0.372c0.284,0.175,0.689,0.426,0.907,0.557c0.612,0.372,1.137,0.328,1.639-0.12  c0.383-0.35,0.404-0.415,0.404-1.017c0-0.546-0.055-0.721-0.415-1.268c-0.667-1.027-0.372-1.104,1.169-0.295  c0.568,0.295,1.115,0.547,1.213,0.547c0.372,0,0.798-0.328,0.929-0.7c0.131-0.426,0.011-0.831-0.481-1.563  c-0.481-0.7-0.35-0.743,0.689-0.24c0.383,0.186,0.885,0.372,1.115,0.393c0.361,0.055,0.459,0.011,0.765-0.284  c0.393-0.393,0.372-0.699-0.076-1.29c-0.142-0.186-0.262-0.372-0.262-0.404c0-0.033,0.251-0.066,0.547-0.066  c0.699,0,1.148-0.372,1.071-0.885c-0.033-0.175-0.022-0.317,0.022-0.317c0.033,0,0.273-0.175,0.525-0.394  c0.853-0.721,0.492-1.486-0.579-1.246c-0.284,0.066-0.525,0.098-0.536,0.088c-0.219-0.547-0.525-0.634-1.148-0.306l-0.448,0.219  v-0.273c0-0.306-0.437-0.82-0.689-0.82c-0.623,0-1.093,0.437-1.825,1.683c-0.525,0.885-0.831,0.951-1.246,0.24  c-0.317-0.547-0.557-0.721-0.995-0.721c-0.689,0-1.093,0.536-1.268,1.65c-0.219,1.41-0.383,1.487-1.235,0.59  c-0.514-0.547-0.612-0.601-1.038-0.601c-0.656,0-1.224,0.557-1.487,1.476c-0.306,1.06-0.536,1.607-0.732,1.738  c-0.284,0.175-0.361,0.011-0.328-0.754c0.033-0.645,0.011-0.732-0.262-0.984c-0.404-0.372-1.016-0.415-1.377-0.088  c-0.219,0.197-0.47,0.973-0.579,1.825c-0.076,0.59-0.47,1.093-0.754,0.984c-0.131-0.055-0.175-0.219-0.175-0.656  c0-0.776-0.328-1.191-0.94-1.17c-0.328,0.011-0.492,0.087-0.721,0.35c-0.175,0.186-0.306,0.448-0.306,0.568  c0,0.284-1.027,1.366-1.53,1.629c-0.514,0.262-0.973,0.35-1.344,0.24c-0.492-0.131-5.017-4.394-6.536-6.154l-0.59-0.689l0.492,0.339  c0.273,0.186,0.787,0.557,1.137,0.842c0.383,0.295,0.809,0.525,1.038,0.557c1.06,0.164,1.246,0.273,2.131,1.18  c0.481,0.492,0.995,0.984,1.148,1.082c0.383,0.262,0.907,0.251,1.257-0.033c0.35-0.273,0.383-0.831,0.076-1.628  c-0.317-0.831,0-0.721,1.268,0.448c0.842,0.776,1.344,0.973,1.847,0.7c0.448-0.24,0.59-0.568,0.59-1.388V41.54l0.306,0.076  c0.164,0.044,0.59,0.251,0.951,0.47c0.798,0.492,1.388,0.536,1.705,0.142c0.251-0.306,0.262-0.885,0.033-1.333  c-0.087-0.186-0.153-0.383-0.131-0.437s0.448,0.098,0.94,0.339c1.159,0.557,1.552,0.568,2.055,0.066  c0.426-0.426,0.459-0.71,0.153-1.323c-0.229-0.448-0.273-0.71-0.131-0.71c0.044,0,0.459,0.131,0.929,0.273  c0.743,0.24,0.896,0.262,1.148,0.142c0.47-0.229,0.459-0.787-0.033-1.432c-0.393-0.514-0.393-0.525-0.12-0.448  c0.153,0.033,0.525,0.076,0.82,0.076c1.027,0.033,1.333-0.721,0.503-1.235c-0.208-0.131-0.383-0.273-0.383-0.317  s0.219-0.229,0.492-0.426c0.393-0.273,0.492-0.404,0.492-0.667c0-0.579-0.536-0.831-1.235-0.568  c-0.197,0.077-0.339,0.055-0.579-0.109c-0.175-0.109-0.415-0.208-0.536-0.208c-0.317,0-0.918,0.393-1.432,0.94  c-0.24,0.262-0.536,0.481-0.645,0.481s-0.404-0.197-0.667-0.437c-0.787-0.721-1.235-0.557-1.847,0.667  c-0.339,0.678-0.601,0.951-0.601,0.645c0-0.055-0.175-0.306-0.393-0.546c-0.295-0.328-0.481-0.437-0.721-0.437  c-0.459,0-0.984,0.557-1.268,1.366c-0.317,0.875-0.383,0.973-0.667,1.017c-0.186,0.033-0.273-0.066-0.459-0.492  c-0.12-0.284-0.306-0.612-0.393-0.721c-0.47-0.514-1.465,0.098-1.596,0.984c-0.066,0.404-0.295,0.689-0.557,0.689  c-0.142,0-0.393-0.372-0.393-0.59c0-0.404-0.404-0.831-0.787-0.831c-0.514,0-0.918,0.361-1.18,1.071  c-0.415,1.093-0.536,1.126-0.94,0.295c-0.437-0.94-1.169-1.191-1.793-0.634c-0.186,0.175-0.547,0.623-0.798,1.016  c-0.547,0.842-0.951,1.017-1.716,0.765c-0.383-0.12-0.612-0.372-1.661-1.738c-1.333-1.738-3.399-4.722-3.312-4.798  c0.131-0.131,1.563,1.323,2.077,2.12c1.027,1.585,1.716,1.803,1.88,0.59c0.12-0.864,0.568-0.645,1.17,0.557  c0.393,0.809,0.842,1.148,1.377,1.027c0.186-0.044,0.415-0.197,0.514-0.339c0.153-0.24,0.153-0.35,0.033-0.874  c-0.076-0.328-0.109-0.623-0.076-0.656c0.033-0.044,0.372,0.251,0.754,0.645c0.383,0.394,0.798,0.765,0.929,0.831  c0.645,0.328,1.344-0.098,1.344-0.809c0-0.459,0.164-0.82,0.372-0.82c0.077,0,0.426,0.219,0.776,0.492  c0.35,0.273,0.754,0.525,0.907,0.568c0.339,0.077,0.732-0.12,1.038-0.536c0.208-0.284,0.208-0.317,0.044-0.765  c-0.109-0.262-0.186-0.514-0.186-0.557c0-0.175,0.317-0.055,0.776,0.273c0.536,0.383,0.973,0.437,1.301,0.142  c0.175-0.153,0.219-0.339,0.219-0.896c0-0.372,0.033-0.689,0.087-0.689c0.044,0.011,0.197,0.077,0.35,0.164  c0.393,0.229,0.918,0.208,1.148-0.055c0.164-0.186,0.175-0.262,0.066-0.514c-0.142-0.306-0.033-0.47,0.339-0.47  c0.098,0,0.339-0.131,0.525-0.284c0.251-0.219,0.328-0.372,0.306-0.579c-0.033-0.262-0.087-0.284-0.568-0.317  c-0.415-0.033-0.579-0.098-0.743-0.306c-0.251-0.317-0.689-0.339-1.432-0.088c-0.634,0.219-0.743,0.175-0.896-0.295  c-0.077-0.24-0.251-0.437-0.481-0.557c-0.514-0.251-0.907-0.087-1.705,0.732c-0.361,0.372-0.754,0.699-0.885,0.732  c-0.284,0.077-0.59-0.087-0.59-0.295c0-0.536-0.612-1.027-1.082-0.874c-0.404,0.12-0.885,0.612-1.17,1.159  c-0.503,1.016-1.115,1.137-1.323,0.273c-0.175-0.71-0.503-1.049-1.016-1.049s-0.82,0.229-1.159,0.885  c-0.142,0.295-0.393,0.601-0.536,0.667c-0.383,0.175-0.776-0.033-0.874-0.437c-0.076-0.372-0.448-0.754-0.765-0.787  c-0.492-0.055-0.656,0.033-1.279,0.656c-1.049,1.049-1.836,0.995-2.503-0.164c-0.393-0.656-1.738-3.345-1.738-3.454  c0-0.044,0.164,0.088,0.372,0.295c0.273,0.273,0.47,0.372,0.743,0.372c0.503,0,0.689,0.175,0.907,0.853  c0.23,0.721,0.842,1.224,1.465,1.224c0.459-0.011,0.656-0.142,0.951-0.634c0.372-0.645,0.787-0.579,1.705,0.262  c0.426,0.393,0.59,0.481,0.94,0.481c0.557,0,0.962-0.328,1.115-0.885c0.109-0.383,0.153-0.426,0.361-0.361  c0.131,0.044,0.437,0.24,0.667,0.437c0.514,0.437,0.984,0.481,1.432,0.131c0.273-0.208,0.295-0.273,0.229-0.765  c-0.076-0.59,0.011-0.645,0.689-0.405c0.426,0.153,0.853,0.055,0.94-0.219c0.033-0.12-0.011-0.394-0.109-0.623  c-0.208-0.492-0.153-0.699,0.186-0.699c0.404,0,0.743-0.295,0.743-0.645c0-0.459-0.262-0.612-0.94-0.59  c-0.579,0.033-0.59,0.022-0.863-0.404c-0.153-0.24-0.339-0.437-0.426-0.437c-0.164,0-0.842,0.437-1.355,0.885  c-0.35,0.306-0.809,0.404-1.082,0.229c-0.066-0.044-0.219-0.339-0.35-0.667c-0.383-1.016-0.743-1.049-1.65-0.131  c-0.743,0.754-1.18,0.918-1.618,0.59c-0.164-0.12-0.328-0.382-0.361-0.579c-0.142-0.7-0.59-0.809-1.465-0.383  c-0.601,0.295-1.126,0.35-1.377,0.131c-0.087-0.066-0.295-0.317-0.47-0.546c-0.164-0.219-0.361-0.405-0.437-0.405  c-0.077,0-0.35,0.142-0.623,0.317c-0.732,0.481-0.951,0.514-1.082,0.186c-0.295-0.776-0.623-6.908-0.339-6.405  c0.164,0.295,0.339,1.224,0.437,2.394c0.153,1.618,0.459,1.989,1.344,1.585c0.514-0.229,0.612-0.164,0.732,0.59  c0.109,0.689,0.35,1.071,0.82,1.301c0.47,0.219,0.918,0.087,1.213-0.383c0.262-0.404,0.328-0.426,0.579-0.12  c0.863,1.071,1.246,1.301,1.836,1.082c0.383-0.142,0.809-0.525,0.809-0.721c0-0.262,0.219-0.273,0.59-0.055  c0.743,0.47,1.508,0.164,1.672-0.667c0.076-0.393,0.142-0.47,0.514-0.601c0.557-0.186,0.721-0.339,0.721-0.645  c0-0.361-0.393-0.579-0.995-0.557c-0.601,0.022-1.049-0.24-1.148-0.667c-0.12-0.59-0.251-0.765-0.656-0.896  c-0.372-0.12-0.503-0.109-1.159,0.12c-0.984,0.339-1.137,0.251-1.093-0.601c0.033-0.557,0.011-0.634-0.284-0.94  c-0.503-0.503-0.929-0.448-1.508,0.164c-0.514,0.536-0.765,0.557-0.874,0.066c-0.164-0.765-0.339-1.159-0.612-1.355  c-0.393-0.295-0.776-0.273-1.268,0.077c-0.503,0.339-1.027,0.372-1.333,0.066c-0.262-0.262-0.273-0.448-0.044-1.432l0.175-0.754  h0.459c0.404,0,0.503,0.055,0.863,0.481c0.568,0.689,1.432,1.093,2.197,1.027c0.372-0.033,0.71-0.142,0.951-0.306  c0.415-0.306,1.06-0.35,1.355-0.109c0.109,0.087,0.284,0.383,0.404,0.656c0.568,1.323,1.858,1.727,2.569,0.798  c0.175-0.219,0.437-0.547,0.601-0.732l0.479-0.541c0.011-0.251,0.032-0.473,0.055-0.644c0.003-0.025,0.006-0.05,0.014-0.096  c0.029-0.178,0.084-0.418,0.152-0.642c0.208-0.689,1.082-1.683,1.847-2.088c0.273-0.142,0.492-0.317,0.492-0.383  c0-0.077-0.175-0.262-0.383-0.415c-0.317-0.24-0.383-0.361-0.383-0.7c0-0.24,0.109-0.579,0.273-0.842  c0.328-0.536,0.35-1.027,0.055-1.399c-0.328-0.415-0.809-0.47-1.629-0.186c-0.798,0.284-1.268,0.23-1.76-0.175  c-0.175-0.153-0.372-0.459-0.437-0.688c-0.164-0.623-0.481-0.951-1.027-1.093c-0.386-0.096-0.79-0.126-1.179-0.105  c-0.331-0.01-0.16-0.422,0.102-0.4c0.119,0.001,0.248,0.003,0.388,0.003c0.7,0,0.984,0.055,1.279,0.229  c0.448,0.262,0.874,0.842,0.874,1.202c0,0.295,0.372,0.678,0.743,0.776c0.142,0.033,0.579-0.044,0.995-0.186  c0.831-0.284,1.333-0.251,1.814,0.131c0.634,0.503,0.71,1.246,0.208,2.12c-0.142,0.24-0.262,0.503-0.262,0.579  c0,0.076,0.219,0.35,0.492,0.623l0.492,0.47V12.39c0-0.448,0.383-0.863,1.038-1.158c0.951-0.415,0.896-0.984-0.164-1.727  c-1.049-0.732-1.148-1.257-0.383-1.956c0.394-0.359,0.543-0.682,0.479-0.966c-0.038-0.18,0.379-0.057,0.394,0.166  c-0.003,0.058-0.006,0.121-0.009,0.188c0,0.393-0.066,0.503-0.459,0.842c-0.262,0.229-0.459,0.492-0.459,0.623  c0,0.251,0.339,0.59,0.842,0.853c0.7,0.35,1.071,1.181,0.776,1.782c-0.087,0.197-0.383,0.426-0.787,0.645  c-0.361,0.186-0.7,0.437-0.765,0.579c-0.087,0.208-0.033,0.306,0.459,0.776c0.317,0.295,0.568,0.59,0.568,0.645  c0,0.175,0.273,0.208,0.492,0.055c0.142-0.109,0.23-0.361,0.295-0.885c0.142-1.213,0.623-1.618,1.268-1.071  c0.197,0.164,0.393,0.262,0.459,0.219c0.055-0.033,0.109-0.361,0.109-0.721c0-0.535,0.045-0.689,0.251-0.903  c0.175-0.035,0.141,0.329,0.198,0.5c-0.007,0.087-0.012,0.184-0.012,0.305c0,0.864-0.219,1.312-0.645,1.312  c-0.164,0-0.393-0.098-0.503-0.219c-0.383-0.426-0.601-0.229-0.601,0.557c0,0.951-0.547,1.596-1.257,1.487  c-0.306-0.055-0.404-0.022-0.492,0.153c-0.066,0.109-0.437,0.393-0.82,0.612c-0.721,0.415-0.863,0.579-0.503,0.579  c0.273,0,0.743,0.383,0.94,0.776c0.219,0.415,0.754,0.688,1.224,0.612c0.102-0.017,0.206-0.049,0.309-0.078  c0.209-0.067,0.148,0.422-0.138,0.41c-0.115,0.015-0.224,0.026-0.313,0.029c-0.404,0-0.645-0.065-0.842-0.219l-0.284-0.229  l-0.175,0.339c-0.159,0.312-0.118,0.647,0.05,0.885c0.132,0.266-0.385,0.317-0.537,0.115c-0.225-0.38-0.235-0.807-0.005-1.241  c0.208-0.405,0.219-0.459,0.055-0.634c-0.098-0.109-0.306-0.229-0.47-0.273c-0.404-0.098-0.568-0.262-0.568-0.557  c0-0.295,0.317-0.623,0.863-0.875c0.842-0.383,1.137-0.984,0.689-1.388c-0.732-0.656-2.831,0.754-3.202,2.153  c-0.017,0.064-0.032,0.146-0.044,0.24c-0.205,1.459,0.257,2.497,0.305,2.599c0.746,0.623,1.713,0.998,2.689,0.979  c1.094-0.021,1.889-0.596,2.712-1.249c1.159-0.929,1.672-1.618,2.175-2.94c0.284-0.754,0.306-0.94,0.317-2.35  c0-2.47-0.404-3.563-1.891-5.017c-2.372-2.328-3.968-2.951-6.962-2.689c-2.12,0.186-3.334,0.612-5.017,1.738  c-1.432,0.973-1.946,1.432-2.94,2.656c-0.94,1.17-1.618,2.328-2.241,3.804c-0.853,2.033-1.148,3.17-1.333,5.257  c-0.47,5.378,0.514,9.586,3.388,14.417c1.312,2.208,5.115,7.268,7.214,9.608c2.798,3.104,4.121,4.35,9.4,8.809  c6.635,5.596,9.072,7.957,12.11,11.728c1.803,2.219,4.066,5.607,5.028,7.52c1.016,2.022,2.503,6.186,2.853,8.044  c0.918,4.809,0.667,10.482-0.634,13.728c-0.295,0.732-0.284,1.17,0.022,1.716c0.623,1.104,1.782,1.246,2.055,0.251  c0.415-1.541,0.885-4.547,0.984-6.372c0.131-2.131,0.066-5.552-0.12-7.05c-0.153-1.268-0.71-3.913-1.104-5.323  c-0.175-0.634-0.306-1.17-0.284-1.202c0.087-0.087,0.951,0.962,1.246,1.519c0.284,0.546,0.306,0.645,0.284,1.781  c-0.044,1.913,0.208,2.569,0.984,2.569c0.164,0,0.448-0.077,0.623-0.164c0.295-0.153,0.328-0.153,0.481,0.077  c0.12,0.164,0.175,0.492,0.175,0.962c0,0.94,0.142,1.421,0.557,1.814c0.426,0.404,1.115,0.437,1.607,0.077l0.317-0.229l0.24,0.536  c0.284,0.601,0.656,0.864,1.268,0.864c0.284,0,0.47-0.077,0.656-0.284c0.219-0.229,0.317-0.273,0.601-0.208  c0.437,0.098,0.984-0.12,0.984-0.393c0-0.109-0.23-0.383-0.503-0.612c-0.951-0.787-1.016-1.323-0.197-1.672  c0.284-0.12,0.481-0.284,0.481-0.383c0-0.284-0.503-0.667-1.191-0.918c-0.798-0.295-0.962-0.59-0.503-0.929  c0.743-0.568,0.929-0.809,0.929-1.202c0-0.557-0.339-0.743-1.421-0.798c-1.552-0.066-1.782-0.35-0.94-1.159  c0.273-0.251,0.503-0.536,0.514-0.623c0.055-0.47-0.033-0.678-0.361-0.885c-0.372-0.219-0.557-0.23-1.814-0.033  c-0.612,0.087-0.754-0.044-0.809-0.787c-0.066-0.82-0.339-1.093-1.071-1.06c-0.536,0.011-1.06,0.251-1.76,0.809  c-0.328,0.262-1.006,0.415-1.486,0.35c-0.306-0.044-0.361-0.142-0.787-1.268c-0.262-0.678-0.874-2.033-1.355-3.028  c-0.492-0.995-0.907-1.836-0.929-1.891c-0.077-0.164,0.448-0.065,0.962,0.197c0.732,0.372,0.885,0.645,0.929,1.629  c0.044,0.853,0.273,1.53,0.568,1.639c0.361,0.142,1.071-0.601,1.355-1.388c0.208-0.601,0.372-0.7,0.601-0.35  c0.153,0.229,0.175,0.426,0.109,1.038c-0.076,0.864,0.022,1.224,0.426,1.486c0.262,0.175,0.317,0.175,0.656,0.011  c0.251-0.12,0.492-0.382,0.721-0.787c0.186-0.328,0.383-0.601,0.437-0.601c0.186,0,0.404,0.492,0.481,1.082  c0.098,0.776,0.514,1.257,1.071,1.257c0.481,0,0.885-0.339,1.071-0.885c0.109-0.35,0.131-0.361,0.317-0.197  c0.109,0.098,0.262,0.437,0.328,0.743c0.35,1.563,0.601,1.935,1.257,1.935c0.35,0,0.667-0.262,0.929-0.754  c0.164-0.317,0.251-0.219,0.492,0.536c0.219,0.656,0.678,1.202,1.027,1.202c0.12,0,0.361-0.153,0.536-0.339l0.328-0.35l0.317,0.23  c0.743,0.525,1.235,0.361,1.235-0.415c0-0.317-0.098-0.546-0.383-0.918c-0.426-0.568-0.47-0.721-0.197-0.721  c0.372,0,1.104-0.35,1.202-0.579c0.23-0.503-0.12-0.907-1.137-1.279c-0.962-0.35-1.016-0.459-0.426-0.809  c0.918-0.536,1.18-1.191,0.689-1.76c-0.361-0.415-0.962-0.47-2.022-0.164c-1.06,0.306-1.443,0.251-1.443-0.208  c0-0.175,0.142-0.481,0.328-0.721c0.951-1.202-0.273-2.011-1.858-1.235c-0.328,0.164-0.831,0.426-1.126,0.59  c-0.361,0.197-0.601,0.262-0.798,0.219c-0.284-0.077-0.284-0.088-0.208-0.831c0.066-0.667,0.055-0.765-0.153-0.973  c-0.35-0.35-0.754-0.284-1.465,0.24c-0.689,0.514-1.552,0.874-1.956,0.82c-0.219-0.033-0.262-0.12-0.328-0.634  c-0.077-0.7-0.437-1.093-0.973-1.093c-0.448,0-0.601,0.088-1.76,1.104c-1.104,0.962-1.705,1.344-2.23,1.443  c-0.284,0.055-0.361,0.022-0.536-0.273c-0.426-0.721-1.661-2.437-2.59-3.607C56.286,61.629,56.221,61.509,56.406,61.378z   M58.998,60.101c2.071-0.503,3.445-0.634,5.595-0.581c2.448,0.055,3.815,0.284,6.11,1.016c1.246,0.404,3.213,1.191,3.388,1.366  c0.295,0.284-0.186,0.186-1.377-0.262c-4.798-1.803-8.329-2.175-12.668-1.323c-0.434,0.083-0.756,0.144-1.023,0.199  C58.783,60.57,58.76,60.116,58.998,60.101z M51.045,53.683c0.815-0.138,1.726-0.315,2.356-0.47c0.82-0.208,2.448-0.732,3.607-1.169  c3.968-1.476,6.077-1.957,8.963-2.044c1.924-0.055,3.377,0.033,3.377,0.186c0,0.055-1.093,0.12-2.426,0.153  c-3.312,0.087-5.596,0.536-8.613,1.683c-3.279,1.257-7.329,2.136-7.182,2.115C50.862,54.175,50.757,53.731,51.045,53.683z   M43.843,47.299c0.085,0,0.169,0.001,0.256,0.001c1.574-0.011,2.12-0.055,3.06-0.262c2.12-0.459,3.64-1.17,7.05-3.29  c1.53-0.951,3.563-1.967,3.935-1.967c0.372,0,0.12,0.208-0.667,0.547c-0.831,0.372-1.082,0.514-3.815,2.241  c-3.815,2.405-5.771,3.082-9.29,3.213l-0.407,0.014C43.568,47.837,43.567,47.297,43.843,47.299z M35.693,40.011  c1.559,0.151,4.034,0.091,5.291-0.176c3.115-0.667,5.017-1.344,7.29-2.601c1.476-0.809,1.803-0.951,1.891-0.809  c0.076,0.12-1.65,1.202-3.006,1.869c-1.64,0.809-4.591,1.716-6.93,2.12c-1.022,0.178-3.198,0.202-4.508,0.082  C35.427,40.465,35.45,40.002,35.693,40.011z M29.815,32.729c1.687,0.393,4.498,0.692,5.693,0.57  c2.033-0.197,3.935-0.645,6.285-1.454c1.41-0.492,1.956-0.601,1.683-0.339c-0.186,0.186-3.071,1.301-3.913,1.519  c-1.202,0.295-3.017,0.634-3.902,0.721c-1.016,0.098-3.869-0.131-5.323-0.415l-0.564-0.117  C29.571,33.173,29.568,32.669,29.815,32.729z M25.885,26.222c0.973,0.482,2.405,0.954,3.721,1.186  c1.705,0.295,4.252,0.153,5.804-0.328c0.656-0.197,0.71-0.197,0.71-0.044c0,0.175-0.71,0.426-1.858,0.678  c-0.765,0.164-1.476,0.219-2.732,0.229c-1.574,0-1.792-0.022-3.115-0.361c-0.776-0.197-1.782-0.525-2.23-0.732  c-0.141-0.065-0.269-0.12-0.388-0.17c0.002,0.001,0.004,0.002,0.007,0.003C25.508,26.568,25.591,26.149,25.885,26.222z   M25.479,19.011c0.075,0.067,0.148,0.133,0.236,0.21c1.65,1.421,4.088,2.645,5.782,2.896c0.492,0.076,0.907,0.175,0.907,0.229  c0,0.142-1.191,0.098-1.858-0.066c-1.432-0.361-3.53-1.443-4.7-2.416c-0.243-0.203-0.487-0.394-0.669-0.535  c0.006,0.005,0.01,0.008,0.017,0.013C24.985,19.186,25.304,18.853,25.479,19.011z M26.049,12.833  c0.066,0.134,0.131,0.279,0.191,0.431c0.361,0.885,0.437,0.973,0.831,0.973c0.23,0,0.47-0.142,0.896-0.546  c0.71-0.667,1.027-0.71,1.53-0.175c0.186,0.197,0.415,0.481,0.514,0.623c0.262,0.382,0.699,0.153,0.863-0.459  c0.164-0.601,0.699-1.137,1.235-1.235c0.798-0.153,1.618,0.525,1.454,1.191c-0.087,0.35-0.459,0.459-0.732,0.208  c-0.197-0.175-0.229-0.175-0.393-0.011c-0.251,0.24-0.044,0.699,0.361,0.798c0.623,0.153,1.126-0.415,1.224-1.377  c0.109-1.159-0.536-2.262-1.629-2.809c-0.798-0.393-1.312-0.481-2.175-0.361c-0.776,0.109-0.94,0.175-2.23,0.973  c-0.515,0.318-1.024,0.57-1.396,0.703c-0.247,0.008-0.291-0.278-0.081-0.364c0,0-0.001,0-0.001,0  c0.292-0.119,0.719-0.349,1.325-0.722c1.41-0.885,2-1.071,3.246-1.005c0.732,0.044,1.06,0.109,1.497,0.339  c1.268,0.645,2.175,2.361,1.88,3.563c-0.175,0.732-0.383,1.082-0.776,1.323c-0.798,0.492-1.672,0.131-1.792-0.721  c-0.055-0.394-0.022-0.47,0.251-0.689c0.23-0.186,0.404-0.229,0.645-0.186l0.328,0.066l-0.262-0.219  c-0.536-0.459-1.344-0.12-1.486,0.612c-0.098,0.536-0.59,1.027-1.016,1.027c-0.503,0-0.667-0.098-0.907-0.557  c-0.306-0.612-0.645-0.667-1.093-0.153c-0.197,0.219-0.492,0.47-0.656,0.557c-0.317,0.164-0.929,0.208-1.246,0.087  c-0.186-0.076-0.82-1.344-0.82-1.629c0-0.01-0.009-0.023-0.011-0.034C25.552,12.796,25.889,12.61,26.049,12.833z M65.46,74.492  c0.669,0.531,1.547,1.44,1.996,2.101c0.24,0.361,0.743,1.191,1.115,1.847c0.765,1.344,1.016,1.738,1.41,2.164  c0.142,0.153,0.24,0.35,0.208,0.437c-0.098,0.284-1.126-0.973-2.044-2.536c-0.776-1.323-1.104-1.76-2.022-2.689  c-0.375-0.378-0.67-0.665-0.892-0.869c0.009,0.008,0.015,0.013,0.024,0.021C64.979,74.704,65.23,74.382,65.46,74.492z M62.98,66.696  c2.803,0.264,3.721,0.481,5.592,1.284c1.41,0.59,2.131,0.995,3.082,1.683c0.765,0.568,1.803,1.607,1.694,1.705  c-0.033,0.033-0.284-0.131-0.568-0.361c-1.432-1.213-2.492-1.847-4.361-2.645c-1.913-0.809-3.17-1.104-5.028-1.18l-0.385-0.016  C62.603,67.148,62.697,66.655,62.98,66.696z"/><text x="0" y="115" fill="#000000" font-size="5px" font-weight="bold" font-family="'Helvetica Neue', Helvetica, Arial-Unicode, Arial, Sans-serif">Created by Laymik</text><text x="0" y="120" fill="#000000" font-size="5px" font-weight="bold" font-family="'Helvetica Neue', Helvetica, Arial-Unicode, Arial, Sans-serif">from the Noun Project</text></svg>