<svg xmlns="http://www.w3.org/2000/svg" xmlns:xlink="http://www.w3.org/1999/xlink" version="1.1" x="0px" y="0px" viewBox="0 0 100 125" enable-background="new 0 0 100 100" xml:space="preserve"><path d="M20.943,79.382c0,0.228,0.326,0.456,0.76,0.532c0.467,0.076,0.489,0.098,0.565,0.554c0.087,0.521,0.445,0.988,0.749,0.988  c0.109,0,0.445-0.098,0.75-0.217c0.521-0.206,1.195-0.282,1.325-0.152c0.033,0.033-0.011,0.282-0.087,0.565  c-0.272,0.891,0.13,1.542,0.956,1.542c0.326,0,0.51-0.098,1.021-0.543c0.337-0.304,0.63-0.532,0.652-0.521  c0.011,0.022-0.054,0.337-0.141,0.706c-0.195,0.804-0.119,1.369,0.239,1.727c0.141,0.141,0.391,0.261,0.554,0.261  c0.282,0,0.424-0.13,1.39-1.184c0.445-0.5,0.641-0.413,0.75,0.315c0.098,0.75,0.369,1.13,0.815,1.173  c0.293,0.033,0.424-0.043,0.858-0.521c0.282-0.304,0.576-0.532,0.663-0.521c0.098,0.022,0.217,0.25,0.282,0.511  c0.065,0.261,0.206,0.532,0.304,0.597c0.185,0.109,0.25,0.098,1.51-0.282c0.793-0.25,0.804-0.152,0.206,1.553  c-0.489,1.401-0.739,2.314-1.597,5.855c-0.152,0.63-0.369,1.434-0.489,1.792c-0.206,0.619-0.206,0.652-0.011,0.793  c0.217,0.163,0.967,0.109,1.347-0.098c0.358-0.185,0.608-0.923,0.804-2.324c0.098-0.717,0.337-1.944,0.543-2.716  c0.554-2.086,1.825-6.072,2.02-6.289c0.043-0.054,0.315-0.054,0.597-0.011c0.652,0.098,1.01,0.456,1.336,1.347  c0.25,0.652,0.782,1.314,1.065,1.314c0.076,0,0.282-0.13,0.435-0.282c0.25-0.25,0.272-0.337,0.217-0.869  c-0.054-0.51-0.033-0.597,0.109-0.565c0.098,0.022,0.391,0.369,0.641,0.793c0.532,0.869,0.945,1.249,1.369,1.249  c0.478,0,0.565-0.304,0.358-1.249c-0.272-1.195,0.022-1.369,0.489-0.293c0.315,0.706,0.891,1.358,1.401,1.586  c0.402,0.185,0.456,0.196,0.706,0.033c0.326-0.217,0.445-0.695,0.293-1.227c-0.087-0.304-0.076-0.434,0.011-0.489  c0.217-0.13,0.489,0.087,1.01,0.826c0.608,0.847,0.956,1.14,1.369,1.14c0.521,0,0.619-0.413,0.369-1.434l-0.076-0.304l0.934,0.445  c1.108,0.521,1.825,0.641,2.325,0.38c0.5-0.261,0.565-0.652,0.174-1.064c-0.174-0.174-0.543-0.445-0.836-0.587  c-0.543-0.282-0.608-0.413-0.348-0.76c0.239-0.315,0.195-0.456-0.196-0.695c-0.272-0.174-0.543-0.217-1.303-0.217  c-0.945,0-1.141-0.087-0.826-0.402c0.065-0.065,0.098-0.282,0.076-0.478c-0.022-0.304-0.109-0.402-0.456-0.576  c-0.413-0.206-0.424-0.206-1.13,0.033c-0.391,0.13-0.75,0.196-0.804,0.141c-0.043-0.043-0.033-0.25,0.033-0.445  c0.163-0.478,0-0.836-0.435-0.934c-0.358-0.076-0.739,0.087-1.26,0.532c-0.348,0.304-0.684,0.445-0.793,0.348  c-0.033-0.033-0.141-0.293-0.228-0.576c-0.196-0.576-0.489-0.793-1.086-0.793c-0.315,0-0.467,0.098-0.891,0.543  c-0.282,0.293-0.576,0.543-0.663,0.543c-0.087,0-0.293-0.152-0.445-0.326c-0.163-0.185-0.38-0.326-0.5-0.326  c-0.358,0-1.086,0.641-1.684,1.499c-0.521,0.739-1.043,1.347-1.043,1.206c0-0.033,0.228-0.587,0.5-1.238  c0.272-0.663,0.587-1.423,0.695-1.705c0.119-0.272,0.619-1.336,1.13-2.346l0.923-1.847l0.521,0.163  c1.173,0.348,1.619,0.652,2.281,1.586c0.782,1.097,1.412,1.597,1.988,1.597s0.76-0.217,0.76-0.88c0-0.728,0.206-0.695,0.75,0.098  c0.619,0.923,1.227,1.434,1.695,1.434c0.739,0,0.988-0.576,0.652-1.532c-0.174-0.467-0.109-0.695,0.174-0.586  c0.087,0.032,0.456,0.489,0.826,1.021c0.76,1.086,1.227,1.412,1.705,1.195c0.304-0.141,0.565-0.663,0.435-0.88  c-0.043-0.076,0.174,0.087,0.478,0.38c0.695,0.641,1.032,0.782,1.412,0.597c0.489-0.25,0.532-0.445,0.272-1.195  c-0.141-0.369-0.228-0.684-0.206-0.706c0.109-0.109,0.445,0.174,0.988,0.836c0.597,0.728,1.108,1.086,1.575,1.086  c0.261,0,0.663-0.185,0.782-0.369c0.13-0.185,0.098-0.771-0.043-0.912c-0.185-0.185-0.076-0.163,0.511,0.087  c1.032,0.445,1.781,0.185,1.629-0.565c-0.119-0.576-0.348-0.836-1.01-1.151l-0.619-0.293v-0.739c0-0.684-0.022-0.771-0.304-1.01  c-0.402-0.337-0.912-0.337-1.597,0.011s-0.836,0.348-0.554-0.011c0.228-0.282,0.304-0.858,0.141-1.086  c-0.13-0.206-0.532-0.369-0.902-0.369c-0.272,0-0.456,0.109-0.804,0.467c-0.695,0.728-0.815,0.728-0.815,0.011  c0-0.793-0.304-1.13-1.032-1.13c-0.435,0-0.565,0.054-1.01,0.467c-0.923,0.858-1.336,1.054-1.054,0.51  c0.369-0.728,0.054-1.303-0.706-1.303c-0.565,0-0.967,0.217-1.434,0.76c-0.206,0.239-0.554,0.5-0.771,0.597l-0.391,0.163  l-0.033-0.511c-0.033-0.445-0.087-0.543-0.402-0.76c-0.25-0.163-0.532-0.25-0.858-0.25c-0.51,0-0.413-0.076-1.684,1.271  c-0.489,0.521-1.792,1.217-2.444,1.303c-0.25,0.033-0.456,0.022-0.456-0.011c0-0.12,2.303-4.356,3.096-5.714  c0.369-0.63,0.847-1.466,1.075-1.879c0.369-0.673,0.435-0.728,0.76-0.728c0.554,0,0.858,0.478,1.162,1.847  c0.163,0.739,0.348,1.13,0.663,1.347c0.326,0.228,0.587,0.217,0.847-0.043c0.25-0.25,0.293-1.173,0.098-1.879  c-0.228-0.826-0.022-0.619,0.576,0.587c0.652,1.325,1.13,1.901,1.684,2.01c0.261,0.054,0.391,0.011,0.565-0.163  c0.206-0.206,0.228-0.348,0.217-1.206c-0.033-1.488,0.076-1.466,0.945,0.217c0.652,1.282,1.065,1.738,1.575,1.738  c0.782,0,0.934-0.348,0.684-1.629c-0.087-0.489-0.141-0.923-0.109-0.956c0.13-0.12,0.413,0.271,0.836,1.162  c0.478,1.021,0.728,1.336,1.195,1.532c0.782,0.326,1.238-0.261,1.13-1.445c-0.065-0.63-0.054-0.663,0.109-0.456  c0.098,0.12,0.38,0.598,0.619,1.065c0.489,0.945,0.76,1.173,1.347,1.195c0.554,0.011,0.728-0.25,0.63-0.978  c-0.087-0.75,0.076-0.75,0.478-0.011c0.369,0.706,0.804,1.173,1.086,1.173c0.12,0,0.358-0.141,0.51-0.315  c0.293-0.304,0.315-0.315,1.195-0.25c0.815,0.043,0.912,0.032,1.13-0.185c0.185-0.185,0.206-0.282,0.119-0.445  c-0.163-0.304-0.749-0.706-1.282-0.869c-0.5-0.152-0.543-0.228-0.282-0.445c0.304-0.25,0.391-0.641,0.206-0.923  c-0.13-0.206-0.261-0.261-0.619-0.261c-0.25,0-0.608,0.054-0.815,0.13c-0.456,0.163-0.554,0.054-0.315-0.369  c0.109-0.185,0.239-0.5,0.293-0.717c0.076-0.337,0.043-0.424-0.228-0.684c-0.174-0.174-0.402-0.315-0.521-0.315  c-0.109,0-0.424,0.239-0.695,0.543c-0.272,0.293-0.543,0.543-0.608,0.543c-0.065,0-0.022-0.272,0.12-0.663l0.239-0.652l-0.261-0.217  c-0.402-0.337-0.945-0.25-1.477,0.239c-0.206,0.185-0.815,0.402-0.815,0.282c0-0.022,0.076-0.228,0.163-0.435  c0.239-0.565,0.206-0.815-0.152-1.173c-0.239-0.228-0.424-0.315-0.717-0.315c-0.348,0-0.5,0.098-1.13,0.706  c-0.717,0.695-1.184,0.912-1.065,0.51c0.391-1.369,0.369-1.695-0.174-1.955c-0.25-0.119-0.358-0.109-0.771,0.065  c-0.261,0.12-0.684,0.445-0.945,0.728c-0.88,0.934-1.575,1.173-1.293,0.445c0.25-0.673,0.065-1.151-0.521-1.292  c-0.38-0.087-0.945,0.119-1.347,0.5c-0.521,0.5-1.075,0.945-1.184,0.945c-0.054,0-0.098-0.119-0.098-0.271s-0.087-0.315-0.206-0.38  c-0.445-0.228-0.706-0.12-1.369,0.576c-0.619,0.652-1.434,1.314-1.347,1.097c0.043-0.098,0.641-1.173,1.836-3.302  c0.282-0.51,0.847-1.619,1.249-2.477c0.511-1.065,0.782-1.51,0.858-1.434c0.054,0.054,0.195,0.109,0.304,0.109  c0.456,0,0.804,0.315,1.151,1.01c0.391,0.826,0.771,1.162,1.282,1.162c0.272,0,0.424-0.076,0.597-0.326  c0.13-0.174,0.282-0.293,0.337-0.261s0.261,0.391,0.456,0.782c0.456,0.902,0.717,1.151,1.217,1.151c0.521,0,0.706-0.239,0.847-1.097  c0.065-0.402,0.163-0.739,0.228-0.739c0.054,0,0.315,0.51,0.565,1.13c0.532,1.325,0.739,1.575,1.282,1.575  c0.587,0,0.771-0.282,0.804-1.293c0.011-0.12,0.054-0.282,0.109-0.369c0.163-0.25,0.402,0.022,0.815,0.902  c0.467,0.999,0.706,1.282,1.086,1.282c0.489,0,0.663-0.261,0.652-0.999c-0.011-0.489,0.022-0.652,0.141-0.652  c0.174,0,0.608,0.913,0.847,1.76c0.456,1.695,1.673,1.825,1.868,0.196l0.065-0.587l0.239,0.706c0.348,1.021,0.554,1.38,0.934,1.564  c0.663,0.348,1.195,0.011,1.336-0.847c0.087-0.5,0.206-0.445,0.5,0.228c0.369,0.826,1.065,1.434,1.651,1.434  c0.38,0,0.739-0.293,0.739-0.608c0-0.228,0.043-0.261,0.434-0.261c0.413,0,0.869-0.282,0.869-0.532c0-0.282-0.272-0.76-0.673-1.173  l-0.456-0.467l0.239-0.25c0.315-0.337,0.304-0.739-0.033-1.054c-0.228-0.217-0.424-0.271-1.195-0.315  c-1.086-0.076-1.227-0.174-0.978-0.663c0.424-0.826-0.174-1.26-1.542-1.141l-0.804,0.076l0.076-0.282  c0.087-0.369-0.033-0.989-0.239-1.206c-0.304-0.293-0.826-0.195-1.456,0.272c-0.847,0.63-0.902,0.608-0.815-0.424  c0.065-0.782,0.054-0.88-0.152-1.086c-0.13-0.13-0.348-0.228-0.511-0.228c-0.25,0-0.999,0.456-1.814,1.108  c-0.391,0.315-0.597,0.152-0.413-0.358c0.174-0.51,0.152-1.184-0.065-1.423c-0.12-0.13-0.326-0.195-0.673-0.195  c-0.456,0-0.532,0.043-1.043,0.576c-0.293,0.326-0.63,0.619-0.75,0.663c-0.282,0.098-0.5-0.12-0.5-0.5  c0-0.206-0.109-0.435-0.315-0.641c-0.413-0.413-1.065-0.435-1.695-0.043c-0.815,0.489-1.456,0.815-1.64,0.815  c-0.098,0-0.293-0.098-0.445-0.217c-0.391-0.304-0.75-0.271-1.553,0.174c-0.391,0.206-0.934,0.478-1.206,0.587l-0.489,0.195  l0.608-1.206c0.337-0.674,1.108-2.26,1.716-3.541l1.119-2.314l0.402,0.054c0.608,0.109,1.217,0.608,1.847,1.553  c0.326,0.5,0.728,0.945,0.945,1.075l0.369,0.217l0.304-0.228c0.239-0.185,0.315-0.337,0.358-0.76  c0.043-0.445,0.098-0.543,0.293-0.565c0.195-0.033,0.304,0.109,0.673,0.869c0.5,1.043,0.63,1.217,1.043,1.434  c0.272,0.141,0.348,0.141,0.608,0c0.391-0.196,0.641-0.565,0.641-0.923c0-0.152,0.033-0.315,0.065-0.348  c0.12-0.119,0.478,0.141,0.478,0.337c0,0.293,0.489,1.249,0.771,1.499c0.76,0.684,1.51,0.196,1.51-0.978  c0-0.956,0.304-0.706,0.815,0.695c0.532,1.423,1.51,2.129,2.118,1.521c0.174-0.174,0.217-0.359,0.217-0.912  c0-1.162,0.195-1.075,1.336,0.641c1.162,1.749,2.031,2.216,2.422,1.293c0.087-0.196,0.152-0.565,0.152-0.804  c0-0.652,0.261-0.543,0.847,0.337c0.717,1.075,1.477,1.456,1.923,0.967c0.185-0.206,0.195-0.282,0.076-0.717  c-0.076-0.261-0.13-0.532-0.13-0.587c0-0.185,0.304-0.119,0.869,0.163c0.684,0.348,1.086,0.348,1.51-0.011  c0.348-0.293,0.413-0.565,0.228-0.923c-0.098-0.174-0.065-0.228,0.261-0.391c0.206-0.098,0.402-0.239,0.434-0.326  c0.087-0.217-0.326-0.576-0.673-0.576c-0.38,0-0.565-0.174-0.565-0.543c0-0.152-0.076-0.467-0.152-0.706  c-0.13-0.391-0.195-0.434-0.543-0.467c-0.282-0.022-0.565,0.065-1.075,0.348c-0.38,0.217-0.782,0.391-0.88,0.391  c-0.272,0-0.326-0.261-0.13-0.641c0.206-0.391,0.228-0.999,0.043-1.184c-0.261-0.261-0.88-0.141-1.662,0.315  c-0.424,0.239-0.88,0.456-1.032,0.456c-0.293,0.022-0.304-0.065-0.152-1.075c0.12-0.847-0.478-1.032-1.586-0.478  c-0.684,0.348-1.456,0.521-1.553,0.358c-0.033-0.054,0.109-0.337,0.315-0.63c0.196-0.293,0.369-0.641,0.369-0.782  c0-0.348-0.467-0.793-0.815-0.793c-0.369,0-1.553,0.5-1.944,0.836c-0.174,0.141-0.413,0.25-0.543,0.228  c-0.196-0.033-0.239-0.13-0.282-0.619c-0.109-0.989-0.63-1.13-1.944-0.5c-0.435,0.206-0.815,0.38-0.847,0.38s-0.033-0.109,0-0.239  c0.087-0.304-0.163-0.88-0.478-1.108c-0.478-0.337-1.293-0.174-1.771,0.359c-0.228,0.261-0.663,0.304-0.75,0.087  c-0.098-0.261-0.815-0.532-1.173-0.456c-0.174,0.043-0.63,0.337-0.999,0.663c-0.369,0.326-1.021,0.804-1.456,1.064l-0.782,0.478  l0.576-1.162c0.326-0.63,0.956-1.999,1.423-3.031c0.467-1.021,0.902-1.868,0.978-1.868c0.261,0,1.13,0.652,1.586,1.206  c0.956,1.151,1.249,1.401,1.608,1.401c0.532,0,0.76-0.174,0.891-0.706c0.065-0.272,0.163-0.489,0.206-0.489  c0.13,0,0.402,0.359,0.695,0.945c0.152,0.315,0.435,0.75,0.63,0.967c0.315,0.358,0.391,0.391,0.771,0.337  c0.478-0.065,0.695-0.293,0.793-0.847c0.152-0.902,0.391-0.847,1.141,0.293c0.554,0.815,0.945,1.13,1.466,1.13  c0.532,0,0.739-0.315,0.652-0.978c-0.098-0.75,0.076-0.706,0.75,0.174c0.728,0.956,1.075,1.238,1.521,1.238  c0.706,0,0.902-0.587,0.478-1.445l-0.217-0.456l0.576,0.597c0.804,0.836,1.162,1.086,1.553,1.086c0.532,0,0.75-0.217,0.663-0.663  c-0.043-0.206-0.087-0.467-0.098-0.587c-0.043-0.391,0.391-0.304,1.162,0.217c0.902,0.619,1.369,0.728,1.618,0.369  c0.13-0.174,0.163-0.369,0.109-0.663l-0.065-0.413l0.695,0.326c0.793,0.369,0.988,0.402,1.238,0.141  c0.185-0.174,0.185-0.641,0-1.195c-0.065-0.195-0.011-0.261,0.304-0.391c0.369-0.163,0.728-0.543,0.728-0.804  c0-0.228-0.337-0.467-0.663-0.467c-0.272,0-0.315-0.043-0.315-0.304c0-0.652-0.587-0.825-1.499-0.445  c-0.467,0.196-0.695,0.043-0.826-0.543c-0.065-0.293-0.195-0.521-0.358-0.63c-0.315-0.206-0.511-0.13-1.586,0.597l-0.75,0.51  l-0.206-0.261c-0.13-0.163-0.206-0.424-0.206-0.728c0-0.586-0.337-0.999-0.869-1.086c-0.326-0.054-0.565,0.033-1.445,0.489  c-0.587,0.304-1.075,0.554-1.097,0.554s-0.076-0.163-0.109-0.369c-0.043-0.206-0.163-0.489-0.272-0.63  c-0.304-0.369-0.988-0.304-2.031,0.163l-0.836,0.38l-0.174-0.337c-0.38-0.75-1.336-0.815-2.075-0.141  c-0.511,0.456-0.608,0.467-1.141,0.163c-0.315-0.185-0.511-0.228-1.086-0.185c-0.619,0.033-0.75,0.087-1.325,0.532  c-0.684,0.543-1.032,0.739-1.868,1.075l-0.554,0.217l0.543-1.075c0.608-1.217,1.716-3.802,1.999-4.66  c0.163-0.478,0.228-0.565,0.456-0.565c0.435,0,0.836,0.272,1.401,0.945c0.815,0.989,1.13,1.228,1.597,1.228  c0.565,0,0.815-0.359,0.652-0.978c-0.152-0.619,0.011-0.565,0.793,0.261c0.358,0.38,0.76,0.75,0.891,0.815  c0.597,0.304,1.336-0.011,1.336-0.565c0-0.141,0.065-0.337,0.141-0.445c0.206-0.271,0.532-0.087,0.902,0.511  c0.597,0.956,1.108,1.227,1.792,0.945c0.402-0.174,0.532-0.402,0.532-0.945c0-0.424,0.152-0.684,0.391-0.684  c0.065,0,0.293,0.261,0.511,0.587c0.402,0.608,1.075,1.043,1.618,1.043c0.402,0,0.826-0.38,0.912-0.815  c0.109-0.576,0.272-0.652,0.934-0.434c0.858,0.282,1.369,0.271,1.618-0.043c0.109-0.141,0.206-0.391,0.206-0.565  c0-0.271,0.087-0.358,0.554-0.619c0.815-0.434,1.184-0.76,1.184-1.054c0-0.271-0.358-0.597-0.652-0.597  c-0.098,0-0.293-0.13-0.424-0.282c-0.217-0.25-0.315-0.282-0.728-0.228c-0.554,0.054-0.674-0.043-0.912-0.782  c-0.163-0.489-0.174-0.5-0.652-0.532c-0.435-0.022-0.554,0.022-1.021,0.413c-0.282,0.239-0.565,0.435-0.608,0.435  s-0.185-0.217-0.315-0.489c-0.261-0.554-0.489-0.706-1.075-0.706c-0.435,0-0.804,0.217-1.303,0.76l-0.239,0.272l-0.467-0.521  c-0.337-0.38-0.554-0.532-0.858-0.576c-0.597-0.098-0.88,0.011-1.553,0.619l-0.608,0.565l-0.413-0.456  c-0.358-0.391-0.467-0.445-0.869-0.445c-0.51,0-0.695,0.076-1.369,0.597c-0.413,0.315-0.521,0.348-0.999,0.304l-0.532-0.054  l-0.804,0.804c-0.445,0.445-0.978,0.858-1.173,0.934c-0.185,0.065-0.348,0.109-0.348,0.087c0-0.011,0.391-1.151,0.869-2.52  c0.489-1.369,0.902-2.542,0.923-2.607s0.217-0.163,0.435-0.195c0.445-0.087,0.652,0.022,1.836,1.021  c1.032,0.869,1.76,0.858,1.825-0.022c0.043-0.652,0.25-0.641,1.043,0.065c0.717,0.641,1.26,0.88,1.749,0.771  c0.424-0.087,0.587-0.304,0.652-0.847c0.033-0.239,0.12-0.456,0.196-0.478c0.065-0.022,0.315,0.119,0.543,0.326  c0.228,0.206,0.521,0.424,0.652,0.5c0.261,0.13,0.782,0.163,1.065,0.054c0.261-0.109,0.521-0.673,0.435-0.988  c-0.12-0.478,0.109-0.597,0.988-0.521c1.217,0.12,1.89-0.293,1.89-1.162c0-0.315,0.065-0.445,0.293-0.597  c0.956-0.652,1.227-1.206,0.793-1.608c-0.206-0.185-0.282-0.196-0.858-0.076c-0.88,0.185-0.967,0.174-1.39-0.196  c-0.5-0.434-0.858-0.424-1.988,0.109c-0.511,0.239-1.043,0.435-1.184,0.435s-0.445-0.163-0.673-0.38  c-0.673-0.608-1.173-0.5-2.205,0.456c-0.434,0.402-0.663,0.554-0.695,0.456c-0.119-0.38-0.5-0.641-0.934-0.641  c-0.38,0-0.5,0.065-0.923,0.521c-0.576,0.608-0.858,0.782-1.282,0.782c-0.195,0.011-0.565,0.206-1.064,0.587  c-0.424,0.326-0.771,0.576-0.782,0.565c-0.076-0.076,1.01-3.65,1.119-3.693c0.065-0.022,0.337-0.076,0.608-0.12  c0.435-0.065,0.521-0.043,0.967,0.315c1.325,1.064,2.542,1.227,2.64,0.337c0.054-0.521,0.369-0.652,1.26-0.5  c1.108,0.174,1.282,0.163,1.64-0.196c0.239-0.25,0.315-0.424,0.315-0.75c0-0.51,0.087-0.565,0.988-0.565  c1.303,0,1.879-0.554,1.532-1.477l-0.174-0.467l0.673-0.63c0.587-0.554,0.673-0.684,0.673-1.032c0-0.565-0.521-0.706-1.13-0.315  l-0.326,0.217l-0.358-0.326c-0.565-0.489-0.858-0.434-1.847,0.391c-0.826,0.695-0.999,0.76-1.553,0.608l-0.272-0.076l0.337-0.195  c0.358-0.217,0.695-0.684,0.695-0.967c0-0.228,0.391-0.489,0.923-0.63c0.869-0.228,1.347-0.793,1.141-1.336  c-0.141-0.391-0.054-0.543,0.521-0.967c0.554-0.391,0.967-1.032,0.858-1.303c-0.119-0.315-0.597-0.337-1.227-0.076  c-0.402,0.163-0.684,0.217-0.891,0.163c-1.141-0.293-1.716-0.152-2.194,0.532c-0.163,0.25-0.38,0.521-0.467,0.597  c-0.141,0.109-0.152,0.076-0.076-0.272c0.109-0.467,0.445-0.858,0.988-1.141c0.217-0.109,0.532-0.359,0.695-0.554  c0.239-0.282,0.282-0.424,0.228-0.717c-0.043-0.282,0.022-0.532,0.282-1.01c0.261-0.521,0.304-0.673,0.195-0.804  c-0.217-0.261-0.587-0.185-1.097,0.217c-0.435,0.348-0.521,0.369-1.021,0.315c-0.76-0.076-1.217,0.185-1.597,0.945  c-0.282,0.565-0.304,0.576-0.728,0.543c-0.554-0.033-0.728,0.206-0.88,1.271C66.348,17.293,66,18.13,65.794,18.13  c-0.076,0-0.098-0.163-0.054-0.467c0.033-0.25,0.087-0.978,0.13-1.619c0.043-0.63,0.098-1.195,0.141-1.249  c0.196-0.293,0.815-0.576,1.488-0.684c1.173-0.185,1.64-0.489,1.814-1.195c0.033-0.152,0.315-0.456,0.63-0.695l0.554-0.413  l-0.065-0.587c-0.054-0.5-0.022-0.673,0.206-1.13c0.315-0.619,0.337-0.793,0.119-0.967c-0.206-0.174-0.771,0.065-1.184,0.5  c-0.272,0.293-0.358,0.326-0.771,0.282c-0.261-0.033-0.565,0-0.684,0.054c-0.185,0.098-0.272,0.065-0.554-0.228  c-0.413-0.424-0.413-0.456-0.13-1.065c0.337-0.76,0.293-1.249-0.163-1.684c-0.348-0.315-0.38-0.413-0.38-0.934  c0-0.348-0.065-0.674-0.174-0.826c-0.195-0.282-0.25-0.293-0.576-0.065c-0.348,0.25-0.554,0.804-0.554,1.51  c0,0.489-0.043,0.641-0.25,0.815c-0.13,0.119-0.369,0.337-0.543,0.489c-0.369,0.326-0.369,0.608,0,1.325l0.282,0.576l-0.282,0.228  c-0.489,0.38-0.391,0.978,0.293,1.727c0.261,0.293,0.272,0.326,0.065,0.163c-0.652-0.51-0.978-0.88-1.097-1.238  c-0.174-0.532-0.369-0.739-0.815-0.826c-0.206-0.032-0.641-0.282-0.967-0.543c-0.326-0.272-0.663-0.489-0.75-0.489  c-0.261,0-0.391,0.282-0.38,0.771c0.011,0.261-0.043,0.63-0.119,0.815c-0.206,0.478-0.065,0.836,0.434,1.173  c0.391,0.25,0.435,0.337,0.435,0.728c0,0.337,0.076,0.511,0.315,0.76c0.174,0.174,0.424,0.315,0.554,0.315  c0.445,0,0.652,0.196,0.652,0.63c0,0.684,0.337,0.912,1.151,0.825c0.75-0.087,0.967,0.098,0.923,0.782  c-0.033,0.728-0.304,2.759-0.369,2.835c-0.076,0.076-0.293-0.706-0.293-1.064c0-0.413-0.206-0.967-0.521-1.39  c-0.239-0.315-0.315-0.358-0.63-0.304c-0.445,0.076-0.576-0.109-0.565-0.76c0.011-0.771-0.489-1.336-1.173-1.336  c-0.174,0-0.5-0.217-0.967-0.652c-0.543-0.5-0.782-0.652-1.032-0.652c-0.261,0-0.358,0.065-0.445,0.293  c-0.065,0.174-0.087,0.456-0.065,0.652c0.054,0.282,0.011,0.38-0.206,0.521c-0.435,0.282-0.358,0.815,0.185,1.347  c0.369,0.348,0.424,0.456,0.337,0.63c-0.065,0.12-0.25,0.217-0.467,0.228c-0.206,0.022-0.478,0.098-0.608,0.185  c-0.315,0.206-0.663,0.206-1.173-0.011c-0.532-0.217-1.065-0.119-1.303,0.239c-0.098,0.152-0.272,0.369-0.391,0.489  c-0.109,0.109-0.206,0.282-0.206,0.38c0,0.282,0.587,0.782,1.075,0.912c0.456,0.119,0.467,0.13,0.402,0.5  c-0.065,0.304-0.033,0.413,0.195,0.641c0.228,0.228,0.369,0.272,0.934,0.272h0.663l-0.217,0.282  c-0.304,0.38-0.282,0.641,0.054,0.978c0.261,0.271,0.304,0.282,1.151,0.206l0.88-0.076l-0.076,0.293  c-0.196,0.793,0.391,1.238,1.771,1.347c1.075,0.098,1.141,0.12,1.369,0.565c0.163,0.293,0.152,0.38-0.12,1.271  c-0.511,1.705-0.565,1.858-0.576,1.51c-0.011-0.315-0.348-0.728-0.597-0.728c-0.293,0-0.5-0.456-0.5-1.086  c0-0.369-0.065-0.695-0.174-0.847c-0.195-0.282-0.641-0.315-0.988-0.076c-0.413,0.282-0.576,0.109-0.576-0.619  c0-0.532-0.043-0.684-0.272-0.902c-0.337-0.348-0.674-0.348-1.043,0.011c-0.38,0.369-0.532,0.261-0.532-0.358  c0-0.315-0.065-0.576-0.185-0.706c-0.217-0.25-0.782-0.25-1.195-0.011c-0.358,0.206-0.815,0.13-1.065-0.163  c-0.5-0.576-0.619-0.673-0.88-0.673c-0.152,0-0.576,0.152-0.934,0.348c-0.641,0.337-0.663,0.348-0.978,0.163  c-0.239-0.141-0.369-0.152-0.532-0.076c-0.261,0.141-0.261,0.196,0,0.782c0.239,0.565,0.543,0.847,1.13,1.075  c0.348,0.12,0.445,0.217,0.424,0.38c-0.022,0.109-0.043,0.369-0.054,0.554c-0.022,0.293-0.054,0.348-0.217,0.293  c-0.109-0.032-0.315,0.011-0.456,0.109c-0.141,0.098-0.326,0.174-0.402,0.174c-0.076,0-0.413-0.293-0.75-0.652  c-0.728-0.793-0.945-0.826-1.51-0.217c-0.217,0.239-0.456,0.434-0.521,0.434c-0.065,0-0.217-0.141-0.348-0.315  c-0.293-0.424-0.608-0.521-0.88-0.271c-0.293,0.271-0.261,0.782,0.076,1.14c0.272,0.282,0.272,0.304,0.098,0.565  c-0.163,0.261-0.163,0.304,0,0.619c0.098,0.185,0.261,0.369,0.358,0.402c0.098,0.033,0.348,0.13,0.532,0.206l0.358,0.141  l-0.272,0.293c-0.315,0.348-0.337,0.652-0.076,0.999c0.261,0.337,0.869,0.456,1.89,0.38c0.576-0.043,0.847-0.022,0.847,0.054  c0,0.163-0.652,0.793-0.76,0.728c-0.043-0.022-0.337,0.022-0.641,0.12c-0.315,0.087-0.652,0.13-0.75,0.098  c-0.098-0.033-0.391-0.348-0.652-0.706c-0.565-0.771-1.097-1.01-1.684-0.771c-0.75,0.304-0.912,0.282-1.434-0.196  c-0.532-0.489-0.815-0.554-1.13-0.239c-0.174,0.174-0.304,0.206-0.619,0.152c-0.315-0.054-0.434-0.022-0.543,0.13  c-0.261,0.359-0.163,0.63,0.413,1.173l0.565,0.521l-0.185,0.315c-0.272,0.456-0.228,0.836,0.13,1.206  c0.358,0.348,0.587,0.38,1.412,0.185c0.304-0.065,0.576-0.098,0.608-0.065c0.033,0.033-0.054,0.25-0.217,0.467  c-0.663,0.988-0.011,1.912,1.065,1.51c0.912-0.348,1.836-0.293,1.151,0.065c-0.326,0.174-0.532,0.728-0.413,1.086  c0.109,0.304,0.608,0.652,0.934,0.652c0.12,0,0.5-0.098,0.847-0.217c0.587-0.196,1.032-0.207,1.032-0.022  c0,0.043-0.152,0.293-0.326,0.565c-0.348,0.521-0.391,0.793-0.217,1.249c0.174,0.467,0.565,0.532,1.303,0.217  c0.684-0.282,1.043-0.337,1.304-0.163c0.13,0.087,0.13,0.152-0.033,0.489c-0.261,0.554-0.239,0.988,0.098,1.314  c0.293,0.304,0.391,0.304,1.586,0.033c0.5-0.109,0.76-0.12,1.227-0.022c0.554,0.12,1.901,0.652,1.901,0.76  c0,0.065-2.911,6.344-2.965,6.409c-0.033,0.033-0.152-0.109-0.261-0.315c-0.163-0.304-0.195-0.63-0.195-2.259  c-0.011-1.716-0.033-1.934-0.217-2.194c-0.282-0.38-0.608-0.521-1.195-0.521c-0.619,0-0.728-0.185-0.565-0.945  c0.152-0.739,0.022-1.119-0.456-1.358c-0.337-0.163-0.413-0.174-0.76-0.022c-0.206,0.087-0.467,0.228-0.554,0.315  c-0.391,0.358-0.543,0.098-0.543-0.934c0-0.728-0.163-1.26-0.435-1.401c-0.326-0.174-0.847-0.13-1.314,0.109  c-0.239,0.13-0.478,0.196-0.532,0.163c-0.054-0.032-0.196-0.391-0.326-0.804c-0.12-0.402-0.326-0.836-0.467-0.967  c-0.293-0.271-0.793-0.304-1.097-0.076c-0.402,0.304-0.673,0.195-1.173-0.467c-0.63-0.815-1.075-0.956-1.695-0.521l-0.424,0.293  l-0.511-0.228c-0.619-0.261-1.13-0.282-1.456-0.054c-0.217,0.152-0.282,0.152-0.749-0.011c-0.402-0.141-0.587-0.152-0.826-0.054  c-0.402,0.163-0.38,0.456,0.087,0.902c0.293,0.272,0.369,0.424,0.326,0.608c-0.109,0.424,0.217,0.847,0.782,1.064  c0.771,0.282,0.891,0.413,0.608,0.717c-0.554,0.608-0.63,1.249-0.185,1.597c0.261,0.206,0.38,0.217,1.249,0.152  c1.054-0.076,1.119-0.033,0.804,0.511c-0.25,0.445-0.206,0.934,0.12,1.184c0.358,0.282,0.902,0.293,1.618,0.022  c0.293-0.109,0.652-0.239,0.793-0.282l0.25-0.076l-0.217,0.445c-0.326,0.63-0.304,1.238,0.054,1.521  c0.402,0.315,0.619,0.293,1.412-0.152c0.673-0.38,1.13-0.489,1.13-0.271c0,0.065-0.098,0.304-0.206,0.521  c-0.326,0.63-0.38,1.141-0.185,1.521c0.293,0.576,0.619,0.565,1.51-0.043c0.847-0.587,1.227-0.467,0.836,0.25  c-0.239,0.456-0.282,1.086-0.076,1.347c0.337,0.434,0.608,0.467,1.39,0.152c0.826-0.337,1.043-0.315,1.043,0.119  c0,0.435,0.348,0.652,1.13,0.739c0.576,0.065,0.988,0.185,1.162,0.348c0.076,0.054-3.27,6.561-3.346,6.506  c-0.163-0.098-0.358-1.086-0.369-1.836c0-0.424,0.043-1.336,0.087-2.031l0.098-1.249l-0.358-0.402c-0.456-0.532-0.782-0.532-1.325,0  l-0.402,0.391l-0.12-0.293c-0.054-0.163-0.109-0.619-0.109-1.021c-0.011-1.684-0.836-2.238-1.857-1.26  c-0.337,0.326-0.402,0.359-0.521,0.217c-0.076-0.098-0.174-0.597-0.217-1.119s-0.141-1.065-0.206-1.195  c-0.185-0.337-0.565-0.576-0.912-0.576c-0.326,0-0.391,0.065-0.641,0.706c-0.326,0.793-0.717,0.467-1.238-1.043  c-0.315-0.923-0.815-1.195-1.39-0.75c-0.152,0.12-0.337,0.391-0.402,0.597c-0.065,0.206-0.174,0.38-0.228,0.38  s-0.326-0.391-0.597-0.869c-0.88-1.51-1.521-1.803-1.944-0.902c-0.25,0.554-0.554,0.608-0.934,0.174  c-0.695-0.771-1.065-1.119-1.206-1.119c-0.293,0-0.739,0.435-0.739,0.717c0,0.348-0.174,0.326-0.695-0.065  c-0.445-0.337-0.912-0.413-1.13-0.196c-0.206,0.206-0.152,0.641,0.109,0.923c0.228,0.25,0.228,0.271,0.054,0.565  c-0.369,0.641-0.12,1.086,0.869,1.532c0.369,0.174,0.684,0.358,0.684,0.424c0,0.054-0.163,0.206-0.369,0.326  c-0.424,0.261-0.717,0.663-0.717,0.978c0,0.304,0.5,0.858,0.847,0.934c0.174,0.033,0.619-0.011,0.999-0.098  c0.391-0.098,0.847-0.174,1.021-0.174h0.304l-0.38,0.424c-0.532,0.587-0.641,0.836-0.565,1.217c0.076,0.337,0.587,0.75,0.945,0.75  c0.098,0,0.489-0.152,0.869-0.326c0.749-0.359,1.293-0.489,1.553-0.391c0.141,0.054,0.12,0.13-0.152,0.478  c-0.489,0.597-0.532,0.988-0.174,1.412c0.358,0.434,0.782,0.456,1.662,0.087c0.673-0.282,1.466-0.445,1.64-0.348  c0.054,0.043-0.065,0.348-0.272,0.684c-0.478,0.793-0.478,1.14,0,1.618c0.456,0.456,0.836,0.478,1.847,0.098  c0.402-0.152,0.891-0.272,1.097-0.272h0.38l-0.38,0.554c-0.413,0.608-0.478,1.01-0.217,1.499c0.282,0.554,0.587,0.576,1.879,0.109  c1.195-0.424,1.944-0.402,2.868,0.065c0.348,0.174,0.63,0.348,0.63,0.391c0,0.119-3.487,7.158-3.541,7.158  c-0.033,0-0.022-0.793,0.022-1.771c0.065-1.629,0.054-1.781-0.13-1.966c-0.152-0.163-0.304-0.185-0.771-0.141  c-0.543,0.054-0.576,0.043-0.641-0.217c-0.043-0.152-0.043-0.576-0.011-0.945c0.163-1.76-0.456-2.39-1.76-1.803  c-0.261,0.12-0.511,0.217-0.554,0.217c-0.109,0-0.293-0.478-0.434-1.108c-0.163-0.749-0.326-1.043-0.728-1.293  c-0.445-0.282-0.706-0.206-1.304,0.358c-0.25,0.25-0.521,0.413-0.597,0.38c-0.087-0.022-0.293-0.413-0.456-0.847  c-0.402-1.054-0.673-1.477-1.032-1.662c-0.424-0.228-0.836-0.098-1.217,0.38c-0.185,0.239-0.424,0.424-0.532,0.424  c-0.272,0-0.597-0.434-0.869-1.173c-0.521-1.38-1.401-1.673-2.27-0.739c-0.326,0.348-0.5,0.261-1.119-0.554  c-0.576-0.76-0.945-0.934-1.532-0.728c-0.565,0.206-0.576,0.206-0.728-0.174c-0.304-0.739-0.912-1.054-1.369-0.706  c-0.293,0.217-0.456,0.206-0.826-0.109c-0.337-0.282-0.728-0.348-1.075-0.163c-0.272,0.152-0.272,0.663,0,1.26l0.195,0.434  l-0.25,0.304c-0.141,0.163-0.261,0.413-0.261,0.554c0,0.282,0.358,0.597,0.684,0.597c0.109,0,0.348,0.076,0.532,0.174  c0.293,0.152,0.315,0.206,0.261,0.51c-0.185,0.945-0.195,1.347-0.033,1.738c0.152,0.337,0.228,0.402,0.51,0.402  c0.185,0,0.489-0.076,0.663-0.174c0.391-0.196,0.847-0.163,0.999,0.076c0.076,0.13,0.033,0.282-0.185,0.597  c-0.391,0.586-0.38,1.151,0.033,1.575c0.434,0.424,0.836,0.413,1.825-0.076c0.695-0.348,0.836-0.38,1.075-0.272  c0.391,0.174,0.413,0.359,0.109,0.978c-0.391,0.75-0.38,1.434,0,1.738c0.348,0.272,0.543,0.239,1.716-0.337  c0.978-0.467,1.065-0.478,1.26-0.25c0.12,0.141,0.12,0.315,0.011,0.902c-0.141,0.793-0.054,1.238,0.293,1.499  c0.304,0.239,0.706,0.174,1.847-0.282c1.184-0.478,1.445-0.521,1.662-0.261c0.109,0.13,0.109,0.293,0.011,0.793  c-0.206,0.967-0.163,1.553,0.12,1.977c0.348,0.521,0.836,0.554,1.781,0.098c0.467-0.228,0.793-0.326,0.967-0.282  c0.239,0.065,0.261,0.13,0.261,0.641c0,0.348,0.065,0.663,0.174,0.826c0.217,0.304,0.554,0.272,1.597-0.13  c0.88-0.348,1.184-0.413,1.369-0.304c0.174,0.109-0.098,0.63-1.836,3.595c-0.576,0.988-1.39,2.39-1.803,3.117  c-0.608,1.075-0.771,1.293-0.858,1.141c-0.141-0.261-0.13-1.336,0.054-3.172c0.141-1.477,0.141-1.597-0.043-1.879  c-0.25-0.369-0.532-0.369-0.956-0.022c-0.174,0.152-0.369,0.271-0.424,0.271c-0.206,0-0.413-0.532-0.489-1.249  c-0.163-1.694-0.836-2.292-1.771-1.564c-0.576,0.456-0.804,0.185-1.01-1.184c-0.152-1.032-0.478-1.434-1.141-1.434  c-0.337,0-0.5,0.076-0.793,0.38c-0.206,0.206-0.435,0.38-0.521,0.38c-0.076,0-0.239-0.228-0.358-0.521  c-0.587-1.39-0.815-1.803-1.13-1.999c-0.478-0.282-0.76-0.239-1.238,0.185c-0.228,0.206-0.5,0.38-0.597,0.38  c-0.098,0-0.337-0.228-0.532-0.51c-0.869-1.293-1.358-1.51-1.857-0.847c-0.163,0.206-0.326,0.38-0.369,0.38  s-0.315-0.195-0.608-0.434c-0.521-0.435-0.988-0.554-1.217-0.326c-0.065,0.065-0.282-0.022-0.63-0.271  c-0.652-0.456-0.902-0.543-1.097-0.38c-0.261,0.217-0.185,0.63,0.185,1.151c0.304,0.424,0.326,0.51,0.217,0.75  c-0.326,0.706-0.109,1.086,0.836,1.51c0.239,0.12,0.445,0.261,0.445,0.337c0,0.065-0.163,0.282-0.369,0.478  c-0.478,0.456-0.695,1.173-0.5,1.64c0.196,0.456,0.717,0.587,1.575,0.38c0.358-0.087,0.858-0.152,1.119-0.163h0.478l-0.489,0.565  c-0.587,0.695-0.804,1.358-0.597,1.803c0.217,0.456,0.684,0.445,1.282-0.022c0.608-0.478,1.466-0.793,1.684-0.608  c0.119,0.098,0.087,0.239-0.185,0.836c-0.402,0.847-0.456,1.749-0.141,2.096c0.326,0.358,0.782,0.271,1.618-0.282  c0.695-0.467,1.39-0.75,1.521-0.619c0.033,0.033-0.022,0.239-0.109,0.456c-0.467,1.075-0.597,2.085-0.315,2.607  c0.282,0.554,0.782,0.586,1.749,0.13c0.369-0.174,0.826-0.348,1.021-0.391l0.348-0.076l-0.065,0.413  c-0.196,1.249-0.206,1.456-0.022,1.727c0.282,0.424,0.771,0.369,1.412-0.163c0.282-0.239,0.608-0.434,0.717-0.434  c0.217,0,0.652,0.478,0.652,0.717c0,0.076,0.12,0.228,0.272,0.326c0.304,0.195,0.576,0.141,1.141-0.239  c0.206-0.141,0.51-0.261,0.684-0.261h0.293l-0.206,0.402c-0.109,0.228-0.521,0.934-0.902,1.564c-0.369,0.63-1.075,1.912-1.553,2.846  c-0.478,0.934-0.902,1.705-0.934,1.705c-0.141,0-0.337-1.314-0.282-1.814c0.185-1.575,0.196-1.727,0.054-1.988  c-0.206-0.38-0.858-0.521-1.358-0.282c-0.206,0.098-0.424,0.152-0.478,0.12c-0.054-0.043-0.098-0.369-0.098-0.739  c0-0.858-0.152-1.39-0.5-1.814c-0.337-0.391-0.728-0.424-1.293-0.098c-0.358,0.217-0.402,0.217-0.576,0.054  c-0.109-0.087-0.304-0.478-0.445-0.869c-0.13-0.38-0.402-0.869-0.608-1.086c-0.478-0.521-0.88-0.521-1.586,0l-0.532,0.391  l-0.424-0.912c-0.521-1.119-0.815-1.401-1.499-1.466c-0.619-0.065-0.826,0.109-1.043,0.847c-0.195,0.684-0.445,0.641-0.999-0.174  c-0.445-0.663-0.967-1.032-1.445-1.032c-0.261,0-0.912,0.554-1.021,0.869c-0.043,0.13-0.119,0.098-0.337-0.141  c-0.185-0.185-0.391-0.293-0.587-0.293c-0.358,0-0.793,0.271-0.793,0.478c0,0.185-0.239,0.282-0.706,0.282  c-0.858,0-1.097,0.826-0.326,1.151c0.38,0.152,0.478,0.304,0.272,0.424c-0.152,0.098-0.13,0.456,0.022,0.565  c0.076,0.043,0.38,0.109,0.673,0.141l0.532,0.054l0.022,0.597c0.022,0.695,0.185,1.054,0.543,1.195  c0.315,0.12,0.619,0.033,1.282-0.369c0.282-0.174,0.543-0.293,0.565-0.261c0.022,0.022-0.076,0.304-0.228,0.63  c-0.152,0.326-0.304,0.826-0.337,1.097c-0.054,0.424-0.022,0.543,0.174,0.739c0.348,0.348,0.999,0.304,1.912-0.13  c0.424-0.206,0.902-0.402,1.075-0.445l0.315-0.076l-0.391,0.435c-0.543,0.597-0.728,0.999-0.728,1.586  c0,0.413,0.054,0.565,0.315,0.826c0.5,0.5,0.945,0.391,2.053-0.521c0.576-0.456,1.119-0.608,1.271-0.358  c0.033,0.065-0.109,0.456-0.315,0.88c-0.217,0.434-0.391,0.934-0.391,1.13c0,0.858,0.891,0.934,2.107,0.163  c0.478-0.304,0.902-0.478,1.217-0.521c0.261-0.022,0.478-0.022,0.478,0.011c0,0.022-0.098,0.261-0.217,0.521  c-0.511,1.13-0.109,2.129,0.815,2.02c0.25-0.022,0.652-0.174,0.912-0.337c0.619-0.391,1.238-0.608,1.749-0.608  c0.804,0,0.804,0,0.054,1.575c-0.673,1.412-1.304,3.02-2.02,5.214l-0.348,1.075l-0.206-0.587c-0.12-0.326-0.261-1.086-0.315-1.684  c-0.163-1.673-0.489-2.162-1.271-1.912c-0.239,0.087-0.478,0.12-0.543,0.076c-0.065-0.033-0.239-0.456-0.402-0.934  c-0.337-1.021-0.782-1.575-1.162-1.467c-0.141,0.043-0.402,0.25-0.597,0.467c-0.293,0.348-0.358,0.369-0.521,0.239  c-0.098-0.076-0.282-0.337-0.402-0.576c-0.119-0.239-0.435-0.673-0.706-0.956c-0.413-0.445-0.565-0.532-0.88-0.532  s-0.467,0.087-0.826,0.489c-0.51,0.543-0.38,0.565-1.51-0.25c-0.717-0.51-1.065-0.554-1.369-0.174  c-0.206,0.261-0.228,0.391-0.174,0.771c0.076,0.543,0.022,0.565-0.597,0.25c-0.728-0.369-1.629-0.196-1.629,0.326  c0,0.119-0.054,0.326-0.119,0.467c-0.098,0.217-0.217,0.282-0.673,0.326c-0.402,0.033-0.608,0.12-0.75,0.293  C21.03,79.198,20.943,79.339,20.943,79.382z M67.499,19.064c-0.054,0.217-0.13,0.261-0.489,0.261c-0.521,0-0.717,0.206-0.869,0.978  c-0.141,0.674-0.435,1.238-0.75,1.401c-0.196,0.098-0.196,0.076-0.065-0.728c0.065-0.456,0.163-1.119,0.196-1.456  c0.076-0.565,0.109-0.619,0.413-0.728c0.196-0.065,0.597-0.152,0.912-0.185C67.467,18.531,67.608,18.629,67.499,19.064z   M64.219,25.809c-0.011-0.011,0.13-0.608,0.326-1.325c0.196-0.717,0.391-1.434,0.435-1.608c0.087-0.358,0.435-0.391,0.956-0.076  c0.228,0.141,0.554,0.217,0.891,0.217c0.5,0,0.576-0.033,0.999-0.489c0.337-0.369,0.565-0.521,0.869-0.565l0.413-0.065l-0.348,0.315  c-0.195,0.174-0.51,0.554-0.706,0.858c-0.337,0.521-0.369,0.543-0.978,0.608c-0.684,0.076-0.902,0.217-1.401,0.945  C65.414,24.995,64.306,25.907,64.219,25.809z M64.089,22.322c-0.163-0.358-0.478-1.923-0.402-1.999  c0.033-0.032,0.163-0.076,0.293-0.098s0.337-0.13,0.467-0.239c0.597-0.543,0.608-0.434,0.13,1.325  C64.251,22.485,64.208,22.572,64.089,22.322z M54.932,29.09c0.141,0.087,0.141,0.163,0.011,0.543  c-0.109,0.348-0.12,0.51-0.011,0.728c0.163,0.358,0.087,0.435-0.272,0.282c-0.174-0.087-0.38-0.358-0.554-0.75  c-0.272-0.587-0.272-0.619-0.087-0.76C54.247,28.97,54.703,28.948,54.932,29.09z M58.505,25.983l-0.13,0.489l-0.206-0.261  c-0.239-0.304-0.402-0.326-0.836-0.098c-0.293,0.152-0.337,0.152-0.532-0.043c-0.12-0.12-0.272-0.413-0.337-0.663  c-0.13-0.5-0.554-0.793-0.782-0.565c-0.337,0.337-0.804,0.065-1.086-0.63l-0.163-0.38l0.858-0.022c0.467-0.011,0.858-0.011,0.858,0  c0.011,0.011,0.033,0.228,0.043,0.489c0.054,0.815,0.587,1.151,1.662,1.043c0.402-0.043,0.673-0.033,0.717,0.043  C58.603,25.451,58.581,25.722,58.505,25.983z M60.906,31.86c-0.217-0.467-0.239-0.673-0.217-1.792l0.022-1.271l-0.337-0.282  c-0.185-0.152-0.478-0.282-0.641-0.282c-0.304,0-0.836-0.467-1.097-0.956c-0.152-0.315-0.087-0.424,0.12-0.174  c0.152,0.185,0.326,0.185,2.02-0.022c0.489-0.065,0.63-0.033,1.054,0.217c0.804,0.478,0.836,0.565,0.532,1.673  c-0.315,1.151-0.88,2.802-1.065,3.161C61.167,32.392,61.156,32.392,60.906,31.86z M58.918,37.008  c-0.174-0.445-0.185-0.663-0.098-1.629c0.12-1.369,0.098-1.521-0.348-1.999c-0.304-0.326-0.413-0.369-0.891-0.369  c-0.304,0-0.597-0.065-0.663-0.141c-0.065-0.065-0.195-0.445-0.293-0.836c-0.098-0.38-0.25-0.836-0.337-0.999l-0.163-0.304h0.543  h0.532l-0.228,0.554c-0.217,0.5-0.217,0.565-0.065,0.836c0.13,0.25,0.25,0.304,0.684,0.326c0.282,0.022,0.782-0.043,1.108-0.152  c0.847-0.261,1.586-0.174,1.999,0.25l0.326,0.326l-0.75,1.836c-0.413,1.01-0.847,2.053-0.956,2.324l-0.217,0.478L58.918,37.008z"/><text x="0" y="115" fill="#000000" font-size="5px" font-weight="bold" font-family="'Helvetica Neue', Helvetica, Arial-Unicode, Arial, Sans-serif">Created by Laymik</text><text x="0" y="120" fill="#000000" font-size="5px" font-weight="bold" font-family="'Helvetica Neue', Helvetica, Arial-Unicode, Arial, Sans-serif">from the Noun Project</text></svg>