<svg width="1237" height="586" viewBox="0 0 1237 586" fill="none" xmlns="http://www.w3.org/2000/svg">
<path d="M341.396 370.597C364.735 381.337 391.334 379.003 391.334 379.003C391.334 379.003 466.001 363.128 453.865 280.533C441.73 197.937 391.803 140.996 391.803 140.996C391.803 140.996 382.006 189.068 373.6 215.199C365.194 241.334 346.064 267.001 346.064 267.001C346.064 267.001 335.325 282.397 326.933 274.47C318.542 266.543 343.272 235.272 343.272 235.272C343.272 235.272 391.803 147.076 373.136 112.072C342.808 61.2078 294.736 55.1396 294.736 55.1396C312.939 71.004 303.606 150.803 303.606 150.803C303.606 150.803 296.601 209.605 272.804 211.469C249.007 213.334 263.007 186.74 263.007 186.74C282.137 142.876 285.408 79.407 285.408 79.407C285.408 79.407 286.814 63.5426 279.809 48.6048C272.803 33.6722 248.075 26.667 233.606 28.0737C219.137 29.4804 176.673 23.8758 176.673 23.8758C211.204 68.2143 204.209 120.48 204.209 120.48C204.209 120.48 204.209 135.412 197.678 143.344C191.147 151.271 183.678 135.875 183.678 135.875C183.678 135.875 179.944 113.011 178.543 77.5469C177.136 42.078 156.605 28.5522 156.605 28.5522C156.605 28.5522 138.402 17.3544 110.402 22.0209C82.4019 26.6771 53.4641 8 53.4641 8C67.4641 36 28.7353 120.933 28.7353 120.933C28.7353 120.933 14.2664 154.069 20.8079 166.667C27.3496 179.261 39.9383 192.803 70.7457 197.939C101.553 203.074 135.615 200.741 135.615 200.741C135.615 200.741 161.751 196.074 176.22 203.069C190.689 210.064 170.621 223.141 170.621 223.141C170.621 223.136 152.402 232.459 107.6 233.402C62.7978 234.345 4 190.933 4 190.933C10.5312 246.933 44.1303 297.333 44.1303 297.333C55.3281 344 87.9948 380.4 87.9948 380.4C87.9948 380.4 91.7291 385.999 124.864 385.067C158.005 384.129 215.868 369.666 215.868 369.666C215.868 369.666 237.806 361.265 245.274 363.603C252.743 365.942 243.41 374.343 243.41 374.343C243.404 374.343 232.67 388.796 184.133 394.394C135.602 399.993 97.3332 399.53 97.3332 399.53C112.266 430.332 148.198 455.53 148.198 455.53C148.198 455.53 204.198 496.134 268.127 483.066C332.055 469.999 335.325 403.262 335.325 403.262L406.721 580.596L418.382 568.46C418.382 568.46 355.377 409.793 341.386 385.99C327.401 362.188 341.401 370.589 341.401 370.589L341.396 370.597ZM95.0188 156.67C95.0188 156.67 73.8889 147.06 103.764 139.8C133.639 132.545 135.29 152.852 135.29 152.852C129.586 180.987 95.0188 156.67 95.0188 156.67ZM161.185 303.927C161.185 303.927 230.784 290.657 235.555 302.5C240.321 314.344 192.664 320.157 161.185 303.927ZM290.822 430.39C282.488 439.26 266.363 437.968 264.233 436.557C263.816 436.281 263.525 435.958 263.29 435.521C261.202 431.651 257.28 400.198 281.082 385.583C298.342 374.843 302.488 397.718 302.488 397.718C304.347 403.468 302.014 418.474 290.822 430.39ZM311.02 237.175C295.838 253.514 298.556 261.899 286.015 257.587C278.832 255.113 285.874 248.378 285.874 248.378C285.874 248.378 296.389 239.321 299.525 223.394C302.671 207.467 313.218 213.457 313.218 213.457C313.213 213.462 326.197 220.837 311.02 237.175Z" fill="#E1E1E1" stroke="#E1E1E1" stroke-width="5.6" stroke-miterlimit="10"/>
<path d="M764.4 222C764.4 239 758.4 253.7 746.4 266.1C734.4 278.3 716.9 287.1 693.9 292.5C706.3 295.9 715.7 301.5 722.1 309.3C728.5 316.9 731.7 325.7 731.7 335.7C731.7 351.5 726.7 365.2 716.7 376.8C706.9 388.4 692.5 397.4 673.5 403.8C654.5 410 631.6 413.1 604.8 413.1C594.8 413.1 586.8 412.8 580.8 412.2C580.6 417.8 578.2 422 573.6 424.8C569 427.6 563.1 429 555.9 429C548.7 429 543.7 427.4 540.9 424.2C538.3 421 537.2 416.3 537.6 410.1C539.4 382.1 542.9 352.8 548.1 322.2C553.3 291.4 559.9 261.7 567.9 233.1C569.3 228.1 572.1 224.6 576.3 222.6C580.5 220.6 586 219.6 592.8 219.6C605 219.6 611.1 223 611.1 229.8C611.1 232.6 610.5 235.8 609.3 239.4C604.1 255 598.9 276.2 593.7 303C588.5 329.6 584.8 355 582.6 379.2C592.2 380 600 380.4 606 380.4C634 380.4 654.5 376.4 667.5 368.4C680.7 360.2 687.3 349.8 687.3 337.2C687.3 328.4 683.5 321 675.9 315C668.5 309 656 305.7 638.4 305.1C634.4 304.9 631.6 303.9 630 302.1C628.4 300.3 627.6 297.4 627.6 293.4C627.6 287.6 628.8 282.9 631.2 279.3C633.6 275.7 638 273.8 644.4 273.6C658.6 273.2 671.4 271.1 682.8 267.3C694.4 263.5 703.5 258.2 710.1 251.4C716.7 244.4 720 236.3 720 227.1C720 215.5 714.3 206.4 702.9 199.8C691.5 193 674 189.6 650.4 189.6C629 189.6 608.3 192.4 588.3 198C568.3 203.4 551.3 210.3 537.3 218.7C530.9 222.5 525.5 224.4 521.1 224.4C517.5 224.4 514.7 223.2 512.7 220.8C510.9 218.2 510 215 510 211.2C510 206.2 511 201.9 513 198.3C515.2 194.7 520.3 190.6 528.3 186C545.1 176.4 564.8 168.9 587.4 163.5C610 158.1 633.1 155.4 656.7 155.4C692.9 155.4 719.9 161.5 737.7 173.7C755.5 185.9 764.4 202 764.4 222ZM791.433 415.5C779.033 415.5 769.133 411 761.733 402C754.333 393 750.633 381.2 750.633 366.6C750.633 350.6 754.333 335.5 761.733 321.3C769.133 306.9 778.933 295.4 791.133 286.8C803.533 278 816.633 273.6 830.433 273.6C834.833 273.6 837.733 274.5 839.133 276.3C840.733 277.9 842.033 280.9 843.033 285.3C847.233 284.5 851.633 284.1 856.233 284.1C866.033 284.1 870.933 287.6 870.933 294.6C870.933 298.8 869.433 308.8 866.433 324.6C861.833 347.6 859.533 363.6 859.533 372.6C859.533 375.6 860.233 378 861.633 379.8C863.233 381.6 865.233 382.5 867.633 382.5C871.433 382.5 876.033 380.1 881.433 375.3C886.833 370.3 894.133 362.3 903.333 351.3C905.733 348.5 908.433 347.1 911.433 347.1C914.033 347.1 916.033 348.3 917.433 350.7C919.033 353.1 919.833 356.4 919.833 360.6C919.833 368.6 917.933 374.8 914.133 379.2C905.933 389.4 897.233 398 888.033 405C878.833 412 869.933 415.5 861.333 415.5C854.733 415.5 848.633 413.3 843.033 408.9C837.633 404.3 833.533 398.1 830.733 390.3C820.333 407.1 807.233 415.5 791.433 415.5ZM802.233 385.2C806.633 385.2 810.833 382.6 814.833 377.4C818.833 372.2 821.733 365.3 823.533 356.7L834.633 301.5C826.233 301.7 818.433 304.9 811.233 311.1C804.233 317.1 798.633 325.1 794.433 335.1C790.233 345.1 788.133 355.7 788.133 366.9C788.133 373.1 789.333 377.7 791.733 380.7C794.333 383.7 797.833 385.2 802.233 385.2ZM952.751 415.5C933.151 415.5 917.851 410 906.851 399C896.051 387.8 890.651 373.1 890.651 354.9C890.651 338.7 893.851 324.5 900.251 312.3C906.651 300.1 914.951 290.7 925.151 284.1C935.351 277.5 946.051 274.2 957.251 274.2C968.251 274.2 976.751 277.5 982.751 284.1C988.951 290.5 992.051 298.8 992.051 309C992.051 317.4 990.151 324.5 986.351 330.3C982.751 336.1 977.951 339 971.951 339C968.151 339 965.051 338.1 962.651 336.3C960.451 334.5 959.351 332 959.351 328.8C959.351 327.4 959.551 325.8 959.951 324C960.351 322.2 960.651 320.9 960.851 320.1C961.851 317.1 962.351 314.3 962.351 311.7C962.351 309.1 961.651 307.1 960.251 305.7C959.051 304.3 957.251 303.6 954.851 303.6C950.251 303.6 945.951 305.7 941.951 309.9C937.951 313.9 934.751 319.4 932.351 326.4C929.951 333.4 928.751 341.1 928.751 349.5C928.751 372.7 938.851 384.3 959.051 384.3C967.251 384.3 976.051 381.6 985.451 376.2C995.051 370.6 1004.45 362.3 1013.65 351.3C1016.05 348.5 1018.75 347.1 1021.75 347.1C1024.35 347.1 1026.35 348.3 1027.75 350.7C1029.35 353.1 1030.15 356.4 1030.15 360.6C1030.15 368.2 1028.25 374.4 1024.45 379.2C1015.05 390.8 1003.75 399.8 990.551 406.2C977.551 412.4 964.951 415.5 952.751 415.5ZM1133.4 382.8C1141.6 384.4 1145.7 388.9 1145.7 396.3C1145.7 401.3 1143.4 405.8 1138.8 409.8C1134.4 413.6 1128 415.5 1119.6 415.5C1105.2 415.5 1093.4 411.1 1084.2 402.3C1075.2 393.3 1070.7 381.6 1070.7 367.2C1070.7 359.4 1074.7 353.8 1082.7 350.4C1091.5 346.6 1097.8 342.6 1101.6 338.4C1105.4 334 1107.3 328.7 1107.3 322.5C1107.3 318.9 1106.5 316.2 1104.9 314.4C1103.5 312.6 1101.7 311.7 1099.5 311.7C1094.1 311.7 1088.1 315.6 1081.5 323.4C1075.1 331.2 1069.1 341.3 1063.5 353.7C1057.9 365.9 1053.5 378.5 1050.3 391.5C1048.1 400.9 1045.5 407.3 1042.5 410.7C1039.7 413.9 1035.2 415.5 1029 415.5C1022.8 415.5 1018.2 413.3 1015.2 408.9C1012.4 404.3 1010.5 397.3 1009.5 387.9C1008.5 378.5 1008 364.7 1008 346.5C1008 315.7 1011.1 283.6 1017.3 250.2C1023.7 216.8 1033 188.8 1045.2 166.2C1057.6 143.4 1072.4 132 1089.6 132C1098.8 132 1106.2 136 1111.8 144C1117.6 151.8 1120.5 162 1120.5 174.6C1120.5 194.8 1114.6 215.8 1102.8 237.6C1091 259.2 1071.8 284.5 1045.2 313.5C1044.6 323.9 1044.3 334.6 1044.3 345.6C1053.9 320.6 1064.9 302.5 1077.3 291.3C1089.7 279.9 1101.3 274.2 1112.1 274.2C1122.1 274.2 1130.1 277.6 1136.1 284.4C1142.3 291.2 1145.4 299.6 1145.4 309.6C1145.4 320.6 1142.6 330.7 1137 339.9C1131.4 349.1 1121.8 357.3 1108.2 364.5C1109.4 370.5 1111.8 374.7 1115.4 377.1C1119.2 379.3 1125.2 381.2 1133.4 382.8ZM1083.3 161.7C1079.7 161.7 1075.7 166.9 1071.3 177.3C1066.9 187.5 1062.6 201.4 1058.4 219C1054.4 236.4 1051.1 255.4 1048.5 276C1060.9 261.4 1071.1 245.5 1079.1 228.3C1087.3 211.1 1091.4 195.5 1091.4 181.5C1091.4 175.1 1090.7 170.2 1089.3 166.8C1087.9 163.4 1085.9 161.7 1083.3 161.7Z" fill="#E1E1E1"/>
</svg>
