<svg width="1444" height="586" viewBox="0 0 1444 586" fill="none" xmlns="http://www.w3.org/2000/svg">
<path d="M341.396 370.597C364.735 381.337 391.334 379.003 391.334 379.003C391.334 379.003 466.001 363.128 453.865 280.533C441.73 197.937 391.803 140.996 391.803 140.996C391.803 140.996 382.006 189.068 373.6 215.199C365.194 241.334 346.064 267.001 346.064 267.001C346.064 267.001 335.325 282.397 326.933 274.47C318.542 266.543 343.272 235.272 343.272 235.272C343.272 235.272 391.803 147.076 373.136 112.072C342.808 61.2078 294.736 55.1396 294.736 55.1396C312.939 71.004 303.606 150.803 303.606 150.803C303.606 150.803 296.601 209.605 272.804 211.469C249.007 213.334 263.007 186.74 263.007 186.74C282.137 142.876 285.408 79.407 285.408 79.407C285.408 79.407 286.814 63.5426 279.809 48.6048C272.803 33.6722 248.075 26.667 233.606 28.0737C219.137 29.4804 176.673 23.8758 176.673 23.8758C211.204 68.2143 204.209 120.48 204.209 120.48C204.209 120.48 204.209 135.412 197.678 143.344C191.147 151.271 183.678 135.875 183.678 135.875C183.678 135.875 179.944 113.011 178.543 77.5469C177.136 42.078 156.605 28.5522 156.605 28.5522C156.605 28.5522 138.402 17.3544 110.402 22.0209C82.4019 26.6771 53.4641 8 53.4641 8C67.4641 36 28.7353 120.933 28.7353 120.933C28.7353 120.933 14.2664 154.069 20.8079 166.667C27.3496 179.261 39.9383 192.803 70.7457 197.939C101.553 203.074 135.615 200.741 135.615 200.741C135.615 200.741 161.751 196.074 176.22 203.069C190.689 210.064 170.621 223.141 170.621 223.141C170.621 223.136 152.402 232.459 107.6 233.402C62.7978 234.345 4 190.933 4 190.933C10.5312 246.933 44.1303 297.333 44.1303 297.333C55.3281 344 87.9948 380.4 87.9948 380.4C87.9948 380.4 91.7291 385.999 124.864 385.067C158.005 384.129 215.868 369.666 215.868 369.666C215.868 369.666 237.806 361.265 245.274 363.603C252.743 365.942 243.41 374.343 243.41 374.343C243.404 374.343 232.67 388.796 184.133 394.394C135.602 399.993 97.3332 399.53 97.3332 399.53C112.266 430.332 148.198 455.53 148.198 455.53C148.198 455.53 204.198 496.134 268.127 483.066C332.055 469.999 335.325 403.262 335.325 403.262L406.721 580.596L418.382 568.46C418.382 568.46 355.377 409.793 341.386 385.99C327.401 362.188 341.401 370.589 341.401 370.589L341.396 370.597ZM95.0188 156.67C95.0188 156.67 73.8889 147.06 103.764 139.8C133.639 132.545 135.29 152.852 135.29 152.852C129.586 180.987 95.0188 156.67 95.0188 156.67ZM161.185 303.927C161.185 303.927 230.784 290.657 235.555 302.5C240.321 314.344 192.664 320.157 161.185 303.927ZM290.822 430.39C282.488 439.26 266.363 437.968 264.233 436.557C263.816 436.281 263.525 435.958 263.29 435.521C261.202 431.651 257.28 400.198 281.082 385.583C298.342 374.843 302.488 397.718 302.488 397.718C304.347 403.468 302.014 418.474 290.822 430.39ZM311.02 237.175C295.838 253.514 298.556 261.899 286.015 257.587C278.832 255.113 285.874 248.378 285.874 248.378C285.874 248.378 296.389 239.321 299.525 223.394C302.671 207.467 313.218 213.457 313.218 213.457C313.213 213.462 326.197 220.837 311.02 237.175Z" fill="black" stroke="black" stroke-width="5.6" stroke-miterlimit="10"/>
<path d="M744.3 169C750.5 170.2 755.1 172.3 758.1 175.3C761.3 178.3 762.9 181.8 762.9 185.8C762.9 192.4 761 197.2 757.2 200.2C753.6 203.2 747.8 204.4 739.8 203.8C721.8 202.4 707.7 201.5 697.5 201.1C687.5 200.5 674.3 200.1 657.9 199.9C650.5 236.7 643.7 273.7 637.5 310.9C635.3 324.5 633 340.3 630.6 358.3C628.2 376.1 626.6 390.5 625.8 401.5C625.4 407.3 623 411.8 618.6 415C614.2 418 608.9 419.5 602.7 419.5C596.1 419.5 591 417.9 587.4 414.7C583.8 411.5 582 407.3 582 402.1C582 397.3 582.7 389.4 584.1 378.4C585.7 367.2 587.5 355.5 589.5 343.3C591.7 331.1 593.4 320.5 594.6 311.5C596.8 296.3 599.3 281.2 602.1 266.2C604.9 251.2 607.7 237 610.5 223.6C611.1 220.6 611.8 217.2 612.6 213.4C613.4 209.4 614.3 205 615.3 200.2C595.7 200.8 580.3 202.4 569.1 205C557.9 207.6 549.9 211.3 545.1 216.1C540.5 220.7 538.2 226.7 538.2 234.1C538.2 240.9 540.2 247.4 544.2 253.6C545 255 545.4 256.5 545.4 258.1C545.4 261.9 543.1 265.5 538.5 268.9C534.1 272.1 529.5 273.7 524.7 273.7C521.3 273.7 518.5 272.7 516.3 270.7C512.3 267.3 509 262.5 506.4 256.3C503.8 249.9 502.5 242.7 502.5 234.7C502.5 217.7 508 204.1 519 193.9C530.2 183.5 547.1 175.9 569.7 171.1C592.5 166.3 621.7 163.9 657.3 163.9C679.3 163.9 696.8 164.3 709.8 165.1C723 165.9 734.5 167.2 744.3 169ZM724.062 419.5C711.662 419.5 701.762 415 694.362 406C686.962 397 683.262 385.2 683.262 370.6C683.262 354.6 686.962 339.5 694.362 325.3C701.762 310.9 711.562 299.4 723.762 290.8C736.162 282 749.262 277.6 763.062 277.6C767.462 277.6 770.362 278.5 771.762 280.3C773.362 281.9 774.662 284.9 775.662 289.3C779.862 288.5 784.262 288.1 788.862 288.1C798.662 288.1 803.562 291.6 803.562 298.6C803.562 302.8 802.062 312.8 799.062 328.6C794.462 351.6 792.162 367.6 792.162 376.6C792.162 379.6 792.862 382 794.262 383.8C795.862 385.6 797.862 386.5 800.262 386.5C804.062 386.5 808.662 384.1 814.062 379.3C819.462 374.3 826.762 366.3 835.962 355.3C838.362 352.5 841.062 351.1 844.062 351.1C846.662 351.1 848.662 352.3 850.062 354.7C851.662 357.1 852.462 360.4 852.462 364.6C852.462 372.6 850.562 378.8 846.762 383.2C838.562 393.4 829.862 402 820.662 409C811.462 416 802.562 419.5 793.962 419.5C787.362 419.5 781.262 417.3 775.662 412.9C770.262 408.3 766.162 402.1 763.362 394.3C752.962 411.1 739.862 419.5 724.062 419.5ZM734.862 389.2C739.262 389.2 743.462 386.6 747.462 381.4C751.462 376.2 754.362 369.3 756.162 360.7L767.262 305.5C758.862 305.7 751.062 308.9 743.862 315.1C736.862 321.1 731.262 329.1 727.062 339.1C722.862 349.1 720.762 359.7 720.762 370.9C720.762 377.1 721.962 381.7 724.362 384.7C726.962 387.7 730.462 389.2 734.862 389.2ZM849.38 419.5C841.78 419.5 836.38 415.5 833.18 407.5C830.18 399.5 828.68 386.7 828.68 369.1C828.68 343.1 832.38 318.4 839.78 295C841.58 289.2 844.48 285 848.48 282.4C852.68 279.6 858.48 278.2 865.88 278.2C869.88 278.2 872.68 278.7 874.28 279.7C875.88 280.7 876.68 282.6 876.68 285.4C876.68 288.6 875.18 295.8 872.18 307C870.18 315 868.58 322 867.38 328C866.18 333.8 865.18 341.1 864.38 349.9C869.78 334.3 876.18 321.1 883.58 310.3C891.18 299.5 898.88 291.5 906.68 286.3C914.68 280.9 922.18 278.2 929.18 278.2C936.18 278.2 941.08 279.8 943.88 283C946.88 286.2 948.38 291.1 948.38 297.7C948.38 304.1 946.48 315.7 942.68 332.5C941.08 339.7 939.98 345.1 939.38 348.7C949.38 324.1 960.48 306.2 972.68 295C984.88 283.8 996.28 278.2 1006.88 278.2C1019.88 278.2 1026.38 284.7 1026.38 297.7C1026.38 305.5 1024.18 319.6 1019.78 340C1015.98 357.4 1014.08 368.9 1014.08 374.5C1014.08 382.5 1016.98 386.5 1022.78 386.5C1026.78 386.5 1031.48 384.1 1036.88 379.3C1042.48 374.3 1049.88 366.3 1059.08 355.3C1061.48 352.5 1064.18 351.1 1067.18 351.1C1069.78 351.1 1071.78 352.3 1073.18 354.7C1074.78 357.1 1075.58 360.4 1075.58 364.6C1075.58 372.6 1073.68 378.8 1069.88 383.2C1061.28 393.8 1051.98 402.5 1041.98 409.3C1032.18 416.1 1020.98 419.5 1008.38 419.5C998.18 419.5 990.48 416.6 985.28 410.8C980.08 404.8 977.48 396.2 977.48 385C977.48 379.4 978.88 369.4 981.68 355C984.28 342.4 985.58 333.7 985.58 328.9C985.58 325.7 984.48 324.1 982.28 324.1C979.68 324.1 975.98 327.5 971.18 334.3C966.38 340.9 961.58 349.7 956.78 360.7C951.98 371.7 948.08 383.3 945.08 395.5C942.88 405.1 940.28 411.5 937.28 414.7C934.48 417.9 929.88 419.5 923.48 419.5C916.88 419.5 911.88 416.4 908.48 410.2C905.28 403.8 903.68 396.1 903.68 387.1C903.68 379.5 904.68 368.5 906.68 354.1C908.28 341.3 909.08 332.9 909.08 328.9C909.08 325.7 907.98 324.1 905.78 324.1C902.78 324.1 898.98 327.7 894.38 334.9C889.78 342.1 885.28 351.3 880.88 362.5C876.68 373.7 873.28 384.7 870.68 395.5C868.48 404.9 865.88 411.3 862.88 414.7C860.08 417.9 855.58 419.5 849.38 419.5ZM1165.02 351.1C1167.62 351.1 1169.62 352.3 1171.02 354.7C1172.62 357.1 1173.42 360.4 1173.42 364.6C1173.42 372.6 1171.52 378.8 1167.72 383.2C1159.12 393.8 1149.72 402.5 1139.52 409.3C1129.52 416.1 1118.12 419.5 1105.32 419.5C1087.72 419.5 1074.62 411.5 1066.02 395.5C1057.62 379.5 1053.42 358.8 1053.42 333.4C1053.42 309 1056.52 281.2 1062.72 250C1069.12 218.8 1078.42 192 1090.62 169.6C1103.02 147.2 1117.72 136 1134.72 136C1144.32 136 1151.82 140.5 1157.22 149.5C1162.82 158.3 1165.62 171 1165.62 187.6C1165.62 211.4 1159.02 239 1145.82 270.4C1132.62 301.8 1114.72 332.9 1092.12 363.7C1093.52 371.9 1095.82 377.8 1099.02 381.4C1102.22 384.8 1106.42 386.5 1111.62 386.5C1119.82 386.5 1127.02 384.2 1133.22 379.6C1139.42 374.8 1147.32 366.7 1156.92 355.3C1159.32 352.5 1162.02 351.1 1165.02 351.1ZM1128.12 165.7C1123.52 165.7 1118.32 174 1112.52 190.6C1106.72 207.2 1101.62 227.8 1097.22 252.4C1092.82 277 1090.42 300.6 1090.02 323.2C1104.22 299.8 1115.52 276.4 1123.92 253C1132.32 229.4 1136.52 207.9 1136.52 188.5C1136.52 173.3 1133.72 165.7 1128.12 165.7ZM1302.77 351.7C1305.37 351.7 1307.37 353 1308.77 355.6C1310.37 358 1311.17 361.1 1311.17 364.9C1311.17 369.5 1310.47 373.1 1309.07 375.7C1307.67 378.3 1305.47 380.6 1302.47 382.6L1244.87 421.3C1237.27 462.7 1227.27 495.2 1214.87 518.8C1202.67 542.6 1187.07 554.5 1168.07 554.5C1157.87 554.5 1149.57 551.3 1143.17 544.9C1136.77 538.7 1133.57 530.5 1133.57 520.3C1133.57 510.9 1135.67 501.3 1139.87 491.5C1144.27 481.7 1152.27 470.4 1163.87 457.6C1175.67 445 1192.27 430.5 1213.67 414.1L1214.57 407.2C1215.97 399.8 1217.57 389.2 1219.37 375.4C1215.37 389.8 1209.77 400.8 1202.57 408.4C1195.37 415.8 1187.77 419.5 1179.77 419.5C1170.77 419.5 1163.37 415.4 1157.57 407.2C1151.97 398.8 1149.17 388.4 1149.17 376C1149.17 361 1150.17 347.3 1152.17 334.9C1154.17 322.3 1157.47 309 1162.07 295C1164.07 289 1166.87 284.7 1170.47 282.1C1174.07 279.5 1179.77 278.2 1187.57 278.2C1191.97 278.2 1194.97 278.9 1196.57 280.3C1198.37 281.7 1199.27 283.8 1199.27 286.6C1199.27 288.2 1198.17 293.6 1195.97 302.8C1193.97 310.2 1192.37 316.9 1191.17 322.9C1189.57 331.1 1188.17 339 1186.97 346.6C1185.77 354 1185.17 360.1 1185.17 364.9C1185.17 372.5 1187.27 376.3 1191.47 376.3C1194.47 376.3 1198.17 373.3 1202.57 367.3C1207.17 361.3 1211.97 352.2 1216.97 340C1222.17 327.8 1227.17 312.8 1231.97 295C1233.57 289 1235.97 284.7 1239.17 282.1C1242.57 279.5 1247.57 278.2 1254.17 278.2C1258.77 278.2 1261.97 278.8 1263.77 280C1265.57 281.2 1266.47 283.2 1266.47 286C1266.47 291 1263.87 308.2 1258.67 337.6L1250.87 385.9C1266.27 374.3 1281.27 363.7 1295.87 354.1C1298.47 352.5 1300.77 351.7 1302.77 351.7ZM1171.37 525.4C1176.37 525.4 1181.97 519.6 1188.17 508C1194.37 496.4 1200.57 477.1 1206.77 450.1C1191.37 463.1 1180.17 474.9 1173.17 485.5C1166.37 496.3 1162.97 505.7 1162.97 513.7C1162.97 517.1 1163.57 519.9 1164.77 522.1C1166.17 524.3 1168.37 525.4 1171.37 525.4ZM1310.81 419.5C1303.21 419.5 1297.81 415.5 1294.61 407.5C1291.61 399.5 1290.11 386.7 1290.11 369.1C1290.11 343.1 1293.81 318.4 1301.21 295C1303.01 289.2 1305.91 285 1309.91 282.4C1314.11 279.6 1319.91 278.2 1327.31 278.2C1331.31 278.2 1334.11 278.7 1335.71 279.7C1337.31 280.7 1338.11 282.6 1338.11 285.4C1338.11 288.6 1336.61 295.8 1333.61 307C1331.61 315 1330.01 322 1328.81 328C1327.61 334 1326.61 341.4 1325.81 350.2C1332.41 333 1339.81 319 1348.01 308.2C1356.21 297.4 1364.21 289.7 1372.01 285.1C1380.01 280.5 1387.31 278.2 1393.91 278.2C1400.31 278.2 1405.11 279.9 1408.31 283.3C1411.71 286.5 1413.41 291.3 1413.41 297.7C1413.41 302.9 1412.31 312.7 1410.11 327.1C1408.11 339.3 1406.51 350.9 1405.31 361.9C1404.11 372.7 1403.51 384.8 1403.51 398.2C1403.51 405.8 1401.91 411.3 1398.71 414.7C1395.71 417.9 1390.71 419.5 1383.71 419.5C1377.11 419.5 1372.31 417.8 1369.31 414.4C1366.31 411 1364.81 405.9 1364.81 399.1C1364.81 391.1 1366.21 377.9 1369.01 359.5C1371.41 343.5 1372.61 333.3 1372.61 328.9C1372.61 325.7 1371.51 324.1 1369.31 324.1C1366.71 324.1 1363.01 327.5 1358.21 334.3C1353.61 340.9 1348.81 349.7 1343.81 360.7C1339.01 371.7 1335.11 383.3 1332.11 395.5C1329.91 404.9 1327.31 411.3 1324.31 414.7C1321.51 417.9 1317.01 419.5 1310.81 419.5Z" fill="black"/>
</svg>
