<svg width="1466" height="586" viewBox="0 0 1466 586" fill="none" xmlns="http://www.w3.org/2000/svg">
<path d="M341.396 370.597C364.735 381.337 391.334 379.003 391.334 379.003C391.334 379.003 466.001 363.128 453.865 280.533C441.73 197.937 391.803 140.996 391.803 140.996C391.803 140.996 382.006 189.068 373.6 215.199C365.194 241.334 346.064 267.001 346.064 267.001C346.064 267.001 335.325 282.397 326.933 274.47C318.542 266.543 343.272 235.272 343.272 235.272C343.272 235.272 391.803 147.076 373.136 112.072C342.808 61.2078 294.736 55.1396 294.736 55.1396C312.939 71.004 303.606 150.803 303.606 150.803C303.606 150.803 296.601 209.605 272.804 211.469C249.007 213.334 263.007 186.74 263.007 186.74C282.137 142.876 285.408 79.407 285.408 79.407C285.408 79.407 286.814 63.5426 279.809 48.6048C272.803 33.6722 248.075 26.667 233.606 28.0737C219.137 29.4804 176.673 23.8758 176.673 23.8758C211.204 68.2143 204.209 120.48 204.209 120.48C204.209 120.48 204.209 135.412 197.678 143.344C191.147 151.271 183.678 135.875 183.678 135.875C183.678 135.875 179.944 113.011 178.543 77.5469C177.136 42.078 156.605 28.5522 156.605 28.5522C156.605 28.5522 138.402 17.3544 110.402 22.0209C82.4019 26.6771 53.4641 8 53.4641 8C67.4641 36 28.7353 120.933 28.7353 120.933C28.7353 120.933 14.2664 154.069 20.8079 166.667C27.3496 179.261 39.9383 192.803 70.7457 197.939C101.553 203.074 135.615 200.741 135.615 200.741C135.615 200.741 161.751 196.074 176.22 203.069C190.689 210.064 170.621 223.141 170.621 223.141C170.621 223.136 152.402 232.459 107.6 233.402C62.7978 234.345 4 190.933 4 190.933C10.5312 246.933 44.1303 297.333 44.1303 297.333C55.3281 344 87.9948 380.4 87.9948 380.4C87.9948 380.4 91.7291 385.999 124.864 385.067C158.005 384.129 215.868 369.666 215.868 369.666C215.868 369.666 237.806 361.265 245.274 363.603C252.743 365.942 243.41 374.343 243.41 374.343C243.404 374.343 232.67 388.796 184.133 394.394C135.602 399.993 97.3332 399.53 97.3332 399.53C112.266 430.332 148.198 455.53 148.198 455.53C148.198 455.53 204.198 496.134 268.127 483.066C332.055 469.999 335.325 403.262 335.325 403.262L406.721 580.596L418.382 568.46C418.382 568.46 355.377 409.793 341.386 385.99C327.401 362.188 341.401 370.589 341.401 370.589L341.396 370.597ZM95.0188 156.67C95.0188 156.67 73.8889 147.06 103.764 139.8C133.639 132.545 135.29 152.852 135.29 152.852C129.586 180.987 95.0188 156.67 95.0188 156.67ZM161.185 303.927C161.185 303.927 230.784 290.657 235.555 302.5C240.321 314.344 192.664 320.157 161.185 303.927ZM290.822 430.39C282.488 439.26 266.363 437.968 264.233 436.557C263.816 436.281 263.525 435.958 263.29 435.521C261.202 431.651 257.28 400.198 281.082 385.583C298.342 374.843 302.488 397.718 302.488 397.718C304.347 403.468 302.014 418.474 290.822 430.39ZM311.02 237.175C295.838 253.514 298.556 261.899 286.015 257.587C278.832 255.113 285.874 248.378 285.874 248.378C285.874 248.378 296.389 239.321 299.525 223.394C302.671 207.467 313.218 213.457 313.218 213.457C313.213 213.462 326.197 220.837 311.02 237.175Z" fill="white" stroke="white" stroke-width="5.6" stroke-miterlimit="10"/>
<path d="M756.3 165C762.5 166.2 767.1 168.3 770.1 171.3C773.3 174.3 774.9 177.8 774.9 181.8C774.9 188.4 773 193.2 769.2 196.2C765.6 199.2 759.8 200.4 751.8 199.8C733.8 198.4 719.7 197.5 709.5 197.1C699.5 196.5 686.3 196.1 669.9 195.9C662.5 232.7 655.7 269.7 649.5 306.9C647.3 320.5 645 336.3 642.6 354.3C640.2 372.1 638.6 386.5 637.8 397.5C637.4 403.3 635 407.8 630.6 411C626.2 414 620.9 415.5 614.7 415.5C608.1 415.5 603 413.9 599.4 410.7C595.8 407.5 594 403.3 594 398.1C594 393.3 594.7 385.4 596.1 374.4C597.7 363.2 599.5 351.5 601.5 339.3C603.7 327.1 605.4 316.5 606.6 307.5C608.8 292.3 611.3 277.2 614.1 262.2C616.9 247.2 619.7 233 622.5 219.6C623.1 216.6 623.8 213.2 624.6 209.4C625.4 205.4 626.3 201 627.3 196.2C607.7 196.8 592.3 198.4 581.1 201C569.9 203.6 561.9 207.3 557.1 212.1C552.5 216.7 550.2 222.7 550.2 230.1C550.2 236.9 552.2 243.4 556.2 249.6C557 251 557.4 252.5 557.4 254.1C557.4 257.9 555.1 261.5 550.5 264.9C546.1 268.1 541.5 269.7 536.7 269.7C533.3 269.7 530.5 268.7 528.3 266.7C524.3 263.3 521 258.5 518.4 252.3C515.8 245.9 514.5 238.7 514.5 230.7C514.5 213.7 520 200.1 531 189.9C542.2 179.5 559.1 171.9 581.7 167.1C604.5 162.3 633.7 159.9 669.3 159.9C691.3 159.9 708.8 160.3 721.8 161.1C735 161.9 746.5 163.2 756.3 165ZM736.062 415.5C723.662 415.5 713.762 411 706.362 402C698.962 393 695.262 381.2 695.262 366.6C695.262 350.6 698.962 335.5 706.362 321.3C713.762 306.9 723.562 295.4 735.762 286.8C748.162 278 761.262 273.6 775.062 273.6C779.462 273.6 782.362 274.5 783.762 276.3C785.362 277.9 786.662 280.9 787.662 285.3C791.862 284.5 796.262 284.1 800.862 284.1C810.662 284.1 815.562 287.6 815.562 294.6C815.562 298.8 814.062 308.8 811.062 324.6C806.462 347.6 804.162 363.6 804.162 372.6C804.162 375.6 804.862 378 806.262 379.8C807.862 381.6 809.862 382.5 812.262 382.5C816.062 382.5 820.662 380.1 826.062 375.3C831.462 370.3 838.762 362.3 847.962 351.3C850.362 348.5 853.062 347.1 856.062 347.1C858.662 347.1 860.662 348.3 862.062 350.7C863.662 353.1 864.462 356.4 864.462 360.6C864.462 368.6 862.562 374.8 858.762 379.2C850.562 389.4 841.862 398 832.662 405C823.462 412 814.562 415.5 805.962 415.5C799.362 415.5 793.262 413.3 787.662 408.9C782.262 404.3 778.162 398.1 775.362 390.3C764.962 407.1 751.862 415.5 736.062 415.5ZM746.862 385.2C751.262 385.2 755.462 382.6 759.462 377.4C763.462 372.2 766.362 365.3 768.162 356.7L779.262 301.5C770.862 301.7 763.062 304.9 755.862 311.1C748.862 317.1 743.262 325.1 739.062 335.1C734.862 345.1 732.762 355.7 732.762 366.9C732.762 373.1 733.962 377.7 736.362 380.7C738.962 383.7 742.462 385.2 746.862 385.2ZM861.38 415.5C853.78 415.5 848.38 411.5 845.18 403.5C842.18 395.5 840.68 382.7 840.68 365.1C840.68 339.1 844.38 314.4 851.78 291C853.58 285.2 856.48 281 860.48 278.4C864.68 275.6 870.48 274.2 877.88 274.2C881.88 274.2 884.68 274.7 886.28 275.7C887.88 276.7 888.68 278.6 888.68 281.4C888.68 284.6 887.18 291.8 884.18 303C882.18 311 880.58 318 879.38 324C878.18 329.8 877.18 337.1 876.38 345.9C881.78 330.3 888.18 317.1 895.58 306.3C903.18 295.5 910.88 287.5 918.68 282.3C926.68 276.9 934.18 274.2 941.18 274.2C948.18 274.2 953.08 275.8 955.88 279C958.88 282.2 960.38 287.1 960.38 293.7C960.38 300.1 958.48 311.7 954.68 328.5C953.08 335.7 951.98 341.1 951.38 344.7C961.38 320.1 972.48 302.2 984.68 291C996.88 279.8 1008.28 274.2 1018.88 274.2C1031.88 274.2 1038.38 280.7 1038.38 293.7C1038.38 301.5 1036.18 315.6 1031.78 336C1027.98 353.4 1026.08 364.9 1026.08 370.5C1026.08 378.5 1028.98 382.5 1034.78 382.5C1038.78 382.5 1043.48 380.1 1048.88 375.3C1054.48 370.3 1061.88 362.3 1071.08 351.3C1073.48 348.5 1076.18 347.1 1079.18 347.1C1081.78 347.1 1083.78 348.3 1085.18 350.7C1086.78 353.1 1087.58 356.4 1087.58 360.6C1087.58 368.6 1085.68 374.8 1081.88 379.2C1073.28 389.8 1063.98 398.5 1053.98 405.3C1044.18 412.1 1032.98 415.5 1020.38 415.5C1010.18 415.5 1002.48 412.6 997.28 406.8C992.08 400.8 989.48 392.2 989.48 381C989.48 375.4 990.88 365.4 993.68 351C996.28 338.4 997.58 329.7 997.58 324.9C997.58 321.7 996.48 320.1 994.28 320.1C991.68 320.1 987.98 323.5 983.18 330.3C978.38 336.9 973.58 345.7 968.78 356.7C963.98 367.7 960.08 379.3 957.08 391.5C954.88 401.1 952.28 407.5 949.28 410.7C946.48 413.9 941.88 415.5 935.48 415.5C928.88 415.5 923.88 412.4 920.48 406.2C917.28 399.8 915.68 392.1 915.68 383.1C915.68 375.5 916.68 364.5 918.68 350.1C920.28 337.3 921.08 328.9 921.08 324.9C921.08 321.7 919.98 320.1 917.78 320.1C914.78 320.1 910.98 323.7 906.38 330.9C901.78 338.1 897.28 347.3 892.88 358.5C888.68 369.7 885.28 380.7 882.68 391.5C880.48 400.9 877.88 407.3 874.88 410.7C872.08 413.9 867.58 415.5 861.38 415.5ZM1177.02 347.1C1179.62 347.1 1181.62 348.3 1183.02 350.7C1184.62 353.1 1185.42 356.4 1185.42 360.6C1185.42 368.6 1183.52 374.8 1179.72 379.2C1171.12 389.8 1161.72 398.5 1151.52 405.3C1141.52 412.1 1130.12 415.5 1117.32 415.5C1099.72 415.5 1086.62 407.5 1078.02 391.5C1069.62 375.5 1065.42 354.8 1065.42 329.4C1065.42 305 1068.52 277.2 1074.72 246C1081.12 214.8 1090.42 188 1102.62 165.6C1115.02 143.2 1129.72 132 1146.72 132C1156.32 132 1163.82 136.5 1169.22 145.5C1174.82 154.3 1177.62 167 1177.62 183.6C1177.62 207.4 1171.02 235 1157.82 266.4C1144.62 297.8 1126.72 328.9 1104.12 359.7C1105.52 367.9 1107.82 373.8 1111.02 377.4C1114.22 380.8 1118.42 382.5 1123.62 382.5C1131.82 382.5 1139.02 380.2 1145.22 375.6C1151.42 370.8 1159.32 362.7 1168.92 351.3C1171.32 348.5 1174.02 347.1 1177.02 347.1ZM1140.12 161.7C1135.52 161.7 1130.32 170 1124.52 186.6C1118.72 203.2 1113.62 223.8 1109.22 248.4C1104.82 273 1102.42 296.6 1102.02 319.2C1116.22 295.8 1127.52 272.4 1135.92 249C1144.32 225.4 1148.52 203.9 1148.52 184.5C1148.52 169.3 1145.72 161.7 1140.12 161.7ZM1314.77 347.7C1317.37 347.7 1319.37 349 1320.77 351.6C1322.37 354 1323.17 357.1 1323.17 360.9C1323.17 365.5 1322.47 369.1 1321.07 371.7C1319.67 374.3 1317.47 376.6 1314.47 378.6L1256.87 417.3C1249.27 458.7 1239.27 491.2 1226.87 514.8C1214.67 538.6 1199.07 550.5 1180.07 550.5C1169.87 550.5 1161.57 547.3 1155.17 540.9C1148.77 534.7 1145.57 526.5 1145.57 516.3C1145.57 506.9 1147.67 497.3 1151.87 487.5C1156.27 477.7 1164.27 466.4 1175.87 453.6C1187.67 441 1204.27 426.5 1225.67 410.1L1226.57 403.2C1227.97 395.8 1229.57 385.2 1231.37 371.4C1227.37 385.8 1221.77 396.8 1214.57 404.4C1207.37 411.8 1199.77 415.5 1191.77 415.5C1182.77 415.5 1175.37 411.4 1169.57 403.2C1163.97 394.8 1161.17 384.4 1161.17 372C1161.17 357 1162.17 343.3 1164.17 330.9C1166.17 318.3 1169.47 305 1174.07 291C1176.07 285 1178.87 280.7 1182.47 278.1C1186.07 275.5 1191.77 274.2 1199.57 274.2C1203.97 274.2 1206.97 274.9 1208.57 276.3C1210.37 277.7 1211.27 279.8 1211.27 282.6C1211.27 284.2 1210.17 289.6 1207.97 298.8C1205.97 306.2 1204.37 312.9 1203.17 318.9C1201.57 327.1 1200.17 335 1198.97 342.6C1197.77 350 1197.17 356.1 1197.17 360.9C1197.17 368.5 1199.27 372.3 1203.47 372.3C1206.47 372.3 1210.17 369.3 1214.57 363.3C1219.17 357.3 1223.97 348.2 1228.97 336C1234.17 323.8 1239.17 308.8 1243.97 291C1245.57 285 1247.97 280.7 1251.17 278.1C1254.57 275.5 1259.57 274.2 1266.17 274.2C1270.77 274.2 1273.97 274.8 1275.77 276C1277.57 277.2 1278.47 279.2 1278.47 282C1278.47 287 1275.87 304.2 1270.67 333.6L1262.87 381.9C1278.27 370.3 1293.27 359.7 1307.87 350.1C1310.47 348.5 1312.77 347.7 1314.77 347.7ZM1183.37 521.4C1188.37 521.4 1193.97 515.6 1200.17 504C1206.37 492.4 1212.57 473.1 1218.77 446.1C1203.37 459.1 1192.17 470.9 1185.17 481.5C1178.37 492.3 1174.97 501.7 1174.97 509.7C1174.97 513.1 1175.57 515.9 1176.77 518.1C1178.17 520.3 1180.37 521.4 1183.37 521.4ZM1322.81 415.5C1315.21 415.5 1309.81 411.5 1306.61 403.5C1303.61 395.5 1302.11 382.7 1302.11 365.1C1302.11 339.1 1305.81 314.4 1313.21 291C1315.01 285.2 1317.91 281 1321.91 278.4C1326.11 275.6 1331.91 274.2 1339.31 274.2C1343.31 274.2 1346.11 274.7 1347.71 275.7C1349.31 276.7 1350.11 278.6 1350.11 281.4C1350.11 284.6 1348.61 291.8 1345.61 303C1343.61 311 1342.01 318 1340.81 324C1339.61 330 1338.61 337.4 1337.81 346.2C1344.41 329 1351.81 315 1360.01 304.2C1368.21 293.4 1376.21 285.7 1384.01 281.1C1392.01 276.5 1399.31 274.2 1405.91 274.2C1412.31 274.2 1417.11 275.9 1420.31 279.3C1423.71 282.5 1425.41 287.3 1425.41 293.7C1425.41 298.9 1424.31 308.7 1422.11 323.1C1420.11 335.3 1418.51 346.9 1417.31 357.9C1416.11 368.7 1415.51 380.8 1415.51 394.2C1415.51 401.8 1413.91 407.3 1410.71 410.7C1407.71 413.9 1402.71 415.5 1395.71 415.5C1389.11 415.5 1384.31 413.8 1381.31 410.4C1378.31 407 1376.81 401.9 1376.81 395.1C1376.81 387.1 1378.21 373.9 1381.01 355.5C1383.41 339.5 1384.61 329.3 1384.61 324.9C1384.61 321.7 1383.51 320.1 1381.31 320.1C1378.71 320.1 1375.01 323.5 1370.21 330.3C1365.61 336.9 1360.81 345.7 1355.81 356.7C1351.01 367.7 1347.11 379.3 1344.11 391.5C1341.91 400.9 1339.31 407.3 1336.31 410.7C1333.51 413.9 1329.01 415.5 1322.81 415.5Z" fill="white"/>
</svg>
