<svg xmlns="http://www.w3.org/2000/svg" xmlns:xlink="http://www.w3.org/1999/xlink" version="1.1" x="0px" y="0px" viewBox="0 0 100 125" enable-background="new 0 0 100 100" xml:space="preserve"><g><path fill="none" d="M41.142,43.865c-0.328,1.478,6.201,6.023,6.732,3.897C48.406,45.637,41.496,42.271,41.142,43.865z"/><path fill="none" d="M38.662,57.329c-0.921,1.289,6.201,5.492,6.732,3.72C45.925,59.278,39.548,56.089,38.662,57.329z"/><path fill="none" d="M47.165,31.11c-1.014,1.217,2.657,4.783,3.189,3.897S48.051,30.047,47.165,31.11z"/><path fill="none" d="M56.023,47.586c-0.147,1.765,9.035-2.303,9.035-3.72C65.058,42.448,56.201,45.46,56.023,47.586z"/><path fill="none" d="M58.858,30.756c-1.24-1.24-4.429,1.949-3.72,3.366C55.995,35.835,60.098,31.996,58.858,30.756z"/><path fill="none" d="M55.138,61.227c-0.144,1.588,6.909-0.177,6.201-2.126C60.63,57.152,55.315,59.278,55.138,61.227z"/><path d="M79.256,51.788c0,0-6.974,4.273-8.65,4.565c-1.676,0.292-2.545-0.35-2.049-1.634c0.497-1.284,4.221-2.217,5.773-2.918   c1.552-0.7,4.221-2.159,4.47-4.143c0.248-1.984,0.559-3.735,0-7.878c-0.559-4.143-2.731-8.987-3.787-10.445   c0,0-3.166,3.268-5.277,4.785c-2.111,1.517-2.918,1.517-3.29,0.7c-0.372-0.817,0.993-2.159,2.111-3.21   c1.117-1.05,3.849-4.026,4.035-4.668c0.186-0.642-0.248-2.217-1.179-3.735c-0.931-1.517-3.476-5.252-5.898-8.111   c0,0-1.987,4.435-2.732,5.894c-0.745,1.459-1.738,2.684-2.359,2.217c-0.621-0.467,0-1.809,0.435-3.093   c0.435-1.284,1.366-4.668,1.304-6.127c-0.062-1.459-0.062-2.393-1.862-3.618C58.5,9.143,51.609,5,51.609,5   s-5.463,3.093-7.822,4.902c-2.359,1.809-5.313,4.345-5.773,4.844c-0.807,0.875-0.621,2.801,1.055,6.361   c1.676,3.56,4.594,5.952,3.911,6.711c-0.683,0.759-2.173,0.409-4.221-2.334c-2.049-2.743-3.476-5.135-3.911-7.528   c0,0-4.221,5.427-5.339,6.828c-1.117,1.401-2.421,2.918-1.987,4.377c0.435,1.459,1.055,4.143,3.414,7.294   c2.359,3.151,4.532,4.843,3.911,5.777c-0.621,0.934-4.532-1.692-6.518-3.851c-1.987-2.159-4.718-6.069-4.718-6.069   s-1.242,2.801-1.924,5.777c-0.683,2.976-1.117,6.127-0.869,8.17c0.248,2.042-0.807,2.976,2.483,5.252   c3.29,2.276,8.257,4.085,7.946,4.96c-0.31,0.875-4.966,0.467-6.953-0.759s-3.601-2.276-3.601-2.276s0.683,4.318,2.297,7.761   c1.614,3.443,3.074,6.88,7.792,10.031c4.427,2.957,13.492,3.086,18.225-0.691c-0.211,8.209-0.566,22.686-0.49,24.464l2.446-1.4   l-0.17-23.127c1.901,1.427,6.529,4.389,11.47,3.726c6.454-0.867,10.669-4.953,13.04-9.658   C77.675,59.836,79.651,54.883,79.256,51.788z M45.394,61.05c-0.531,1.772-7.653-2.431-6.732-3.72   C39.548,56.089,45.925,59.278,45.394,61.05z M47.874,47.763c-0.531,2.126-7.06-2.42-6.732-3.897   C41.496,42.271,48.406,45.637,47.874,47.763z M50.354,35.007c-0.531,0.886-4.203-2.68-3.189-3.897   C48.051,30.047,50.886,34.122,50.354,35.007z M58.858,30.756c1.24,1.24-2.863,5.08-3.72,3.366   C54.429,32.704,57.618,29.515,58.858,30.756z M55.138,61.227c0.177-1.949,5.492-4.075,6.201-2.126   C62.047,61.05,54.993,62.815,55.138,61.227z M56.023,47.586c0.177-2.126,9.035-5.138,9.035-3.72   C65.058,45.282,55.876,49.351,56.023,47.586z"/></g><text x="0" y="115" fill="#000000" font-size="5px" font-weight="bold" font-family="'Helvetica Neue', Helvetica, Arial-Unicode, Arial, Sans-serif">Created by Alena Artemova</text><text x="0" y="120" fill="#000000" font-size="5px" font-weight="bold" font-family="'Helvetica Neue', Helvetica, Arial-Unicode, Arial, Sans-serif">from the Noun Project</text></svg>