<svg width="1052" height="483" viewBox="0 0 1052 483" fill="none" xmlns="http://www.w3.org/2000/svg">
<path d="M0 360.51C0 361.306 1.13885 362.101 2.655 362.366C4.28644 362.631 4.3633 362.708 4.6288 364.299C4.93273 366.117 6.18338 367.746 7.24538 367.746C7.62617 367.746 8.79996 367.404 9.86546 366.989C11.6855 366.27 14.0401 366.005 14.4943 366.458C14.6095 366.574 14.4558 367.442 14.1903 368.43C13.2401 371.538 14.6445 373.809 17.5301 373.809C18.6689 373.809 19.3117 373.467 21.0969 371.915C22.2741 370.854 23.2977 370.059 23.3746 370.097C23.413 370.174 23.1859 371.273 22.882 372.56C22.2008 375.365 22.4663 377.337 23.7169 378.586C24.2095 379.077 25.0829 379.496 25.6523 379.496C26.6374 379.496 27.1335 379.043 30.5082 375.365C32.0627 373.621 32.7475 373.925 33.1282 376.464C33.4706 379.081 34.4173 380.407 35.9754 380.557C36.999 380.672 37.4566 380.407 38.9728 378.739C39.9579 377.678 40.985 376.883 41.2889 376.921C41.6313 376.998 42.047 377.794 42.274 378.704C42.5011 379.615 42.9937 380.56 43.3361 380.787C43.9823 381.167 44.2094 381.129 48.6111 379.803C51.3814 378.931 51.4199 379.273 49.3308 385.221C47.6225 390.109 46.7491 393.294 43.7518 405.648C43.2208 407.846 42.4627 410.651 42.0435 411.9C41.3238 414.06 41.3238 414.175 42.0051 414.667C42.7631 415.235 45.3832 415.047 46.7107 414.325C47.9614 413.679 48.8347 411.105 49.5194 406.217C49.8618 403.715 50.6967 399.435 51.4164 396.741C53.3517 389.464 57.7919 375.557 58.4731 374.8C58.6233 374.612 59.5735 374.612 60.5587 374.762C62.8364 375.104 64.0871 376.353 65.2259 379.461C66.0993 381.736 67.9578 384.046 68.9464 384.046C69.2119 384.046 69.9316 383.592 70.4661 383.062C71.3394 382.189 71.4163 381.886 71.2241 380.03C71.0355 378.251 71.1089 377.947 71.6049 378.059C71.9473 378.136 72.9709 379.346 73.8442 380.825C75.7027 383.857 77.1455 385.183 78.6267 385.183C80.2966 385.183 80.6005 384.122 79.8774 380.825C78.9272 376.656 79.9542 376.049 81.5857 379.803C82.6861 382.266 84.6983 384.541 86.48 385.336C87.8843 385.982 88.073 386.02 88.9463 385.452C90.0852 384.694 90.5009 383.027 89.9699 381.171C89.666 380.11 89.7044 379.657 90.0083 379.465C90.7664 379.011 91.7166 379.768 93.5367 382.346C95.6607 385.301 96.8764 386.324 98.3192 386.324C100.139 386.324 100.482 384.883 99.6083 381.321L99.3428 380.26L102.606 381.813C106.476 383.63 108.981 384.049 110.728 383.138C112.475 382.228 112.702 380.864 111.336 379.426C110.728 378.819 109.439 377.874 108.415 377.378C106.518 376.395 106.291 375.938 107.2 374.727C108.034 373.628 107.881 373.136 106.515 372.302C105.565 371.695 104.618 371.545 101.963 371.545C98.6616 371.545 97.9769 371.242 99.0773 370.143C99.3044 369.916 99.4197 369.159 99.3428 368.475C99.2659 367.414 98.962 367.073 97.7498 366.465C96.307 365.747 96.2686 365.747 93.8022 366.581C92.4363 367.034 91.1821 367.264 90.9935 367.073C90.8433 366.923 90.8782 366.2 91.1088 365.52C91.6782 363.852 91.1088 362.603 89.5891 362.261C88.3385 361.996 87.0075 362.565 85.1874 364.118C83.9717 365.178 82.7979 365.67 82.4171 365.332C82.3018 365.216 81.9245 364.309 81.6206 363.322C80.9359 361.313 79.9123 360.555 77.8267 360.555C76.7263 360.555 76.1953 360.897 74.7141 362.45C73.7289 363.472 72.7019 364.344 72.3979 364.344C72.094 364.344 71.3744 363.814 70.8434 363.207C70.2739 362.562 69.5159 362.07 69.0966 362.07C67.846 362.07 65.3028 364.306 63.2137 367.299C61.3936 369.878 59.57 371.999 59.57 371.507C59.57 371.392 60.3665 369.459 61.3168 367.188C62.267 364.875 63.3674 362.223 63.7447 361.239C64.1604 360.29 65.9071 356.578 67.6923 353.055L70.9167 346.611L72.7368 347.179C76.8346 348.393 78.3927 349.454 80.7053 352.713C83.4372 356.54 85.6381 358.284 87.6503 358.284C89.6625 358.284 90.3053 357.527 90.3053 355.214C90.3053 352.674 91.0249 352.789 92.9254 355.556C95.0878 358.776 97.2118 360.559 98.8467 360.559C101.428 360.559 102.298 358.549 101.124 355.214C100.517 353.585 100.744 352.789 101.732 353.17C102.036 353.281 103.325 354.876 104.618 356.732C107.273 360.521 108.904 361.658 110.574 360.901C111.636 360.409 112.548 358.588 112.094 357.831C111.944 357.566 112.702 358.134 113.764 359.156C116.192 361.393 117.369 361.885 118.696 361.239C120.405 360.367 120.555 359.687 119.647 357.07C119.154 355.783 118.85 354.684 118.927 354.607C119.308 354.227 120.482 355.214 122.379 357.524C124.464 360.064 126.249 361.313 127.881 361.313C128.792 361.313 130.197 360.667 130.613 360.025C131.067 359.38 130.955 357.335 130.462 356.843C129.816 356.198 130.197 356.275 132.247 357.147C135.853 358.699 138.469 357.792 137.938 355.176C137.523 353.166 136.723 352.259 134.41 351.16L132.247 350.138V347.56C132.247 345.173 132.171 344.87 131.185 344.036C129.781 342.86 127.999 342.86 125.606 344.074C123.213 345.288 122.686 345.288 123.671 344.036C124.468 343.052 124.733 341.043 124.164 340.247C123.71 339.528 122.305 338.96 121.013 338.96C120.062 338.96 119.42 339.34 118.204 340.589C115.776 343.129 115.357 343.129 115.357 340.627C115.357 337.861 114.295 336.685 111.751 336.685C110.232 336.685 109.778 336.873 108.223 338.314C104.999 341.308 103.556 341.992 104.541 340.094C105.83 337.554 104.73 335.548 102.075 335.548C100.101 335.548 98.6965 336.305 97.0651 338.199C96.3454 339.033 95.1297 339.944 94.3716 340.282L93.0057 340.851L92.8904 339.068C92.7751 337.515 92.5865 337.174 91.4861 336.416C90.6127 335.848 89.6276 335.544 88.4887 335.544C86.707 335.544 87.0459 335.279 82.6058 339.979C80.8975 341.796 76.3455 344.224 74.0678 344.524C73.1944 344.64 72.4748 344.601 72.4748 344.486C72.4748 344.067 80.5202 329.289 83.2905 324.551C84.5795 322.353 86.2494 319.436 87.0459 317.996C88.335 315.648 88.5655 315.456 89.7009 315.456C91.6363 315.456 92.6983 317.123 93.7603 321.9C94.3297 324.478 94.976 325.842 96.0764 326.599C97.2153 327.394 98.1271 327.356 99.0354 326.449C99.9087 325.577 100.059 322.357 99.3777 319.893C98.5812 317.012 99.3009 317.734 101.39 321.941C103.668 326.564 105.338 328.574 107.273 328.954C108.185 329.142 108.639 328.992 109.247 328.385C109.966 327.667 110.043 327.171 110.005 324.178C109.889 318.986 110.27 319.063 113.306 324.935C115.584 329.407 117.027 330.998 118.808 330.998C121.54 330.998 122.071 329.784 121.198 325.315C120.894 323.609 120.705 322.095 120.817 321.98C121.271 321.561 122.26 322.925 123.737 326.034C125.407 329.596 126.281 330.695 127.912 331.379C130.644 332.516 132.237 330.468 131.86 326.337C131.633 324.139 131.671 324.024 132.24 324.746C132.583 325.165 133.568 326.833 134.403 328.462C136.111 331.759 137.058 332.554 139.109 332.631C141.044 332.669 141.652 331.759 141.309 329.219C141.006 326.602 141.575 326.602 142.979 329.181C144.268 331.644 145.788 333.273 146.773 333.273C147.192 333.273 148.024 332.781 148.555 332.174C149.578 331.113 149.655 331.075 152.729 331.302C155.577 331.452 155.915 331.414 156.677 330.656C157.323 330.011 157.397 329.673 157.093 329.104C156.523 328.043 154.476 326.641 152.614 326.072C150.867 325.542 150.717 325.277 151.629 324.52C152.691 323.647 152.995 322.283 152.349 321.299C151.895 320.581 151.437 320.389 150.186 320.389C149.313 320.389 148.062 320.577 147.339 320.842C145.746 321.411 145.404 321.031 146.239 319.555C146.619 318.91 147.074 317.811 147.262 317.054C147.528 315.878 147.412 315.574 146.466 314.667C145.858 314.06 145.061 313.568 144.646 313.568C144.265 313.568 143.164 314.402 142.218 315.463C141.268 316.485 140.321 317.357 140.094 317.357C139.867 317.357 140.017 316.408 140.513 315.044L141.348 312.769L140.436 312.012C139.032 310.837 137.135 311.14 135.276 312.846C134.557 313.492 132.429 314.249 132.429 313.83C132.429 313.753 132.695 313.035 132.999 312.312C133.833 310.341 133.718 309.469 132.468 308.22C131.633 307.425 130.986 307.121 129.963 307.121C128.747 307.121 128.216 307.463 126.015 309.584C123.51 312.009 121.879 312.766 122.295 311.363C123.661 306.587 123.584 305.45 121.687 304.543C120.813 304.128 120.436 304.163 118.993 304.77C118.082 305.188 116.604 306.322 115.692 307.309C112.618 310.568 110.19 311.402 111.175 308.862C112.048 306.514 111.402 304.846 109.355 304.354C108.027 304.051 106.054 304.77 104.649 306.099C102.829 307.843 100.894 309.396 100.513 309.396C100.324 309.396 100.171 308.981 100.171 308.45C100.171 307.92 99.8668 307.351 99.4511 307.125C97.8965 306.329 96.9847 306.706 94.6686 309.134C92.5061 311.409 89.659 313.718 89.9629 312.961C90.1131 312.619 92.2022 308.869 96.3769 301.441C97.362 299.662 99.3358 295.793 100.74 292.799C102.525 289.084 103.472 287.531 103.738 287.797C103.926 287.985 104.419 288.177 104.8 288.177C106.393 288.177 107.608 289.276 108.82 291.701C110.186 294.582 111.514 295.755 113.299 295.755C114.249 295.755 114.78 295.489 115.385 294.617C115.839 294.01 116.37 293.595 116.562 293.707C116.754 293.818 117.474 295.071 118.155 296.435C119.748 299.582 120.66 300.45 122.406 300.45C124.227 300.45 124.873 299.617 125.365 296.623C125.592 295.221 125.935 294.045 126.162 294.045C126.351 294.045 127.262 295.824 128.136 297.987C129.994 302.61 130.717 303.482 132.614 303.482C134.665 303.482 135.308 302.498 135.423 298.971C135.461 298.553 135.612 297.987 135.804 297.684C136.373 296.812 137.208 297.761 138.651 300.831C140.282 304.316 141.117 305.303 142.445 305.303C144.153 305.303 144.761 304.393 144.723 301.818C144.684 300.112 144.799 299.543 145.215 299.543C145.823 299.543 147.339 302.729 148.174 305.684C149.767 311.597 154.019 312.051 154.7 306.367L154.927 304.32L155.762 306.783C156.977 310.345 157.697 311.597 159.025 312.239C161.341 313.453 163.199 312.277 163.692 309.284C163.996 307.54 164.412 307.732 165.439 310.08C166.728 312.961 169.159 315.082 171.206 315.082C172.534 315.082 173.788 314.06 173.788 312.961C173.788 312.166 173.938 312.051 175.304 312.051C176.747 312.051 178.34 311.067 178.34 310.195C178.34 309.211 177.39 307.543 175.989 306.102L174.396 304.473L175.231 303.601C176.331 302.425 176.293 301.023 175.115 299.924C174.319 299.167 173.634 298.978 170.941 298.825C167.147 298.56 166.654 298.218 167.524 296.512C169.005 293.63 166.916 292.116 162.137 292.531L159.329 292.796L159.594 291.812C159.898 290.525 159.479 288.362 158.759 287.605C157.697 286.582 155.874 286.924 153.673 288.554C150.714 290.752 150.522 290.675 150.826 287.074C151.053 284.346 151.014 284.004 150.295 283.286C149.84 282.832 149.079 282.49 148.509 282.49C147.636 282.49 145.019 284.081 142.172 286.356C140.806 287.455 140.087 286.886 140.73 285.107C141.337 283.327 141.261 280.976 140.502 280.142C140.083 279.689 139.364 279.462 138.151 279.462C136.558 279.462 136.293 279.612 134.508 281.471C133.484 282.609 132.307 283.631 131.888 283.784C130.902 284.126 130.141 283.366 130.141 282.04C130.141 281.321 129.76 280.522 129.04 279.804C127.598 278.363 125.32 278.286 123.119 279.654C120.272 281.36 118.033 282.497 117.39 282.497C117.048 282.497 116.366 282.155 115.835 281.74C114.469 280.679 113.215 280.795 110.41 282.347C109.044 283.066 107.147 284.015 106.197 284.395L104.489 285.075L106.613 280.868C107.79 278.516 110.483 272.983 112.607 268.514L116.517 260.441L117.921 260.629C120.045 261.01 122.172 262.75 124.373 266.047C125.512 267.792 126.916 269.344 127.675 269.798L128.964 270.555L130.026 269.759C130.861 269.114 131.126 268.584 131.276 267.108C131.427 265.555 131.619 265.214 132.3 265.137C132.981 265.022 133.362 265.517 134.651 268.169C136.398 271.807 136.852 272.414 138.295 273.172C139.245 273.663 139.51 273.663 140.419 273.172C141.785 272.488 142.658 271.2 142.658 269.951C142.658 269.421 142.773 268.852 142.885 268.737C143.304 268.322 144.555 269.229 144.555 269.913C144.555 270.935 146.263 274.27 147.248 275.143C149.903 277.529 152.523 275.827 152.523 271.731C152.523 268.395 153.585 269.268 155.371 274.155C157.229 279.12 160.646 281.583 162.77 279.462C163.377 278.855 163.528 278.209 163.528 276.28C163.528 272.226 164.209 272.53 168.195 278.516C172.254 284.618 175.29 286.248 176.656 283.027C176.96 282.344 177.187 281.056 177.187 280.222C177.187 277.948 178.099 278.328 180.146 281.398C182.651 285.149 185.306 286.478 186.864 284.772C187.51 284.053 187.545 283.788 187.129 282.27C186.864 281.36 186.675 280.414 186.675 280.222C186.675 279.577 187.737 279.807 189.711 280.791C192.1 282.005 193.505 282.005 194.986 280.753C196.202 279.73 196.429 278.782 195.783 277.533C195.44 276.925 195.555 276.737 196.694 276.168C197.414 275.826 198.099 275.335 198.21 275.031C198.514 274.274 197.072 273.022 195.859 273.022C194.532 273.022 193.886 272.414 193.886 271.127C193.886 270.597 193.62 269.498 193.355 268.664C192.9 267.3 192.673 267.15 191.458 267.035C190.473 266.958 189.484 267.261 187.702 268.249C186.375 269.006 184.97 269.613 184.628 269.613C183.678 269.613 183.489 268.702 184.174 267.377C184.894 266.013 184.97 263.891 184.324 263.246C183.412 262.335 181.25 262.754 178.518 264.345C177.037 265.179 175.444 265.936 174.913 265.936C173.889 266.013 173.851 265.709 174.382 262.185C174.801 259.23 172.712 258.585 168.841 260.518C166.452 261.732 163.755 262.335 163.416 261.767C163.301 261.578 163.797 260.591 164.516 259.569C165.201 258.546 165.805 257.332 165.805 256.84C165.805 255.626 164.174 254.074 162.958 254.074C161.669 254.074 157.533 255.818 156.167 256.99C155.559 257.482 154.724 257.863 154.27 257.786C153.585 257.671 153.435 257.332 153.285 255.626C152.904 252.176 151.084 251.684 146.494 253.882C144.974 254.601 143.647 255.208 143.535 255.208C143.423 255.208 143.419 254.827 143.535 254.374C143.839 253.313 142.965 251.304 141.865 250.508C140.195 249.333 137.348 249.901 135.678 251.761C134.882 252.671 133.362 252.821 133.058 252.064C132.716 251.154 130.211 250.208 128.96 250.473C128.352 250.623 126.759 251.649 125.47 252.786C124.181 253.924 121.903 255.591 120.384 256.499L117.652 258.166L119.664 254.112C120.803 251.914 123.004 247.138 124.635 243.538C126.267 239.976 127.786 237.021 128.052 237.021C128.964 237.021 131.999 239.295 133.592 241.228C136.932 245.244 137.956 246.116 139.21 246.116C141.068 246.116 141.865 245.509 142.323 243.653C142.55 242.704 142.892 241.947 143.042 241.947C143.496 241.947 144.447 243.199 145.47 245.244C146.001 246.343 146.99 247.86 147.671 248.617C148.771 249.866 149.037 249.981 150.364 249.793C152.034 249.566 152.792 248.771 153.135 246.838C153.666 243.691 154.501 243.883 157.121 247.86C159.056 250.704 160.422 251.803 162.242 251.803C164.101 251.803 164.824 250.704 164.52 248.391C164.177 245.774 164.785 245.927 167.14 248.998C169.683 252.333 170.895 253.317 172.453 253.317C174.92 253.317 175.604 251.269 174.123 248.275L173.365 246.685L175.377 248.767C178.186 251.684 179.437 252.556 180.803 252.556C182.661 252.556 183.423 251.799 183.119 250.243C182.969 249.524 182.815 248.614 182.777 248.195C182.626 246.831 184.142 247.135 186.836 248.952C189.987 251.112 191.618 251.492 192.488 250.24C192.942 249.633 193.058 248.952 192.869 247.927L192.642 246.486L195.07 247.623C197.84 248.91 198.521 249.026 199.395 248.115C200.041 247.508 200.041 245.879 199.395 243.946C199.168 243.266 199.356 243.035 200.457 242.582C201.746 242.013 203 240.687 203 239.777C203 238.981 201.823 238.147 200.684 238.147C199.734 238.147 199.583 237.997 199.583 237.087C199.583 234.812 197.533 234.209 194.347 235.534C192.715 236.218 191.919 235.684 191.461 233.64C191.234 232.618 190.78 231.822 190.211 231.442C189.11 230.723 188.425 230.988 184.67 233.525L182.05 235.304L181.33 234.394C180.876 233.825 180.611 232.914 180.611 231.854C180.611 229.809 179.433 228.368 177.575 228.065C176.436 227.876 175.601 228.18 172.527 229.771C170.476 230.831 168.771 231.704 168.694 231.704C168.618 231.704 168.429 231.135 168.314 230.416C168.163 229.698 167.744 228.71 167.363 228.218C166.301 226.931 163.912 227.158 160.268 228.787L157.348 230.113L156.74 228.937C155.412 226.32 152.073 226.094 149.491 228.445C147.706 230.036 147.367 230.074 145.505 229.014C144.405 228.368 143.72 228.218 141.711 228.368C139.549 228.484 139.091 228.672 137.082 230.224C134.693 232.119 133.477 232.803 130.557 233.975L128.621 234.732L130.518 230.981C132.642 226.736 136.513 217.717 137.502 214.724C138.071 213.056 138.298 212.753 139.095 212.753C140.614 212.753 142.015 213.701 143.989 216.049C146.836 219.5 147.936 220.334 149.568 220.334C151.542 220.334 152.415 219.081 151.846 216.922C151.315 214.762 151.884 214.95 154.616 217.832C155.867 219.158 157.271 220.449 157.729 220.676C159.814 221.736 162.396 220.637 162.396 218.704C162.396 218.212 162.623 217.529 162.888 217.152C163.608 216.206 164.747 216.848 166.039 218.935C168.125 222.27 169.91 223.215 172.3 222.232C173.704 221.625 174.158 220.829 174.158 218.935C174.158 217.455 174.689 216.548 175.524 216.548C175.751 216.548 176.548 217.459 177.309 218.596C178.714 220.717 181.065 222.235 182.962 222.235C184.366 222.235 185.847 220.909 186.148 219.392C186.528 217.382 187.098 217.117 189.411 217.878C192.408 218.861 194.193 218.823 195.063 217.728C195.444 217.236 195.783 216.363 195.783 215.756C195.783 214.811 196.086 214.507 197.718 213.597C200.565 212.083 201.854 210.945 201.854 209.92C201.854 208.974 200.603 207.837 199.576 207.837C199.234 207.837 198.553 207.383 198.095 206.853C197.337 205.981 196.995 205.869 195.552 206.058C193.617 206.246 193.197 205.907 192.366 203.329C191.797 201.623 191.758 201.585 190.088 201.473C188.569 201.396 188.153 201.55 186.521 202.914C185.536 203.748 184.548 204.432 184.397 204.432C184.247 204.432 183.751 203.675 183.297 202.726C182.385 200.793 181.589 200.263 179.542 200.263C178.022 200.263 176.733 201.02 174.99 202.914L174.155 203.863L172.523 202.045C171.346 200.72 170.588 200.189 169.526 200.036C167.44 199.694 166.452 200.074 164.101 202.195L161.977 204.167L160.534 202.576C159.283 201.212 158.902 201.023 157.498 201.023C155.716 201.023 155.07 201.288 152.715 203.106C151.273 204.205 150.895 204.32 149.226 204.167L147.367 203.978L144.558 206.783C143.004 208.336 141.142 209.777 140.461 210.042C139.814 210.268 139.245 210.422 139.245 210.345C139.245 210.307 140.611 206.33 142.281 201.553C143.989 196.777 145.432 192.685 145.505 192.458C145.578 192.231 146.263 191.89 147.025 191.778C148.579 191.474 149.302 191.855 153.439 195.34C157.044 198.372 159.587 198.333 159.814 195.263C159.964 192.988 160.688 193.027 163.458 195.49C165.963 197.726 167.86 198.56 169.568 198.18C171.049 197.876 171.618 197.119 171.846 195.225C171.961 194.391 172.265 193.634 172.53 193.557C172.757 193.48 173.631 193.972 174.427 194.695C175.224 195.413 176.247 196.174 176.705 196.439C177.617 196.892 179.437 197.008 180.425 196.627C181.337 196.247 182.246 194.279 181.945 193.18C181.526 191.513 182.326 191.098 185.397 191.363C189.648 191.781 191.999 190.34 191.999 187.309C191.999 186.21 192.226 185.756 193.023 185.226C196.362 182.951 197.309 181.018 195.793 179.616C195.073 178.97 194.808 178.932 192.796 179.351C189.721 179.996 189.418 179.958 187.94 178.667C186.193 177.153 184.942 177.188 180.995 179.047C179.21 179.881 177.351 180.565 176.859 180.565C176.366 180.565 175.304 179.996 174.508 179.239C172.156 177.118 170.41 177.495 166.805 180.83C165.288 182.233 164.488 182.763 164.377 182.421C163.961 181.095 162.63 180.185 161.114 180.185C159.786 180.185 159.367 180.411 157.889 182.002C155.877 184.123 154.892 184.73 153.411 184.73C152.729 184.769 151.437 185.449 149.694 186.778C148.212 187.916 147 188.788 146.962 188.75C146.696 188.484 150.49 176.015 150.871 175.865C151.098 175.789 152.048 175.6 152.995 175.447C154.515 175.22 154.815 175.297 156.373 176.546C161.002 180.258 165.253 180.827 165.596 177.722C165.784 175.904 166.885 175.447 169.998 175.977C173.868 176.584 174.476 176.546 175.727 175.293C176.562 174.421 176.827 173.814 176.827 172.677C176.827 170.897 177.131 170.706 180.279 170.706C184.831 170.706 186.843 168.773 185.631 165.553L185.023 163.923L187.374 161.725C189.425 159.793 189.725 159.339 189.725 158.125C189.725 156.154 187.905 155.662 185.777 157.026L184.638 157.783L183.388 156.646C181.414 154.94 180.39 155.132 176.935 158.01C174.05 160.435 173.446 160.661 171.51 160.131L170.56 159.866L171.737 159.186C172.988 158.428 174.165 156.799 174.165 155.812C174.165 155.016 175.531 154.106 177.39 153.614C180.425 152.818 182.095 150.847 181.376 148.953C180.883 147.589 181.187 147.058 183.196 145.579C185.131 144.215 186.574 141.979 186.193 141.033C185.777 139.934 184.107 139.858 181.907 140.768C180.502 141.337 179.517 141.525 178.794 141.337C174.808 140.315 172.799 140.807 171.129 143.193C170.56 144.065 169.802 145.011 169.498 145.276C169.005 145.656 168.967 145.541 169.232 144.327C169.613 142.697 170.787 141.333 172.684 140.346C173.442 139.966 174.542 139.094 175.112 138.413C175.947 137.429 176.097 136.934 175.908 135.912C175.758 134.928 175.985 134.056 176.894 132.388C177.805 130.57 177.956 130.04 177.575 129.583C176.817 128.672 175.524 128.938 173.742 130.34C172.223 131.554 171.922 131.628 170.176 131.439C167.521 131.174 165.924 132.085 164.597 134.736C163.612 136.707 163.535 136.746 162.053 136.63C160.118 136.515 159.51 137.349 158.979 141.065C158.619 143.894 157.404 146.814 156.684 146.814C156.419 146.814 156.342 146.246 156.495 145.185C156.611 144.313 156.799 141.773 156.95 139.537C157.1 137.339 157.292 135.367 157.442 135.179C158.127 134.157 160.289 133.17 162.64 132.793C166.738 132.147 168.37 131.087 168.977 128.624C169.093 128.093 170.078 127.033 171.178 126.199L173.114 124.758L172.887 122.71C172.698 120.966 172.81 120.362 173.606 118.768C174.707 116.608 174.784 116.001 174.022 115.394C173.302 114.787 171.329 115.621 169.886 117.139C168.936 118.161 168.635 118.276 167.192 118.122C166.281 118.007 165.218 118.122 164.803 118.311C164.156 118.653 163.853 118.538 162.867 117.515C161.425 116.036 161.425 115.924 162.413 113.8C163.591 111.148 163.437 109.442 161.844 107.925C160.628 106.826 160.516 106.484 160.516 104.666C160.516 103.452 160.289 102.315 159.908 101.784C159.227 100.8 159.035 100.762 157.896 101.558C156.681 102.43 155.961 104.363 155.961 106.826C155.961 108.532 155.811 109.062 155.088 109.669C154.633 110.084 153.798 110.845 153.191 111.375C151.902 112.512 151.902 113.496 153.191 115.998L154.176 118.007L153.191 118.803C151.482 120.128 151.825 122.215 154.214 124.828C155.126 125.85 155.164 125.965 154.441 125.397C152.164 123.617 151.025 122.326 150.609 121.077C150.001 119.221 149.32 118.499 147.762 118.196C147.042 118.084 145.523 117.212 144.384 116.301C143.245 115.352 142.068 114.595 141.764 114.595C140.852 114.595 140.398 115.579 140.436 117.285C140.475 118.196 140.286 119.483 140.02 120.128C139.301 121.796 139.793 123.045 141.537 124.221C142.902 125.093 143.056 125.397 143.056 126.761C143.056 127.936 143.322 128.543 144.157 129.412C144.764 130.019 145.638 130.511 146.092 130.511C147.647 130.511 148.37 131.195 148.37 132.709C148.37 135.095 149.547 135.891 152.391 135.587C155.011 135.284 155.769 135.929 155.615 138.316C155.5 140.855 154.553 147.941 154.326 148.206C154.06 148.471 153.302 145.743 153.302 144.494C153.302 143.053 152.583 141.121 151.482 139.645C150.647 138.546 150.382 138.396 149.281 138.584C147.727 138.849 147.269 138.204 147.308 135.933C147.346 133.243 145.599 131.272 143.21 131.272C142.602 131.272 141.463 130.515 139.832 128.997C137.935 127.253 137.1 126.722 136.226 126.722C135.315 126.722 134.976 126.949 134.672 127.744C134.445 128.352 134.368 129.335 134.445 130.019C134.633 131.003 134.483 131.345 133.725 131.837C132.206 132.821 132.475 134.68 134.371 136.536C135.661 137.75 135.853 138.127 135.549 138.734C135.322 139.153 134.675 139.491 133.917 139.53C133.198 139.606 132.247 139.872 131.793 140.175C130.693 140.894 129.477 140.894 127.696 140.137C125.837 139.38 123.975 139.722 123.144 140.971C122.801 141.501 122.193 142.258 121.778 142.677C121.397 143.057 121.058 143.66 121.058 144.002C121.058 144.986 123.109 146.731 124.813 147.184C126.406 147.599 126.445 147.638 126.218 148.928C125.991 149.989 126.103 150.369 126.899 151.165C127.696 151.96 128.188 152.114 130.162 152.114H132.478L131.72 153.098C130.658 154.423 130.735 155.334 131.909 156.51C132.82 157.455 132.971 157.493 135.93 157.228L139.004 156.963L138.738 157.985C138.054 160.752 140.104 162.305 144.925 162.685C148.681 163.027 148.911 163.103 149.708 164.656C150.277 165.678 150.239 165.982 149.288 169.09C147.503 175.039 147.315 175.572 147.276 174.358C147.238 173.259 146.061 171.818 145.191 171.818C144.167 171.818 143.444 170.228 143.444 168.03C143.444 166.742 143.217 165.605 142.836 165.075C142.155 164.091 140.597 163.976 139.385 164.809C137.942 165.793 137.372 165.19 137.372 162.65C137.372 160.794 137.222 160.264 136.422 159.503C135.245 158.289 134.068 158.289 132.778 159.541C131.451 160.829 130.92 160.452 130.92 158.292C130.92 157.193 130.693 156.283 130.274 155.829C129.516 154.957 127.542 154.957 126.099 155.791C124.848 156.51 123.252 156.244 122.379 155.222C120.632 153.213 120.216 152.874 119.304 152.874C118.773 152.874 117.292 153.405 116.041 154.088C113.802 155.264 113.725 155.302 112.625 154.657C111.79 154.165 111.336 154.127 110.766 154.392C109.855 154.884 109.855 155.076 110.766 157.12C111.601 159.091 112.663 160.075 114.714 160.871C115.93 161.289 116.268 161.628 116.195 162.196C116.118 162.577 116.045 163.484 116.006 164.129C115.93 165.151 115.818 165.343 115.248 165.151C114.868 165.04 114.148 165.19 113.655 165.532C113.163 165.874 112.517 166.139 112.251 166.139C111.986 166.139 110.808 165.116 109.631 163.864C107.088 161.097 106.33 160.982 104.356 163.107C103.598 163.941 102.763 164.621 102.536 164.621C102.309 164.621 101.778 164.129 101.32 163.522C100.297 162.043 99.1961 161.704 98.2459 162.577C97.2223 163.522 97.3341 165.305 98.5114 166.554C99.4616 167.538 99.4616 167.614 98.8537 168.525C98.2843 169.436 98.2843 169.586 98.8537 170.685C99.1961 171.33 99.7655 171.972 100.104 172.087C100.447 172.202 101.32 172.541 101.963 172.806L103.214 173.298L102.263 174.32C101.163 175.534 101.086 176.595 101.998 177.805C102.91 178.981 105.034 179.396 108.6 179.131C110.613 178.981 111.559 179.054 111.559 179.319C111.559 179.888 109.282 182.086 108.904 181.859C108.754 181.782 107.727 181.936 106.665 182.278C105.565 182.581 104.387 182.731 104.045 182.62C103.703 182.505 102.679 181.406 101.767 180.157C99.7935 177.467 97.9349 176.633 95.8843 177.467C93.2642 178.527 92.6983 178.451 90.8747 176.783C89.0162 175.077 88.0276 174.85 86.9271 175.949C86.3193 176.556 85.8651 176.668 84.7647 176.479C83.6643 176.291 83.2486 176.403 82.8678 176.933C81.956 178.186 82.2983 179.131 84.3105 181.025L86.2843 182.843L85.6381 183.942C84.6878 185.533 84.8416 186.859 86.0922 188.15C87.3429 189.364 88.1428 189.475 91.0249 188.795C92.0869 188.568 93.0371 188.453 93.1489 188.568C93.2642 188.683 92.9603 189.44 92.3909 190.197C90.0747 193.644 92.3524 196.868 96.1114 195.466C99.2974 194.251 102.525 194.443 100.132 195.692C98.9935 196.299 98.2738 198.232 98.6895 199.481C99.0703 200.542 100.814 201.756 101.952 201.756C102.372 201.756 103.699 201.414 104.911 200.999C106.962 200.315 108.517 200.277 108.517 200.922C108.517 201.072 107.986 201.944 107.378 202.893C106.162 204.711 106.012 205.66 106.62 207.251C107.227 208.88 108.593 209.107 111.172 208.008C113.561 207.024 114.815 206.832 115.727 207.439C116.181 207.743 116.181 207.969 115.612 209.145C114.7 211.078 114.777 212.592 115.954 213.729C116.978 214.79 117.32 214.79 121.495 213.845C123.241 213.464 124.15 213.426 125.781 213.768C127.716 214.186 132.422 216.042 132.422 216.419C132.422 216.646 122.253 238.552 122.064 238.779C121.949 238.894 121.533 238.399 121.152 237.68C120.583 236.619 120.471 235.482 120.471 229.799C120.433 223.812 120.356 223.051 119.713 222.144C118.728 220.819 117.589 220.327 115.538 220.327C113.376 220.327 112.995 219.681 113.565 217.03C114.096 214.452 113.641 213.126 111.972 212.292C110.794 211.723 110.529 211.685 109.317 212.215C108.597 212.519 107.685 213.011 107.381 213.314C106.015 214.563 105.484 213.656 105.484 210.056C105.484 207.516 104.915 205.66 103.965 205.168C102.826 204.561 101.006 204.714 99.3742 205.548C98.5393 206.002 97.7044 206.232 97.5157 206.117C97.3271 206.005 96.831 204.753 96.3769 203.312C95.9577 201.909 95.238 200.395 94.7454 199.938C93.7219 198.993 91.9751 198.878 90.9131 199.673C89.5088 200.734 88.5621 200.353 86.8153 198.044C84.6145 195.2 83.0599 194.708 80.894 196.226L79.4128 197.248L77.6276 196.453C75.4652 195.542 73.68 195.469 72.5412 196.264C71.7831 196.795 71.556 196.795 69.9246 196.226C68.5202 195.734 67.8739 195.696 67.039 196.038C65.6346 196.606 65.7115 197.629 67.3429 199.185C68.3665 200.134 68.632 200.664 68.4818 201.306C68.101 202.785 69.2399 204.261 71.2137 205.018C73.9071 206.002 74.3263 206.459 73.3377 207.519C71.4023 209.641 71.1368 211.877 72.6914 213.091C73.6032 213.81 74.0189 213.848 77.0547 213.621C80.7368 213.356 80.9638 213.506 79.8634 215.404C78.9901 216.957 79.1438 218.663 80.2826 219.535C81.5333 220.519 83.4337 220.557 85.935 219.611C86.9586 219.231 88.2127 218.778 88.7053 218.628L89.5786 218.363L88.8206 219.915C87.6817 222.113 87.7586 224.234 89.0092 225.221C90.4136 226.32 91.1717 226.244 93.9419 224.691C96.293 223.365 97.8895 222.985 97.8895 223.746C97.8895 223.972 97.5472 224.806 97.1699 225.563C96.031 227.761 95.8424 229.544 96.5236 230.87C97.5472 232.879 98.686 232.841 101.799 230.72C104.758 228.672 106.085 229.091 104.719 231.592C103.884 233.183 103.734 235.381 104.454 236.291C105.631 237.806 106.578 237.921 109.31 236.822C112.195 235.646 112.953 235.723 112.953 237.237C112.953 238.755 114.169 239.512 116.901 239.815C118.913 240.042 120.352 240.461 120.96 241.029C121.226 241.218 109.537 263.919 109.271 263.727C108.702 263.385 108.02 259.939 107.982 257.322C107.982 255.843 108.132 252.661 108.286 250.236L108.628 245.879L107.378 244.476C105.785 242.62 104.646 242.62 102.749 244.476L101.345 245.84L100.925 244.818C100.737 244.249 100.545 242.658 100.545 241.256C100.506 235.381 97.624 233.448 94.0572 236.86C92.8799 237.997 92.6529 238.113 92.2372 237.617C91.9717 237.275 91.6293 235.534 91.4791 233.713C91.3289 231.892 90.9865 229.998 90.7594 229.544C90.1131 228.368 88.7856 227.535 87.5734 227.535C86.4346 227.535 86.2075 227.761 85.3341 229.998C84.1953 232.764 82.8293 231.627 81.0093 226.359C79.9088 223.139 78.1621 222.19 76.1534 223.742C75.6224 224.161 74.9761 225.106 74.749 225.825C74.5219 226.544 74.1412 227.151 73.9525 227.151C73.7639 227.151 72.8137 225.787 71.8669 224.119C68.7927 218.851 66.5534 217.829 65.0757 220.972C64.2023 222.905 63.1403 223.093 61.8128 221.579C59.3849 218.889 58.0923 217.675 57.5997 217.675C56.5762 217.675 55.0181 219.193 55.0181 220.177C55.0181 221.391 54.4102 221.314 52.5902 219.95C51.0356 218.774 49.4042 218.509 48.6426 219.266C47.9229 219.985 48.1116 221.502 49.0234 222.486C49.8199 223.358 49.8199 223.432 49.212 224.457C47.9229 226.694 48.7928 228.246 52.2478 229.802C53.5369 230.409 54.6373 231.051 54.6373 231.282C54.6373 231.47 54.0679 232 53.3482 232.419C51.867 233.329 50.8435 234.732 50.8435 235.831C50.8435 236.892 52.5902 238.824 53.8024 239.089C54.4102 239.205 55.9648 239.051 57.2923 238.748C58.6583 238.406 60.2513 238.14 60.8591 238.14H61.9211L60.5936 239.62C58.7351 241.668 58.3543 242.536 58.6198 243.866C58.8853 245.041 60.6705 246.482 61.9211 246.482C62.2635 246.482 63.6294 245.952 64.9569 245.345C67.5735 244.092 69.4739 243.639 70.3822 243.981C70.8748 244.169 70.8014 244.434 69.8512 245.648C68.1429 247.731 67.9927 249.095 69.2434 250.575C70.494 252.089 71.9752 252.165 75.0494 250.878C77.4005 249.894 80.1708 249.326 80.7787 249.664C80.9673 249.814 80.5516 250.878 79.8285 252.05C78.1586 254.817 78.1586 256.028 79.8285 257.695C81.4215 259.286 82.749 259.363 86.2808 258.037C87.6852 257.507 89.3935 257.088 90.1131 257.088H91.4406L90.1131 259.021C88.6704 261.142 88.4433 262.545 89.3551 264.251C90.3402 266.183 91.4057 266.26 95.9192 264.631C100.094 263.152 102.71 263.228 105.938 264.858C107.154 265.465 108.139 266.072 108.139 266.222C108.139 266.637 95.9577 291.195 95.769 291.195C95.6537 291.195 95.6922 288.428 95.8459 285.016C96.0729 279.333 96.0345 278.802 95.3917 278.157C94.8607 277.588 94.3297 277.512 92.6983 277.665C90.8014 277.853 90.6861 277.815 90.459 276.908C90.3088 276.378 90.3088 274.898 90.4206 273.611C90.99 267.471 88.8276 265.273 84.2721 267.321C83.3603 267.739 82.487 268.078 82.3368 268.078C81.956 268.078 81.3132 266.41 80.8206 264.212C80.2512 261.599 79.6817 260.573 78.2774 259.701C76.7228 258.717 75.811 258.983 73.722 260.95C72.8486 261.822 71.9019 262.391 71.6364 262.276C71.3324 262.199 70.6128 260.835 70.0434 259.321C68.639 255.644 67.6923 254.168 66.4381 253.523C64.9569 252.727 63.5176 253.181 62.1866 254.848C61.5403 255.682 60.7054 256.328 60.3281 256.328C59.3779 256.328 58.2425 254.813 57.2923 252.235C55.4722 247.421 52.398 246.398 49.3622 249.657C48.2234 250.871 47.6155 250.568 45.4531 247.724C43.4409 245.073 42.1518 244.466 40.1011 245.184C38.1273 245.903 38.0889 245.903 37.5579 244.577C36.4959 241.999 34.3719 240.9 32.7754 242.114C31.7518 242.871 31.1824 242.833 29.8898 241.734C28.7125 240.75 27.3466 240.52 26.1344 241.165C25.1842 241.696 25.1842 243.478 26.1344 245.561L26.8156 247.075L25.9422 248.136C25.4497 248.705 25.0305 249.577 25.0305 250.069C25.0305 251.053 26.2811 252.152 27.42 252.152C27.8007 252.152 28.6357 252.417 29.2785 252.759C30.302 253.289 30.3789 253.477 30.1903 254.538C29.544 257.835 29.509 259.237 30.075 260.601C30.606 261.777 30.8715 262.004 31.8566 262.004C32.5029 262.004 33.5649 261.739 34.1728 261.397C35.5387 260.713 37.1317 260.828 37.6627 261.662C37.9282 262.116 37.778 262.646 37.0164 263.745C35.6505 265.789 35.6889 267.76 37.1317 269.24C38.6479 270.719 40.0522 270.681 43.5072 268.974C45.9352 267.76 46.4277 267.649 47.2627 268.026C48.6286 268.633 48.7055 269.278 47.6435 271.438C46.2775 274.054 46.316 276.441 47.6435 277.501C48.8592 278.45 49.5404 278.335 53.6382 276.325C57.0548 274.696 57.3587 274.658 58.0399 275.453C58.4591 275.945 58.4591 276.552 58.0784 278.6C57.5858 281.367 57.8897 282.919 59.1019 283.83C60.1639 284.664 61.5683 284.437 65.5543 282.846C69.6905 281.178 70.6023 281.028 71.3604 281.935C71.7412 282.389 71.7412 282.958 71.3988 284.702C70.6792 288.076 70.8294 290.12 71.818 291.599C73.0337 293.417 74.7385 293.532 78.0398 291.941C79.6713 291.146 80.8101 290.804 81.418 290.957C82.2529 291.184 82.3298 291.411 82.3298 293.194C82.3298 294.408 82.5568 295.507 82.9376 296.075C83.6957 297.136 84.873 297.024 88.5166 295.622C91.5909 294.408 92.6529 294.181 93.2992 294.561C93.907 294.942 92.9568 296.759 86.8852 307.104C84.873 310.55 82.0293 315.442 80.5866 317.978C78.4625 321.729 77.8931 322.489 77.5892 321.959C77.0966 321.048 77.135 317.298 77.7778 310.892C78.2704 305.739 78.2704 305.321 77.6276 304.337C76.7543 303.05 75.7691 303.05 74.2879 304.26C73.68 304.79 72.9988 305.206 72.8067 305.206C72.087 305.206 71.3639 303.35 71.0984 300.848C70.5289 294.938 68.1779 292.852 64.9115 295.392C62.8993 296.983 62.1028 296.037 61.3831 291.261C60.8521 287.661 59.7133 286.258 57.3971 286.258C56.2198 286.258 55.6504 286.523 54.6268 287.584C53.9072 288.302 53.1072 288.909 52.8067 288.909C52.5412 288.909 51.9718 288.114 51.5561 287.092C49.5055 282.242 48.709 280.802 47.6085 280.118C45.9387 279.134 44.9535 279.284 43.2837 280.763C42.4872 281.482 41.5369 282.089 41.1981 282.089C40.8557 282.089 40.0208 281.293 39.3396 280.31C36.3038 275.799 34.5955 275.042 32.8523 277.355C32.2828 278.073 31.7134 278.68 31.5632 278.68C31.413 278.68 30.4628 278 29.4392 277.166C27.6191 275.649 25.9877 275.233 25.1877 276.029C24.9606 276.256 24.2025 275.952 22.9868 275.083C20.7091 273.492 19.8357 273.189 19.1545 273.758C18.2427 274.515 18.5082 275.956 19.8008 277.773C20.8628 279.252 20.9396 279.553 20.5589 280.39C19.42 282.853 20.1781 284.179 23.4794 285.658C24.3143 286.077 25.0339 286.569 25.0339 286.834C25.0339 287.06 24.4645 287.817 23.7449 288.501C22.075 290.092 21.3169 292.594 21.9982 294.223C22.6829 295.814 24.5029 296.271 27.5003 295.549C28.751 295.245 30.4977 295.018 31.4095 294.98H33.0793L31.371 296.951C29.3204 299.376 28.5623 301.689 29.2855 303.241C30.0435 304.832 31.675 304.794 33.764 303.165C35.8881 301.497 38.8854 300.398 39.647 301.044C40.0627 301.385 39.9509 301.877 39.0007 303.96C37.5963 306.915 37.4077 310.062 38.5081 311.273C39.647 312.522 41.24 312.218 44.1605 310.289C46.5884 308.66 49.0164 307.672 49.474 308.129C49.5893 308.244 49.3972 308.963 49.0932 309.72C47.4618 313.471 47.0077 316.994 47.9928 318.815C48.978 320.748 50.7247 320.86 54.1028 319.269C55.3919 318.662 56.9884 318.055 57.6696 317.905L58.8853 317.64L58.6583 319.081C57.9735 323.438 57.9386 324.16 58.5814 325.106C59.5666 326.585 61.2748 326.393 63.5141 324.537C64.4993 323.703 65.6381 323.023 66.0189 323.023C66.777 323.023 68.2966 324.691 68.2966 325.524C68.2966 325.79 68.7159 326.32 69.2469 326.662C70.3089 327.342 71.2591 327.154 73.2329 325.828C73.9525 325.336 75.0145 324.917 75.6224 324.917H76.646L75.9263 326.32C75.5455 327.115 74.1062 329.578 72.7752 331.776C71.4862 333.974 69.0198 338.447 67.3499 341.705C65.6801 344.964 64.1988 347.654 64.087 347.654C63.5945 347.654 62.9098 343.07 63.1019 341.325C63.7482 335.83 63.7866 335.3 63.2906 334.389C62.5709 333.064 60.2932 332.572 58.5465 333.406C57.8268 333.748 57.0652 333.936 56.8766 333.824C56.688 333.674 56.5342 332.537 56.5342 331.246C56.5342 328.253 56.0032 326.397 54.7875 324.917C53.6102 323.553 52.2443 323.438 50.2705 324.575C49.0199 325.333 48.8662 325.333 48.2583 324.764C47.8775 324.46 47.1963 323.096 46.7037 321.732C46.2496 320.406 45.2994 318.7 44.5797 317.943C42.9099 316.126 41.5055 316.126 39.0391 317.943L37.1806 319.307L35.6994 316.126C33.8793 312.222 32.8523 311.238 30.4627 311.011C28.3003 310.784 27.5772 311.391 26.8191 313.966C26.1379 316.352 25.2645 316.202 23.3292 313.359C21.7746 311.046 19.951 309.759 18.2811 309.759C17.3694 309.759 15.0951 311.691 14.7143 312.79C14.5641 313.244 14.2986 313.132 13.5371 312.298C12.8908 311.653 12.1711 311.276 11.4864 311.276C10.2358 311.276 8.71612 312.222 8.71612 312.944C8.71612 313.589 7.88119 313.928 6.24975 313.928C3.25239 313.928 2.41745 316.809 5.11089 317.943C6.4384 318.474 6.78075 319.004 6.0611 319.423C5.5301 319.764 5.60696 321.013 6.13796 321.394C6.40347 321.544 7.46546 321.774 8.48904 321.886L10.3476 322.074L10.4244 324.157C10.5013 326.582 11.0707 327.834 12.3213 328.326C13.4218 328.745 14.4838 328.441 16.7999 327.039C17.7851 326.432 18.6969 326.016 18.7737 326.128C18.8506 326.205 18.5082 327.189 17.9772 328.326C17.4462 329.463 16.9152 331.208 16.7999 332.153C16.6113 333.632 16.7231 334.048 17.4078 334.731C18.6235 335.945 20.8977 335.792 24.0872 334.278C25.5684 333.559 27.2383 332.875 27.8427 332.725L28.9431 332.46L27.5772 333.978C25.6802 336.061 25.0339 337.463 25.0339 339.511C25.0339 340.952 25.2226 341.482 26.1344 342.393C27.8811 344.137 29.4357 343.757 33.3064 340.575C35.3186 338.984 37.2156 338.454 37.7466 339.326C37.8618 339.553 37.3658 340.917 36.6461 342.396C35.8881 343.91 35.2802 345.655 35.2802 346.339C35.2802 349.332 38.3928 349.597 42.6409 346.907C44.3107 345.847 45.7919 345.24 46.8924 345.09C47.8042 345.013 48.5622 345.013 48.5622 345.128C48.5622 345.205 48.2199 346.039 47.8042 346.946C46.019 350.888 47.4234 354.373 50.6513 353.993C51.5247 353.916 52.929 353.386 53.8373 352.817C55.9998 351.453 58.1622 350.696 59.9473 350.696C62.7561 350.696 62.7561 350.696 60.136 356.191C57.7849 361.117 55.5805 366.727 53.0792 374.382L51.8635 378.132L51.1439 376.084C50.7247 374.947 50.2321 372.295 50.0435 370.209C49.474 364.372 48.3352 362.666 45.6033 363.538C44.7684 363.842 43.9334 363.957 43.7064 363.804C43.4793 363.688 42.8714 362.213 42.302 360.545C41.1247 356.983 39.5701 355.05 38.2426 355.427C37.7501 355.577 36.8383 356.299 36.157 357.056C35.1335 358.27 34.9064 358.344 34.337 357.89C33.9946 357.625 33.3518 356.714 32.9326 355.88C32.5169 355.047 31.413 353.533 30.4662 352.545C29.0235 350.993 28.4925 350.689 27.392 350.689C26.2916 350.689 25.7606 350.993 24.5064 352.395C22.7248 354.29 23.1789 354.366 19.2314 351.523C16.7266 349.744 15.5108 349.59 14.4488 350.916C13.7292 351.826 13.6523 352.28 13.841 353.606C14.1065 355.5 13.9178 355.577 11.7554 354.478C9.21219 353.191 6.0646 353.794 6.0646 355.615C6.0646 356.03 5.87595 356.753 5.64888 357.245C5.30652 358.002 4.8908 358.228 3.2978 358.382C1.89344 358.497 1.17379 358.801 0.677721 359.404C0.303923 359.868 0 360.36 0 360.51ZM162.64 150.073C162.452 150.83 162.186 150.983 160.932 150.983C159.112 150.983 158.427 151.702 157.896 154.395C157.404 156.747 156.377 158.715 155.276 159.283C154.591 159.625 154.591 159.548 155.049 156.743C155.276 155.152 155.619 152.839 155.734 151.664C155.999 149.693 156.115 149.504 157.177 149.124C157.861 148.897 159.262 148.594 160.363 148.478C162.529 148.213 163.021 148.555 162.64 150.073ZM151.182 173.605C151.143 173.566 151.636 171.484 152.321 168.982C153.005 166.481 153.687 163.979 153.84 163.372C154.144 162.123 155.36 162.008 157.18 163.107C157.977 163.599 159.115 163.864 160.293 163.864C162.039 163.864 162.305 163.749 163.783 162.158C164.96 160.871 165.756 160.34 166.818 160.187L168.261 159.96L167.046 161.059C166.364 161.666 165.264 162.992 164.579 164.052C163.402 165.87 163.29 165.947 161.163 166.174C158.773 166.439 158.012 166.931 156.268 169.471C155.357 170.765 151.486 173.947 151.182 173.605ZM150.728 161.439C150.158 160.19 149.058 154.73 149.323 154.465C149.439 154.354 149.893 154.2 150.347 154.123C150.801 154.047 151.524 153.67 151.978 153.289C154.064 151.395 154.102 151.775 152.433 157.912C151.294 162.008 151.143 162.311 150.728 161.439ZM118.738 185.051C119.231 185.355 119.231 185.62 118.777 186.946C118.396 188.16 118.358 188.725 118.738 189.486C119.308 190.735 119.042 191.003 117.788 190.47C117.18 190.166 116.461 189.221 115.853 187.853C114.903 185.805 114.903 185.693 115.549 185.201C116.345 184.633 117.938 184.556 118.738 185.051ZM131.22 174.212L130.766 175.918L130.047 175.007C129.212 173.947 128.642 173.87 127.126 174.665C126.103 175.196 125.949 175.196 125.268 174.515C124.848 174.097 124.317 173.074 124.09 172.202C123.636 170.458 122.155 169.436 121.358 170.231C120.181 171.407 118.55 170.458 117.565 168.033L116.995 166.707L119.992 166.631C121.624 166.592 122.99 166.592 122.99 166.631C123.028 166.669 123.105 167.426 123.14 168.337C123.329 171.18 125.191 172.352 128.946 171.975C130.351 171.825 131.297 171.86 131.451 172.125C131.563 172.356 131.486 173.301 131.22 174.212ZM139.608 194.715C138.85 193.086 138.773 192.367 138.85 188.464L138.927 184.029L137.75 183.045C137.103 182.515 136.08 182.062 135.51 182.062C134.448 182.062 132.59 180.432 131.678 178.726C131.147 177.627 131.374 177.247 132.097 178.119C132.628 178.765 133.236 178.765 139.154 178.042C140.862 177.816 141.355 177.927 142.836 178.8C145.645 180.467 145.757 180.771 144.695 184.636C143.594 188.652 141.62 194.412 140.974 195.664C140.52 196.571 140.481 196.571 139.608 194.715ZM132.663 212.676C132.055 211.123 132.017 210.363 132.321 206.993C132.74 202.216 132.663 201.686 131.105 200.018C130.043 198.881 129.662 198.731 127.992 198.731C126.93 198.731 125.907 198.504 125.676 198.239C125.449 198.012 124.995 196.687 124.653 195.322C124.31 193.997 123.779 192.406 123.475 191.837L122.906 190.777H124.803H126.661L125.865 192.709C125.107 194.454 125.107 194.681 125.638 195.626C126.092 196.498 126.511 196.687 128.027 196.763C129.013 196.84 130.759 196.613 131.898 196.233C134.857 195.322 137.439 195.626 138.881 197.105L140.02 198.243L137.4 204.648C135.957 208.172 134.441 211.811 134.061 212.756L133.302 214.424L132.663 212.676Z" fill="#F5F5F5"/>
<path d="M221.2 156.25C212.567 156.25 208.25 152.05 208.25 143.65C208.25 140.383 210.7 137.7 215.6 135.6C220.5 133.267 226.917 131.4 234.85 130C243.017 128.367 251.65 127.2 260.75 126.5C270.083 125.8 279.067 125.333 287.7 125.1C296.333 124.633 303.917 124.4 310.45 124.4C316.983 124.167 321.3 124.05 323.4 124.05H342.65C360.617 124.05 378.817 124.4 397.25 125.1C415.683 125.8 433.417 127.783 450.45 131.05C451.383 131.283 453.017 131.75 455.35 132.45C457.917 132.917 460.25 133.733 462.35 134.9C464.683 135.833 465.85 137.117 465.85 138.75C465.85 139.917 464.8 140.733 462.7 141.2C460.833 141.433 459.2 141.55 457.8 141.55C454.767 141.55 451.617 141.317 448.35 140.85C445.083 140.383 441.817 139.917 438.55 139.45C428.983 137.817 419.067 136.883 408.8 136.65C398.767 136.417 388.733 136.3 378.7 136.3C360.967 136.3 343.117 136.65 325.15 137.35C307.183 137.817 289.333 139.1 271.6 141.2C271.133 143.067 268.683 144.933 264.25 146.8C259.817 148.667 254.567 150.3 248.5 151.7C242.667 153.1 237.067 154.267 231.7 155.2C226.567 155.9 223.067 156.25 221.2 156.25ZM249.55 355.75C244.417 355.75 240.8 353.883 238.7 350.15C236.6 346.65 235.55 342.45 235.55 337.55C235.55 329.617 237.3 320.167 240.8 309.2C244.3 298 248.85 286.217 254.45 273.85C260.05 261.25 266 248.883 272.3 236.75C278.6 224.383 284.55 213.183 290.15 203.15C295.75 192.883 300.417 184.6 304.15 178.3C306.95 173.4 309.867 168.15 312.9 162.55C315.933 156.717 319.2 151.583 322.7 147.15C323.867 145.517 325.85 144.467 328.65 144C331.45 143.533 333.667 143.3 335.3 143.3C337.167 143.3 339.267 143.65 341.6 144.35C343.933 145.05 345.217 146.683 345.45 149.25C345.45 151.117 344.983 152.983 344.05 154.85C343.35 156.483 342.533 158 341.6 159.4C331.1 176.433 320.6 192.767 310.1 208.4C299.6 224.033 289.8 240.833 280.7 258.8C278.833 262.533 276.033 267.783 272.3 274.55C268.567 281.083 264.717 288.317 260.75 296.25C257.017 304.183 253.75 312 250.95 319.7C248.383 327.4 247.1 334.167 247.1 340C247.1 340.933 247.217 342.45 247.45 344.55C247.917 346.65 249.2 347.7 251.3 347.7C252.467 347.7 253.05 348.75 253.05 350.85C253.05 352.017 252.7 353.067 252 354C251.533 355.167 250.717 355.75 249.55 355.75ZM409.623 336.15C407.523 336.15 405.073 335.217 402.273 333.35C399.706 331.483 397.49 329.383 395.623 327.05C393.756 324.483 392.823 322.15 392.823 320.05C392.823 316.55 394.106 311.883 396.673 306.05C399.24 299.983 402.156 294.033 405.423 288.2C408.923 282.367 411.606 278.05 413.473 275.25C410.206 278.05 406.006 282.6 400.873 288.9C395.973 294.967 390.606 301.5 384.773 308.5C379.173 315.267 373.69 321.1 368.323 326C363.19 330.9 358.756 333.35 355.023 333.35C349.89 333.35 345.69 331.6 342.423 328.1C339.39 324.367 337.873 319.933 337.873 314.8C337.873 307.8 339.856 300.333 343.823 292.4C347.79 284.233 352.923 276.417 359.223 268.95C365.756 261.25 372.756 254.25 380.223 247.95C387.923 241.65 395.39 236.633 402.623 232.9C410.09 229.167 416.74 227.3 422.573 227.3C428.873 227.3 434.006 228.817 437.973 231.85C441.94 234.65 443.923 238.967 443.923 244.8C443.923 245.733 443.69 247.483 443.223 250.05C442.99 252.617 442.173 253.9 440.773 253.9C440.073 253.9 438.906 252.85 437.273 250.75C435.873 248.65 433.89 246.55 431.323 244.45C428.756 242.35 425.49 241.3 421.523 241.3C414.99 241.3 408.106 243.75 400.873 248.65C393.873 253.317 387.106 259.383 380.573 266.85C374.04 274.083 368.323 281.55 363.423 289.25C358.523 296.95 354.79 303.6 352.223 309.2C351.523 310.833 350.823 312.583 350.123 314.45C349.656 316.317 349.423 318.183 349.423 320.05C349.423 322.15 350.006 323.2 351.173 323.2C352.34 323.2 354.79 321.917 358.523 319.35C362.49 316.783 365.29 314.917 366.923 313.75C375.09 307.917 382.79 301.267 390.023 293.8C397.49 286.333 404.14 278.633 409.973 270.7C411.84 268.133 413.59 265.567 415.223 263C416.856 260.433 418.49 257.983 420.123 255.65C421.29 254.017 422.456 253.2 423.623 253.2C426.19 253.2 428.64 254.95 430.973 258.45C433.54 261.95 434.823 264.983 434.823 267.55C434.823 268.717 434.59 269.417 434.123 269.65C433.89 269.883 433.19 270.583 432.023 271.75C428.523 275.25 425.023 280.15 421.523 286.45C418.256 292.75 415.34 299.167 412.773 305.7C410.44 312 408.69 317.367 407.523 321.8C407.29 322.5 407.056 323.433 406.823 324.6C406.823 325.533 407.406 325.883 408.573 325.65C410.906 324.95 414.64 322.383 419.773 317.95C425.14 313.283 430.856 308.033 436.923 302.2C443.223 296.133 448.823 290.533 453.723 285.4C458.856 280.267 462.24 276.65 463.873 274.55C464.34 274.083 464.806 273.617 465.273 273.15C465.973 272.45 466.673 272.1 467.373 272.1C469.006 272.1 469.823 272.917 469.823 274.55C469.823 275.483 467.956 278.283 464.223 282.95C460.49 287.383 455.823 292.633 450.223 298.7C444.623 304.533 438.906 310.367 433.073 316.2C427.24 321.8 422.106 326.583 417.673 330.55C413.473 334.283 410.79 336.15 409.623 336.15ZM592.832 337.2C590.265 337.2 587.232 336.15 583.732 334.05C580.232 332.183 577.082 329.85 574.282 327.05C571.715 324.017 570.432 320.983 570.432 317.95C570.432 313.983 572.065 308.967 575.332 302.9C578.598 296.833 582.565 290.533 587.232 284C592.132 277.467 596.798 271.4 601.232 265.8C605.898 259.967 609.632 255.3 612.432 251.8C615.698 247.6 617.215 245.267 616.982 244.8C616.748 244.1 616.632 243.4 616.632 242.7C610.098 245.967 602.748 250.867 594.582 257.4C586.415 263.7 578.598 270.35 571.132 277.35C563.665 284.35 557.598 290.65 552.932 296.25C549.665 299.983 546.515 303.95 543.482 308.15C540.682 312.117 537.882 316.2 535.082 320.4C533.448 322.733 531.348 325.183 528.782 327.75C526.448 330.317 523.765 331.6 520.732 331.6C519.098 331.6 517.582 331.017 516.182 329.85C515.015 328.683 514.432 327.283 514.432 325.65C514.432 322.383 516.532 317.483 520.732 310.95C525.165 304.183 529.715 296.833 534.382 288.9C537.415 283.767 540.682 278.517 544.182 273.15C547.915 267.55 551.065 262.533 553.632 258.1C556.432 253.667 557.832 250.633 557.832 249H557.482C556.782 249 555.148 249.583 552.582 250.75C550.248 251.917 548.965 252.617 548.732 252.85C537.298 260.55 526.332 270.117 515.832 281.55C505.565 292.983 496.115 303.833 487.482 314.1C485.848 316.2 484.098 318.417 482.232 320.75C480.365 322.85 478.498 324.95 476.632 327.05C475.698 327.983 474.415 328.8 472.782 329.5C471.148 329.967 469.632 330.2 468.232 330.2C466.832 330.2 464.848 329.733 462.282 328.8C459.948 327.867 458.782 326.233 458.782 323.9C458.782 321.1 460.065 317.017 462.632 311.65C465.198 306.283 468.348 300.217 472.082 293.45C476.048 286.683 480.132 280.033 484.332 273.5C488.765 266.733 492.732 260.667 496.232 255.3C499.965 249.7 502.648 245.617 504.282 243.05C497.048 249.35 490.515 255.183 484.682 260.55C479.082 265.683 472.665 272.683 465.432 281.55C464.965 282.017 464.032 282.95 462.632 284.35C461.232 285.75 459.832 286.567 458.432 286.8C457.965 286.8 457.382 286.45 456.682 285.75C456.215 285.05 456.098 284.467 456.332 284C456.565 282.833 458.198 280.5 461.232 277C464.265 273.267 467.998 269.067 472.432 264.4C476.865 259.733 481.298 255.067 485.732 250.4C490.165 245.733 494.015 241.65 497.282 238.15C500.782 234.65 502.882 232.433 503.582 231.5C508.715 226.133 513.265 221.817 517.232 218.55C521.432 215.283 525.398 213.65 529.132 213.65C531.232 213.65 533.682 214.583 536.482 216.45C539.282 218.317 540.682 220.533 540.682 223.1C540.682 224.033 540.448 224.617 539.982 224.85C529.482 233.483 520.148 243.4 511.982 254.6C503.815 265.567 496.115 276.533 488.882 287.5C488.648 287.733 487.832 289.017 486.432 291.35C485.265 293.683 483.865 296.25 482.232 299.05C480.598 301.85 479.198 304.3 478.032 306.4C476.865 308.5 476.398 309.433 476.632 309.2C488.998 297.533 501.948 285.167 515.482 272.1C529.248 258.8 542.548 246.783 555.382 236.05C557.248 234.417 559.348 233.017 561.682 231.85C564.015 230.683 566.465 230.1 569.032 230.1C571.832 230.1 574.048 231.033 575.682 232.9C577.548 234.533 578.482 236.75 578.482 239.55C578.482 242.583 577.548 245.617 575.682 248.65C573.815 251.683 572.065 254.483 570.432 257.05C568.098 261.25 565.532 265.45 562.732 269.65C560.165 273.85 558.298 277.233 557.132 279.8C567.865 270.233 578.132 261.017 587.932 252.15C597.732 243.05 607.648 235.233 617.682 228.7C620.015 227.067 622.815 226.25 626.082 226.25C628.182 226.25 630.865 226.6 634.132 227.3C637.632 228 640.665 229.05 643.232 230.45C646.032 231.85 647.432 233.833 647.432 236.4C647.432 237.8 646.965 239.2 646.032 240.6C645.098 241.767 644.048 242.817 642.882 243.75L626.432 257.75C623.398 260.55 619.665 264.517 615.232 269.65C611.032 274.55 606.832 280.033 602.632 286.1C598.665 291.933 595.282 298 592.482 304.3C589.915 310.6 588.632 316.433 588.632 321.8C588.632 325.067 589.448 326.7 591.082 326.7C592.015 326.7 593.065 326.467 594.232 326C595.398 325.3 596.682 324.6 598.082 323.9C602.982 321.1 608.232 317.017 613.832 311.65C619.432 306.283 624.915 300.567 630.282 294.5C635.882 288.433 640.782 283.067 644.982 278.4C649.182 273.733 652.332 270.817 654.432 269.65C654.898 269.183 655.482 269.067 656.182 269.3C657.115 269.533 657.582 270 657.582 270.7C657.582 271.633 657.115 272.683 656.182 273.85C655.248 275.017 654.548 275.95 654.082 276.65C650.115 281.317 646.382 285.867 642.882 290.3C639.615 294.5 635.882 298.933 631.682 303.6C626.782 309.2 621.298 315.15 615.232 321.45C609.398 327.517 603.215 332.417 596.682 336.15C595.748 336.85 594.465 337.2 592.832 337.2ZM665.744 336.5C661.777 336.5 656.994 334.983 651.394 331.95C645.794 328.917 641.944 325.65 639.844 322.15C638.444 319.817 637.744 317.017 637.744 313.75C637.744 306.283 640.427 296.367 645.794 284C651.394 271.4 658.394 257.867 666.794 243.4C670.527 236.867 675.31 229.283 681.144 220.65C687.21 212.017 693.977 203.15 701.444 194.05C708.91 184.717 716.727 175.85 724.894 167.45C733.294 159.05 741.577 151.7 749.744 145.4C758.144 139.1 766.077 134.667 773.544 132.1C776.577 130.933 779.26 130.35 781.594 130.35C786.027 130.35 789.06 131.867 790.694 134.9C792.56 137.7 795.01 140.033 798.044 141.9C799.91 143.067 800.844 144.933 800.844 147.5C800.844 152.867 797.927 159.283 792.094 166.75C786.26 174.217 778.677 182.15 769.344 190.55C760.01 198.95 749.977 207.35 739.244 215.75C728.51 223.917 718.127 231.5 708.094 238.5C698.294 245.5 689.894 251.333 682.894 256C675.894 260.667 671.46 263.583 669.594 264.75C666.094 271.283 662.827 278.75 659.794 287.15C656.76 295.55 655.244 303.483 655.244 310.95C655.244 313.75 655.594 316.9 656.294 320.4C657.227 323.667 659.56 325.3 663.294 325.3C666.794 325.3 670.877 324.017 675.544 321.45C680.21 318.883 684.76 316.083 689.194 313.05C693.627 309.783 697.127 307.1 699.694 305C705.76 300.1 711.127 295.083 715.794 289.95C720.46 284.817 725.944 278.983 732.244 272.45C732.71 271.983 733.177 271.633 733.644 271.4C734.11 270.933 734.694 270.7 735.394 270.7C736.794 270.7 737.494 271.517 737.494 273.15C737.494 274.55 736.91 275.833 735.744 277C726.41 287.267 716.61 297.883 706.344 308.85C696.31 319.817 685.11 328.45 672.744 334.75C670.41 335.917 668.077 336.5 665.744 336.5ZM680.794 246.55C684.294 245.383 689.194 242.583 695.494 238.15C701.794 233.483 708.794 228 716.494 221.7C724.427 215.4 732.36 208.75 740.294 201.75C748.46 194.517 755.927 187.633 762.694 181.1C769.694 174.333 775.41 168.617 779.844 163.95C784.51 159.05 787.194 155.667 787.894 153.8C788.36 152.4 788.594 151.467 788.594 151C788.594 149.133 787.66 147.85 785.794 147.15C784.16 146.45 782.294 146.1 780.194 146.1C779.027 146.1 777.86 146.217 776.694 146.45C775.527 146.683 774.477 146.917 773.544 147.15C769.577 148.55 764.327 152.05 757.794 157.65C751.26 163.017 744.26 169.667 736.794 177.6C729.327 185.3 721.86 193.467 714.394 202.1C707.16 210.733 700.51 219.017 694.444 226.95C688.61 234.65 684.06 241.183 680.794 246.55ZM670.783 467.05C660.05 467.05 654.683 461.683 654.683 450.95C654.683 449.783 654.8 448.617 655.033 447.45C655.033 446.283 655.15 445.117 655.383 443.95C657.25 435.55 661.217 427.5 667.283 419.8C673.35 412.1 680.467 404.867 688.633 398.1C696.8 391.567 705.083 385.383 713.483 379.55C722.117 373.95 729.817 369.05 736.583 364.85C740.55 362.283 745.567 359.133 751.633 355.4C757.933 351.667 764.583 347.583 771.583 343.15C778.583 338.95 785.233 334.983 791.533 331.25C794.1 324.717 795.85 317.483 796.783 309.55C797.95 301.383 798.533 293.8 798.533 286.8V284C795.733 288.2 791.65 293.1 786.283 298.7C780.917 304.3 774.85 309.783 768.083 315.15C761.317 320.283 754.667 324.6 748.133 328.1C741.6 331.6 735.65 333.35 730.283 333.35C726.55 333.35 723.983 332.183 722.583 329.85C721.417 327.517 720.833 324.833 720.833 321.8C720.833 313.633 722.583 305.233 726.083 296.6C729.583 287.967 733.55 280.033 737.983 272.8C742.417 265.333 746.383 259.15 749.883 254.25C753.383 249.117 755.133 246.2 755.133 245.5C755.133 245.267 754.9 245.15 754.433 245.15C753.5 245.15 752.45 245.15 751.283 245.15C750.35 245.15 750.233 244.45 750.933 243.05C754.2 239.083 758.283 235.583 763.183 232.55C768.083 229.517 772.75 228 777.183 228C778.817 228 780.683 228.7 782.783 230.1C785.117 231.267 786.283 232.783 786.283 234.65C786.283 235.817 785.583 237.1 784.183 238.5C782.55 240.133 780.567 242 778.233 244.1C776.133 246.2 773.217 249.467 769.483 253.9C767.383 256.233 764.467 260.083 760.733 265.45C757 270.583 753.15 276.533 749.183 283.3C745.217 289.833 741.833 296.367 739.033 302.9C736.467 309.2 735.183 314.683 735.183 319.35C735.183 320.05 735.183 320.867 735.183 321.8C735.417 322.5 736 323.2 736.933 323.9C740.2 324.133 744.283 322.733 749.183 319.7C754.083 316.433 759.217 312.35 764.583 307.45C770.183 302.317 775.433 296.95 780.333 291.35C785.467 285.517 789.9 280.15 793.633 275.25C797.6 270.117 800.4 266.033 802.033 263C804.6 258.333 808.45 256 813.583 256C817.317 256 819.417 256.817 819.883 258.45C820.583 260.083 820.933 262.3 820.933 265.1C820.933 274.2 820.35 282.25 819.183 289.25C818.25 296.017 816.383 303.717 813.583 312.35C828.517 299.517 842.75 285.983 856.283 271.75C856.517 271.283 856.983 270.7 857.683 270C858.617 269.3 859.317 268.95 859.783 268.95C861.183 268.95 861.883 269.65 861.883 271.05C861.883 272.917 861.183 274.783 859.783 276.65C857.683 279.217 855.35 281.783 852.783 284.35C850.45 286.917 848.117 289.483 845.783 292.05C840.183 298.117 834.467 304.183 828.633 310.25C822.8 316.083 816.617 321.683 810.083 327.05C799.35 355.283 785.233 380.017 767.733 401.25C750.467 422.717 728.65 441.033 702.283 456.2C697.85 458.767 692.833 461.217 687.233 463.55C681.633 465.883 676.15 467.05 670.783 467.05ZM678.833 458.3C685.133 458.3 692.017 455.967 699.483 451.3C706.717 446.867 713.95 441.267 721.183 434.5C728.417 427.733 734.95 420.967 740.783 414.2C746.85 407.667 751.633 402.183 755.133 397.75C759.1 392.383 762.95 387.017 766.683 381.65C770.417 376.517 773.917 371.15 777.183 365.55C782.083 357.383 786.167 349.45 789.433 341.75C789.667 341.05 789.433 340.583 788.733 340.35C788.267 340.35 788.033 340.35 788.033 340.35C780.8 345.483 773.45 350.5 765.983 355.4C758.75 360.533 751.4 365.55 743.933 370.45C740.2 372.783 735.183 376.167 728.883 380.6C722.583 385.267 715.817 390.4 708.583 396C701.35 401.833 694.467 407.783 687.933 413.85C681.4 420.15 676.033 426.217 671.833 432.05C667.633 438.117 665.533 443.483 665.533 448.15C665.533 451.883 667.05 454.45 670.083 455.85C672.883 457.483 675.8 458.3 678.833 458.3ZM916.672 336.85C913.172 336.85 909.205 335.8 904.772 333.7C900.572 331.833 898.472 328.8 898.472 324.6C898.472 319.7 900.339 313.867 904.072 307.1C907.805 300.333 912.239 293.333 917.372 286.1C922.505 278.633 927.405 271.517 932.072 264.75C936.972 257.983 940.472 252.267 942.572 247.6C941.172 248.3 938.839 249.7 935.572 251.8C932.539 253.667 929.505 255.65 926.472 257.75C923.439 259.617 921.222 261.133 919.822 262.3C909.789 269.767 901.039 277.467 893.572 285.4C886.339 293.333 878.989 302.433 871.522 312.7C869.655 315.5 867.672 318.417 865.572 321.45C863.705 324.483 861.722 327.4 859.622 330.2C858.689 331.367 857.055 332.533 854.722 333.7C852.622 334.867 850.639 335.45 848.772 335.45C845.739 335.45 844.222 333.817 844.222 330.55C844.222 327.75 845.622 323.433 848.422 317.6C851.455 311.767 855.189 305.117 859.622 297.65C864.055 290.183 868.722 282.833 873.622 275.6C878.522 268.133 882.955 261.483 886.922 255.65C890.889 249.583 893.689 245.267 895.322 242.7C894.855 243.4 893.572 244.683 891.472 246.55C889.372 248.183 887.272 249.933 885.172 251.8C883.305 253.433 881.905 254.6 880.972 255.3C876.539 259.5 872.222 263.817 868.022 268.25C863.822 272.683 859.622 277.117 855.422 281.55C854.955 282.017 854.022 282.717 852.622 283.65C851.455 284.583 850.405 285.05 849.472 285.05C848.305 285.05 847.722 284.467 847.722 283.3C847.722 282.133 849.355 279.683 852.622 275.95C855.889 272.217 859.972 267.783 864.872 262.65C869.772 257.517 874.789 252.267 879.922 246.9C885.289 241.533 889.955 236.75 893.922 232.55C897.889 228.35 900.572 225.433 901.972 223.8C904.305 220.767 906.755 218.317 909.322 216.45C912.122 214.583 915.389 213.65 919.122 213.65C921.222 213.65 923.789 214.7 926.822 216.8C929.855 218.667 931.372 220.883 931.372 223.45C931.372 224.383 931.139 224.967 930.672 225.2C923.672 231.033 916.789 237.917 910.022 245.85C903.489 253.783 897.305 261.95 891.472 270.35C885.639 278.75 880.272 286.567 875.372 293.8C880.972 287.5 887.272 281.317 894.272 275.25C901.272 268.95 908.039 263.117 914.572 257.75L939.422 237.45C941.055 236.05 942.689 234.533 944.322 232.9C946.189 231.267 947.939 229.867 949.572 228.7C951.439 227.533 953.422 227.067 955.522 227.3C957.855 227.3 960.189 227.3 962.522 227.3C965.089 227.3 967.539 228 969.872 229.4C972.439 230.8 973.722 233.017 973.722 236.05C973.722 239.083 972.905 241.417 971.272 243.05C969.872 244.45 968.239 246.083 966.372 247.95C962.405 251.683 957.505 256.583 951.672 262.65C946.072 268.717 940.472 275.25 934.872 282.25C929.272 289.25 924.605 296.367 920.872 303.6C917.139 310.6 915.272 317.133 915.272 323.2C915.272 323.9 915.272 324.6 915.272 325.3C915.272 326 915.389 326.7 915.622 327.4C920.522 325.533 925.889 322.5 931.722 318.3C937.789 313.867 943.855 308.967 949.922 303.6C955.989 298.233 961.589 292.867 966.722 287.5C972.089 282.133 976.522 277.35 980.022 273.15C980.489 272.683 980.955 272.1 981.422 271.4C982.122 270.7 982.939 270.35 983.872 270.35C985.039 270.35 985.622 271.167 985.622 272.8C985.622 273.733 985.272 274.783 984.572 275.95C980.139 281.783 974.189 288.667 966.722 296.6C959.255 304.533 951.555 312.117 943.622 319.35C935.689 326.35 928.572 331.717 922.272 335.45C920.639 336.383 918.772 336.85 916.672 336.85Z" fill="#F5F5F5"/>
</svg>
